%TF.GenerationSoftware,KiCad,Pcbnew,(6.0.2)*%
%TF.CreationDate,2022-03-14T20:10:21-04:00*%
%TF.ProjectId,Sedna_Hardware,5365646e-615f-4486-9172-64776172652e,1*%
%TF.SameCoordinates,Original*%
%TF.FileFunction,Soldermask,Top*%
%TF.FilePolarity,Negative*%
%FSLAX46Y46*%
G04 Gerber Fmt 4.6, Leading zero omitted, Abs format (unit mm)*
G04 Created by KiCad (PCBNEW (6.0.2)) date 2022-03-14 20:10:21*
%MOMM*%
%LPD*%
G01*
G04 APERTURE LIST*
G04 Aperture macros list*
%AMRoundRect*
0 Rectangle with rounded corners*
0 $1 Rounding radius*
0 $2 $3 $4 $5 $6 $7 $8 $9 X,Y pos of 4 corners*
0 Add a 4 corners polygon primitive as box body*
4,1,4,$2,$3,$4,$5,$6,$7,$8,$9,$2,$3,0*
0 Add four circle primitives for the rounded corners*
1,1,$1+$1,$2,$3*
1,1,$1+$1,$4,$5*
1,1,$1+$1,$6,$7*
1,1,$1+$1,$8,$9*
0 Add four rect primitives between the rounded corners*
20,1,$1+$1,$2,$3,$4,$5,0*
20,1,$1+$1,$4,$5,$6,$7,0*
20,1,$1+$1,$6,$7,$8,$9,0*
20,1,$1+$1,$8,$9,$2,$3,0*%
G04 Aperture macros list end*
%ADD10C,0.796200*%
%ADD11C,0.010000*%
%ADD12R,1.240000X1.240000*%
%ADD13C,1.240000*%
%ADD14C,1.600000*%
%ADD15O,1.600000X1.600000*%
%ADD16R,1.398000X1.398000*%
%ADD17C,1.398000*%
%ADD18R,1.600000X1.600000*%
%ADD19C,1.400000*%
%ADD20O,1.400000X1.400000*%
%ADD21C,7.000000*%
%ADD22R,2.200000X2.200000*%
%ADD23O,2.200000X2.200000*%
%ADD24R,2.000000X0.900000*%
%ADD25R,0.900000X2.000000*%
%ADD26R,5.000000X5.000000*%
%ADD27R,2.000000X2.000000*%
%ADD28C,2.000000*%
%ADD29R,2.300000X2.300000*%
%ADD30C,2.300000*%
%ADD31R,1.700000X1.700000*%
%ADD32O,1.700000X1.700000*%
%ADD33R,1.650000X1.650000*%
%ADD34C,1.650000*%
%ADD35RoundRect,0.150000X0.825000X0.150000X-0.825000X0.150000X-0.825000X-0.150000X0.825000X-0.150000X0*%
%ADD36R,2.000000X2.600000*%
%ADD37R,2.600000X2.000000*%
%ADD38R,1.500000X1.000000*%
%ADD39O,1.500000X1.000000*%
%ADD40O,3.500000X3.500000*%
%ADD41R,2.000000X1.905000*%
%ADD42O,2.000000X1.905000*%
G04 APERTURE END LIST*
D10*
%TO.C,J10*%
X174901500Y-124740200D02*
G75*
G03*
X174901500Y-124740200I-398100J0D01*
G01*
X174901500Y-122200200D02*
G75*
G03*
X174901500Y-122200200I-398100J0D01*
G01*
D11*
X173707200Y-120456400D02*
X173707200Y-118864000D01*
X173707200Y-118864000D02*
X175299600Y-118864000D01*
X175299600Y-118864000D02*
X175299600Y-120456400D01*
X175299600Y-120456400D02*
X173707200Y-120456400D01*
G36*
X175299600Y-120456400D02*
G01*
X173707200Y-120456400D01*
X173707200Y-118864000D01*
X175299600Y-118864000D01*
X175299600Y-120456400D01*
G37*
X175299600Y-120456400D02*
X173707200Y-120456400D01*
X173707200Y-118864000D01*
X175299600Y-118864000D01*
X175299600Y-120456400D01*
%TD*%
D12*
%TO.C,J6*%
X175075000Y-135856500D03*
D13*
X175075000Y-133316500D03*
X175075000Y-130776500D03*
%TD*%
D14*
%TO.C,C5*%
X163048000Y-86370000D03*
D15*
X163048000Y-93870000D03*
%TD*%
D16*
%TO.C,J9*%
X174780500Y-91440000D03*
D17*
X174780500Y-93980000D03*
X174780500Y-96520000D03*
%TD*%
D18*
%TO.C,C2*%
X156977000Y-112268000D03*
D14*
X156977000Y-109768000D03*
%TD*%
D19*
%TO.C,R3*%
X128021000Y-94488000D03*
D20*
X133101000Y-94488000D03*
%TD*%
D14*
%TO.C,C7*%
X141125000Y-96925000D03*
D15*
X141125000Y-89425000D03*
%TD*%
D21*
%TO.C,H3*%
X178821000Y-142511755D03*
%TD*%
D19*
%TO.C,R7*%
X151300000Y-134090000D03*
D20*
X151300000Y-129010000D03*
%TD*%
D14*
%TO.C,C6*%
X141050000Y-86225000D03*
D15*
X141050000Y-78725000D03*
%TD*%
D14*
%TO.C,C10*%
X170668000Y-134630000D03*
D15*
X170668000Y-142130000D03*
%TD*%
D21*
%TO.C,H4*%
X115829000Y-142511762D03*
%TD*%
D14*
%TO.C,C1*%
X163048000Y-77146000D03*
X163048000Y-74646000D03*
%TD*%
D22*
%TO.C,D3*%
X134657004Y-86360000D03*
D23*
X124497004Y-86360000D03*
%TD*%
D24*
%TO.C,U2*%
X143125000Y-131021000D03*
X143125000Y-129751000D03*
X143125000Y-128481000D03*
X143125000Y-127211000D03*
X143125000Y-125941000D03*
X143125000Y-124671000D03*
X143125000Y-123401000D03*
X143125000Y-122131000D03*
X143125000Y-120861000D03*
X143125000Y-119591000D03*
X143125000Y-118321000D03*
X143125000Y-117051000D03*
X143125000Y-115781000D03*
X143125000Y-114511000D03*
D25*
X140340000Y-113511000D03*
X139070000Y-113511000D03*
X137800000Y-113511000D03*
X136530000Y-113511000D03*
X135260000Y-113511000D03*
X133990000Y-113511000D03*
X132720000Y-113511000D03*
X131450000Y-113511000D03*
X130180000Y-113511000D03*
X128910000Y-113511000D03*
D24*
X126125000Y-114511000D03*
X126125000Y-115781000D03*
X126125000Y-117051000D03*
X126125000Y-118321000D03*
X126125000Y-119591000D03*
X126125000Y-120861000D03*
X126125000Y-122131000D03*
X126125000Y-123401000D03*
X126125000Y-124671000D03*
X126125000Y-125941000D03*
X126125000Y-127211000D03*
X126125000Y-128481000D03*
X126125000Y-129751000D03*
X126125000Y-131021000D03*
D26*
X135625000Y-123521000D03*
%TD*%
D22*
%TO.C,D2*%
X158501000Y-86360000D03*
D23*
X148341000Y-86360000D03*
%TD*%
D19*
%TO.C,R8*%
X171176000Y-131572000D03*
D20*
X166096000Y-131572000D03*
%TD*%
D14*
%TO.C,C4*%
X167125000Y-118325000D03*
D15*
X159625000Y-118325000D03*
%TD*%
D27*
%TO.C,D1*%
X178796000Y-86564000D03*
D28*
X178796000Y-84024000D03*
%TD*%
D21*
%TO.C,H1*%
X115829000Y-67056000D03*
%TD*%
D19*
%TO.C,R11*%
X165588000Y-112472000D03*
D20*
X170668000Y-112472000D03*
%TD*%
D14*
%TO.C,C9*%
X110022000Y-136348000D03*
D15*
X117522000Y-136348000D03*
%TD*%
D16*
%TO.C,J5*%
X174780500Y-101600000D03*
D17*
X174780500Y-104140000D03*
X174780500Y-106680000D03*
%TD*%
D29*
%TO.C,J8*%
X132050003Y-59700008D03*
D30*
X127050003Y-59700008D03*
%TD*%
D16*
%TO.C,J11*%
X174807500Y-111710000D03*
D17*
X174807500Y-114250000D03*
%TD*%
D19*
%TO.C,R10*%
X170668000Y-118364000D03*
D20*
X170668000Y-123444000D03*
%TD*%
D19*
%TO.C,R1*%
X167112000Y-85548000D03*
D20*
X172192000Y-85548000D03*
%TD*%
D31*
%TO.C,J4*%
X112248000Y-130760000D03*
D32*
X109708000Y-130760000D03*
X112248000Y-128220000D03*
X109708000Y-128220000D03*
X112248000Y-125680000D03*
X109708000Y-125680000D03*
%TD*%
D14*
%TO.C,C3*%
X156937000Y-119584000D03*
D15*
X149437000Y-119584000D03*
%TD*%
D33*
%TO.C,RV1*%
X162733800Y-144410600D03*
D34*
X160233800Y-141910600D03*
X162733800Y-139410600D03*
%TD*%
D18*
%TO.C,C12*%
X170450000Y-91055113D03*
D14*
X170450000Y-88555113D03*
%TD*%
D31*
%TO.C,J2*%
X141224000Y-102616000D03*
D32*
X141224000Y-105156000D03*
X138684000Y-102616000D03*
X138684000Y-105156000D03*
X136144000Y-102616000D03*
X136144000Y-105156000D03*
X133604000Y-102616000D03*
X133604000Y-105156000D03*
X131064000Y-102616000D03*
X131064000Y-105156000D03*
%TD*%
D14*
%TO.C,C14*%
X170668000Y-101610000D03*
D15*
X170668000Y-109110000D03*
%TD*%
D35*
%TO.C,U3*%
X161484000Y-132969000D03*
X161484000Y-131699000D03*
X161484000Y-130429000D03*
X161484000Y-129159000D03*
X156534000Y-129159000D03*
X156534000Y-130429000D03*
X156534000Y-131699000D03*
X156534000Y-132969000D03*
%TD*%
D31*
%TO.C,J3*%
X110216000Y-79960000D03*
D32*
X110216000Y-82500000D03*
X110216000Y-85040000D03*
X110216000Y-87580000D03*
X110216000Y-90120000D03*
X110216000Y-92660000D03*
X110216000Y-95200000D03*
X110216000Y-97740000D03*
X110216000Y-100280000D03*
X110216000Y-102820000D03*
X110216000Y-105360000D03*
X110216000Y-107900000D03*
X110216000Y-110440000D03*
X110216000Y-112980000D03*
%TD*%
D36*
%TO.C,J1*%
X172466000Y-77258000D03*
X178466000Y-77258000D03*
D37*
X175466000Y-72558000D03*
%TD*%
D38*
%TO.C,Q1*%
X148375000Y-94170000D03*
D39*
X148375000Y-92900000D03*
X148375000Y-91630000D03*
%TD*%
D19*
%TO.C,R4*%
X157940000Y-92900000D03*
D20*
X152860000Y-92900000D03*
%TD*%
D14*
%TO.C,C11*%
X115804000Y-80154000D03*
D15*
X115804000Y-72654000D03*
%TD*%
D14*
%TO.C,C8*%
X162734000Y-136348000D03*
D15*
X155234000Y-136348000D03*
%TD*%
D14*
%TO.C,C13*%
X156758000Y-124664000D03*
D15*
X164258000Y-124664000D03*
%TD*%
D40*
%TO.C,U1*%
X148023000Y-102616000D03*
D41*
X164683000Y-100076000D03*
D42*
X164683000Y-102616000D03*
X164683000Y-105156000D03*
%TD*%
D21*
%TO.C,H2*%
X178821000Y-67056000D03*
%TD*%
D19*
%TO.C,R5*%
X133101000Y-91948000D03*
D20*
X128021000Y-91948000D03*
%TD*%
D38*
%TO.C,Q2*%
X124332000Y-93218000D03*
D39*
X124332000Y-91948000D03*
X124332000Y-90678000D03*
%TD*%
D19*
%TO.C,R2*%
X152913000Y-95504000D03*
D20*
X157993000Y-95504000D03*
%TD*%
D19*
%TO.C,R9*%
X167620000Y-95708000D03*
D20*
X172700000Y-95708000D03*
%TD*%
D29*
%TO.C,J7*%
X156200000Y-59750000D03*
D30*
X151200000Y-59750000D03*
%TD*%
D19*
%TO.C,R6*%
X171201000Y-129540000D03*
D20*
X166121000Y-129540000D03*
%TD*%
M02*
