%TF.GenerationSoftware,KiCad,Pcbnew,(6.0.2)*%
%TF.CreationDate,2022-03-18T09:14:39-04:00*%
%TF.ProjectId,Sedna_Hardware,5365646e-615f-4486-9172-64776172652e,1*%
%TF.SameCoordinates,Original*%
%TF.FileFunction,Legend,Top*%
%TF.FilePolarity,Positive*%
%FSLAX46Y46*%
G04 Gerber Fmt 4.6, Leading zero omitted, Abs format (unit mm)*
G04 Created by KiCad (PCBNEW (6.0.2)) date 2022-03-18 09:14:39*
%MOMM*%
%LPD*%
G01*
G04 APERTURE LIST*
%ADD10C,0.150000*%
%ADD11C,0.127000*%
%ADD12C,0.200000*%
%ADD13C,0.120000*%
%ADD14C,0.250000*%
%ADD15C,0.100000*%
G04 APERTURE END LIST*
D10*
%TO.C,J6*%
X174184380Y-136693333D02*
X174898666Y-136693333D01*
X175041523Y-136740952D01*
X175136761Y-136836190D01*
X175184380Y-136979047D01*
X175184380Y-137074285D01*
X174184380Y-135788571D02*
X174184380Y-135979047D01*
X174232000Y-136074285D01*
X174279619Y-136121904D01*
X174422476Y-136217142D01*
X174612952Y-136264761D01*
X174993904Y-136264761D01*
X175089142Y-136217142D01*
X175136761Y-136169523D01*
X175184380Y-136074285D01*
X175184380Y-135883809D01*
X175136761Y-135788571D01*
X175089142Y-135740952D01*
X174993904Y-135693333D01*
X174755809Y-135693333D01*
X174660571Y-135740952D01*
X174612952Y-135788571D01*
X174565333Y-135883809D01*
X174565333Y-136074285D01*
X174612952Y-136169523D01*
X174660571Y-136217142D01*
X174755809Y-136264761D01*
%TO.C,C5*%
X164428142Y-90032666D02*
X164475761Y-90080285D01*
X164523380Y-90223142D01*
X164523380Y-90318380D01*
X164475761Y-90461238D01*
X164380523Y-90556476D01*
X164285285Y-90604095D01*
X164094809Y-90651714D01*
X163951952Y-90651714D01*
X163761476Y-90604095D01*
X163666238Y-90556476D01*
X163571000Y-90461238D01*
X163523380Y-90318380D01*
X163523380Y-90223142D01*
X163571000Y-90080285D01*
X163618619Y-90032666D01*
X163523380Y-89127904D02*
X163523380Y-89604095D01*
X163999571Y-89651714D01*
X163951952Y-89604095D01*
X163904333Y-89508857D01*
X163904333Y-89270761D01*
X163951952Y-89175523D01*
X163999571Y-89127904D01*
X164094809Y-89080285D01*
X164332904Y-89080285D01*
X164428142Y-89127904D01*
X164475761Y-89175523D01*
X164523380Y-89270761D01*
X164523380Y-89508857D01*
X164475761Y-89604095D01*
X164428142Y-89651714D01*
%TO.C,J9*%
X173703380Y-98621333D02*
X174417666Y-98621333D01*
X174560523Y-98668952D01*
X174655761Y-98764190D01*
X174703380Y-98907047D01*
X174703380Y-99002285D01*
X174703380Y-98097523D02*
X174703380Y-97907047D01*
X174655761Y-97811809D01*
X174608142Y-97764190D01*
X174465285Y-97668952D01*
X174274809Y-97621333D01*
X173893857Y-97621333D01*
X173798619Y-97668952D01*
X173751000Y-97716571D01*
X173703380Y-97811809D01*
X173703380Y-98002285D01*
X173751000Y-98097523D01*
X173798619Y-98145142D01*
X173893857Y-98192761D01*
X174131952Y-98192761D01*
X174227190Y-98145142D01*
X174274809Y-98097523D01*
X174322428Y-98002285D01*
X174322428Y-97811809D01*
X174274809Y-97716571D01*
X174227190Y-97668952D01*
X174131952Y-97621333D01*
%TO.C,C2*%
X153778142Y-109894666D02*
X153825761Y-109942285D01*
X153873380Y-110085142D01*
X153873380Y-110180380D01*
X153825761Y-110323238D01*
X153730523Y-110418476D01*
X153635285Y-110466095D01*
X153444809Y-110513714D01*
X153301952Y-110513714D01*
X153111476Y-110466095D01*
X153016238Y-110418476D01*
X152921000Y-110323238D01*
X152873380Y-110180380D01*
X152873380Y-110085142D01*
X152921000Y-109942285D01*
X152968619Y-109894666D01*
X152968619Y-109513714D02*
X152921000Y-109466095D01*
X152873380Y-109370857D01*
X152873380Y-109132761D01*
X152921000Y-109037523D01*
X152968619Y-108989904D01*
X153063857Y-108942285D01*
X153159095Y-108942285D01*
X153301952Y-108989904D01*
X153873380Y-109561333D01*
X153873380Y-108942285D01*
%TO.C,R3*%
X135560380Y-90159666D02*
X135084190Y-90493000D01*
X135560380Y-90731095D02*
X134560380Y-90731095D01*
X134560380Y-90350142D01*
X134608000Y-90254904D01*
X134655619Y-90207285D01*
X134750857Y-90159666D01*
X134893714Y-90159666D01*
X134988952Y-90207285D01*
X135036571Y-90254904D01*
X135084190Y-90350142D01*
X135084190Y-90731095D01*
X134560380Y-89826333D02*
X134560380Y-89207285D01*
X134941333Y-89540619D01*
X134941333Y-89397761D01*
X134988952Y-89302523D01*
X135036571Y-89254904D01*
X135131809Y-89207285D01*
X135369904Y-89207285D01*
X135465142Y-89254904D01*
X135512761Y-89302523D01*
X135560380Y-89397761D01*
X135560380Y-89683476D01*
X135512761Y-89778714D01*
X135465142Y-89826333D01*
%TO.C,C7*%
X136601142Y-92826666D02*
X136648761Y-92874285D01*
X136696380Y-93017142D01*
X136696380Y-93112380D01*
X136648761Y-93255238D01*
X136553523Y-93350476D01*
X136458285Y-93398095D01*
X136267809Y-93445714D01*
X136124952Y-93445714D01*
X135934476Y-93398095D01*
X135839238Y-93350476D01*
X135744000Y-93255238D01*
X135696380Y-93112380D01*
X135696380Y-93017142D01*
X135744000Y-92874285D01*
X135791619Y-92826666D01*
X135696380Y-92493333D02*
X135696380Y-91826666D01*
X136696380Y-92255238D01*
%TO.C,H3*%
X174773380Y-143273659D02*
X173773380Y-143273659D01*
X174249571Y-143273659D02*
X174249571Y-142702231D01*
X174773380Y-142702231D02*
X173773380Y-142702231D01*
X173773380Y-142321278D02*
X173773380Y-141702231D01*
X174154333Y-142035564D01*
X174154333Y-141892707D01*
X174201952Y-141797469D01*
X174249571Y-141749850D01*
X174344809Y-141702231D01*
X174582904Y-141702231D01*
X174678142Y-141749850D01*
X174725761Y-141797469D01*
X174773380Y-141892707D01*
X174773380Y-142178421D01*
X174725761Y-142273659D01*
X174678142Y-142321278D01*
%TO.C,K1*%
X146882390Y-82739404D02*
X145882390Y-82739404D01*
X146882390Y-82167976D02*
X146310962Y-82596547D01*
X145882390Y-82167976D02*
X146453819Y-82739404D01*
X146882390Y-81215595D02*
X146882390Y-81787023D01*
X146882390Y-81501309D02*
X145882390Y-81501309D01*
X146025248Y-81596547D01*
X146120486Y-81691785D01*
X146168105Y-81787023D01*
X152954533Y-78398095D02*
X151684533Y-78398095D01*
X151684533Y-77914285D01*
X151745010Y-77793333D01*
X151805486Y-77732857D01*
X151926438Y-77672380D01*
X152107867Y-77672380D01*
X152228819Y-77732857D01*
X152289295Y-77793333D01*
X152349771Y-77914285D01*
X152349771Y-78398095D01*
X152289295Y-76704761D02*
X152349771Y-76523333D01*
X152410248Y-76462857D01*
X152531200Y-76402380D01*
X152712629Y-76402380D01*
X152833581Y-76462857D01*
X152894057Y-76523333D01*
X152954533Y-76644285D01*
X152954533Y-77128095D01*
X151684533Y-77128095D01*
X151684533Y-76704761D01*
X151745010Y-76583809D01*
X151805486Y-76523333D01*
X151926438Y-76462857D01*
X152047390Y-76462857D01*
X152168343Y-76523333D01*
X152228819Y-76583809D01*
X152289295Y-76704761D01*
X152289295Y-77128095D01*
X152954533Y-75192857D02*
X152954533Y-75918571D01*
X152954533Y-75555714D02*
X151684533Y-75555714D01*
X151865962Y-75676666D01*
X151986914Y-75797619D01*
X152047390Y-75918571D01*
X152228819Y-74467142D02*
X152168343Y-74588095D01*
X152107867Y-74648571D01*
X151986914Y-74709047D01*
X151926438Y-74709047D01*
X151805486Y-74648571D01*
X151745010Y-74588095D01*
X151684533Y-74467142D01*
X151684533Y-74225238D01*
X151745010Y-74104285D01*
X151805486Y-74043809D01*
X151926438Y-73983333D01*
X151986914Y-73983333D01*
X152107867Y-74043809D01*
X152168343Y-74104285D01*
X152228819Y-74225238D01*
X152228819Y-74467142D01*
X152289295Y-74588095D01*
X152349771Y-74648571D01*
X152470724Y-74709047D01*
X152712629Y-74709047D01*
X152833581Y-74648571D01*
X152894057Y-74588095D01*
X152954533Y-74467142D01*
X152954533Y-74225238D01*
X152894057Y-74104285D01*
X152833581Y-74043809D01*
X152712629Y-73983333D01*
X152470724Y-73983333D01*
X152349771Y-74043809D01*
X152289295Y-74104285D01*
X152228819Y-74225238D01*
X151805486Y-73499523D02*
X151745010Y-73439047D01*
X151684533Y-73318095D01*
X151684533Y-73015714D01*
X151745010Y-72894761D01*
X151805486Y-72834285D01*
X151926438Y-72773809D01*
X152047390Y-72773809D01*
X152228819Y-72834285D01*
X152954533Y-73560000D01*
X152954533Y-72773809D01*
X152228819Y-72048095D02*
X152168343Y-72169047D01*
X152107867Y-72229523D01*
X151986914Y-72290000D01*
X151926438Y-72290000D01*
X151805486Y-72229523D01*
X151745010Y-72169047D01*
X151684533Y-72048095D01*
X151684533Y-71806190D01*
X151745010Y-71685238D01*
X151805486Y-71624761D01*
X151926438Y-71564285D01*
X151986914Y-71564285D01*
X152107867Y-71624761D01*
X152168343Y-71685238D01*
X152228819Y-71806190D01*
X152228819Y-72048095D01*
X152289295Y-72169047D01*
X152349771Y-72229523D01*
X152470724Y-72290000D01*
X152712629Y-72290000D01*
X152833581Y-72229523D01*
X152894057Y-72169047D01*
X152954533Y-72048095D01*
X152954533Y-71806190D01*
X152894057Y-71685238D01*
X152833581Y-71624761D01*
X152712629Y-71564285D01*
X152470724Y-71564285D01*
X152349771Y-71624761D01*
X152289295Y-71685238D01*
X152228819Y-71806190D01*
X152470724Y-71020000D02*
X152470724Y-70052380D01*
X152954533Y-69447619D02*
X151684533Y-69447619D01*
X152954533Y-68721904D01*
X151684533Y-68721904D01*
X152954533Y-68117142D02*
X151684533Y-68117142D01*
X151684533Y-67814761D01*
X151745010Y-67633333D01*
X151865962Y-67512380D01*
X151986914Y-67451904D01*
X152228819Y-67391428D01*
X152410248Y-67391428D01*
X152652152Y-67451904D01*
X152773105Y-67512380D01*
X152894057Y-67633333D01*
X152954533Y-67814761D01*
X152954533Y-68117142D01*
%TO.C,R7*%
X153467380Y-131307666D02*
X152991190Y-131641000D01*
X153467380Y-131879095D02*
X152467380Y-131879095D01*
X152467380Y-131498142D01*
X152515000Y-131402904D01*
X152562619Y-131355285D01*
X152657857Y-131307666D01*
X152800714Y-131307666D01*
X152895952Y-131355285D01*
X152943571Y-131402904D01*
X152991190Y-131498142D01*
X152991190Y-131879095D01*
X152467380Y-130974333D02*
X152467380Y-130307666D01*
X153467380Y-130736238D01*
%TO.C,C6*%
X136601142Y-81650666D02*
X136648761Y-81698285D01*
X136696380Y-81841142D01*
X136696380Y-81936380D01*
X136648761Y-82079238D01*
X136553523Y-82174476D01*
X136458285Y-82222095D01*
X136267809Y-82269714D01*
X136124952Y-82269714D01*
X135934476Y-82222095D01*
X135839238Y-82174476D01*
X135744000Y-82079238D01*
X135696380Y-81936380D01*
X135696380Y-81841142D01*
X135744000Y-81698285D01*
X135791619Y-81650666D01*
X135696380Y-80793523D02*
X135696380Y-80984000D01*
X135744000Y-81079238D01*
X135791619Y-81126857D01*
X135934476Y-81222095D01*
X136124952Y-81269714D01*
X136505904Y-81269714D01*
X136601142Y-81222095D01*
X136648761Y-81174476D01*
X136696380Y-81079238D01*
X136696380Y-80888761D01*
X136648761Y-80793523D01*
X136601142Y-80745904D01*
X136505904Y-80698285D01*
X136267809Y-80698285D01*
X136172571Y-80745904D01*
X136124952Y-80793523D01*
X136077333Y-80888761D01*
X136077333Y-81079238D01*
X136124952Y-81174476D01*
X136172571Y-81222095D01*
X136267809Y-81269714D01*
%TO.C,C10*%
X169501142Y-138260857D02*
X169548761Y-138308476D01*
X169596380Y-138451333D01*
X169596380Y-138546571D01*
X169548761Y-138689428D01*
X169453523Y-138784666D01*
X169358285Y-138832285D01*
X169167809Y-138879904D01*
X169024952Y-138879904D01*
X168834476Y-138832285D01*
X168739238Y-138784666D01*
X168644000Y-138689428D01*
X168596380Y-138546571D01*
X168596380Y-138451333D01*
X168644000Y-138308476D01*
X168691619Y-138260857D01*
X169596380Y-137308476D02*
X169596380Y-137879904D01*
X169596380Y-137594190D02*
X168596380Y-137594190D01*
X168739238Y-137689428D01*
X168834476Y-137784666D01*
X168882095Y-137879904D01*
X168596380Y-136689428D02*
X168596380Y-136594190D01*
X168644000Y-136498952D01*
X168691619Y-136451333D01*
X168786857Y-136403714D01*
X168977333Y-136356095D01*
X169215428Y-136356095D01*
X169405904Y-136403714D01*
X169501142Y-136451333D01*
X169548761Y-136498952D01*
X169596380Y-136594190D01*
X169596380Y-136689428D01*
X169548761Y-136784666D01*
X169501142Y-136832285D01*
X169405904Y-136879904D01*
X169215428Y-136927523D01*
X168977333Y-136927523D01*
X168786857Y-136879904D01*
X168691619Y-136832285D01*
X168644000Y-136784666D01*
X168596380Y-136689428D01*
%TO.C,H4*%
X111781380Y-143273666D02*
X110781380Y-143273666D01*
X111257571Y-143273666D02*
X111257571Y-142702238D01*
X111781380Y-142702238D02*
X110781380Y-142702238D01*
X111114714Y-141797476D02*
X111781380Y-141797476D01*
X110733761Y-142035571D02*
X111448047Y-142273666D01*
X111448047Y-141654619D01*
%TO.C,K2*%
X122802377Y-82739404D02*
X121802377Y-82739404D01*
X122802377Y-82167976D02*
X122230949Y-82596547D01*
X121802377Y-82167976D02*
X122373806Y-82739404D01*
X121897616Y-81787023D02*
X121849997Y-81739404D01*
X121802377Y-81644166D01*
X121802377Y-81406071D01*
X121849997Y-81310833D01*
X121897616Y-81263214D01*
X121992854Y-81215595D01*
X122088092Y-81215595D01*
X122230949Y-81263214D01*
X122802377Y-81834642D01*
X122802377Y-81215595D01*
X128874520Y-78398095D02*
X127604520Y-78398095D01*
X127604520Y-77914285D01*
X127664997Y-77793333D01*
X127725473Y-77732857D01*
X127846425Y-77672380D01*
X128027854Y-77672380D01*
X128148806Y-77732857D01*
X128209282Y-77793333D01*
X128269758Y-77914285D01*
X128269758Y-78398095D01*
X128209282Y-76704761D02*
X128269758Y-76523333D01*
X128330235Y-76462857D01*
X128451187Y-76402380D01*
X128632616Y-76402380D01*
X128753568Y-76462857D01*
X128814044Y-76523333D01*
X128874520Y-76644285D01*
X128874520Y-77128095D01*
X127604520Y-77128095D01*
X127604520Y-76704761D01*
X127664997Y-76583809D01*
X127725473Y-76523333D01*
X127846425Y-76462857D01*
X127967377Y-76462857D01*
X128088330Y-76523333D01*
X128148806Y-76583809D01*
X128209282Y-76704761D01*
X128209282Y-77128095D01*
X128874520Y-75192857D02*
X128874520Y-75918571D01*
X128874520Y-75555714D02*
X127604520Y-75555714D01*
X127785949Y-75676666D01*
X127906901Y-75797619D01*
X127967377Y-75918571D01*
X128148806Y-74467142D02*
X128088330Y-74588095D01*
X128027854Y-74648571D01*
X127906901Y-74709047D01*
X127846425Y-74709047D01*
X127725473Y-74648571D01*
X127664997Y-74588095D01*
X127604520Y-74467142D01*
X127604520Y-74225238D01*
X127664997Y-74104285D01*
X127725473Y-74043809D01*
X127846425Y-73983333D01*
X127906901Y-73983333D01*
X128027854Y-74043809D01*
X128088330Y-74104285D01*
X128148806Y-74225238D01*
X128148806Y-74467142D01*
X128209282Y-74588095D01*
X128269758Y-74648571D01*
X128390711Y-74709047D01*
X128632616Y-74709047D01*
X128753568Y-74648571D01*
X128814044Y-74588095D01*
X128874520Y-74467142D01*
X128874520Y-74225238D01*
X128814044Y-74104285D01*
X128753568Y-74043809D01*
X128632616Y-73983333D01*
X128390711Y-73983333D01*
X128269758Y-74043809D01*
X128209282Y-74104285D01*
X128148806Y-74225238D01*
X127725473Y-73499523D02*
X127664997Y-73439047D01*
X127604520Y-73318095D01*
X127604520Y-73015714D01*
X127664997Y-72894761D01*
X127725473Y-72834285D01*
X127846425Y-72773809D01*
X127967377Y-72773809D01*
X128148806Y-72834285D01*
X128874520Y-73560000D01*
X128874520Y-72773809D01*
X128148806Y-72048095D02*
X128088330Y-72169047D01*
X128027854Y-72229523D01*
X127906901Y-72290000D01*
X127846425Y-72290000D01*
X127725473Y-72229523D01*
X127664997Y-72169047D01*
X127604520Y-72048095D01*
X127604520Y-71806190D01*
X127664997Y-71685238D01*
X127725473Y-71624761D01*
X127846425Y-71564285D01*
X127906901Y-71564285D01*
X128027854Y-71624761D01*
X128088330Y-71685238D01*
X128148806Y-71806190D01*
X128148806Y-72048095D01*
X128209282Y-72169047D01*
X128269758Y-72229523D01*
X128390711Y-72290000D01*
X128632616Y-72290000D01*
X128753568Y-72229523D01*
X128814044Y-72169047D01*
X128874520Y-72048095D01*
X128874520Y-71806190D01*
X128814044Y-71685238D01*
X128753568Y-71624761D01*
X128632616Y-71564285D01*
X128390711Y-71564285D01*
X128269758Y-71624761D01*
X128209282Y-71685238D01*
X128148806Y-71806190D01*
X128390711Y-71020000D02*
X128390711Y-70052380D01*
X128874520Y-69447619D02*
X127604520Y-69447619D01*
X128874520Y-68721904D01*
X127604520Y-68721904D01*
X128874520Y-68117142D02*
X127604520Y-68117142D01*
X127604520Y-67814761D01*
X127664997Y-67633333D01*
X127785949Y-67512380D01*
X127906901Y-67451904D01*
X128148806Y-67391428D01*
X128330235Y-67391428D01*
X128572139Y-67451904D01*
X128693092Y-67512380D01*
X128814044Y-67633333D01*
X128874520Y-67814761D01*
X128874520Y-68117142D01*
%TO.C,C1*%
X158497142Y-76062666D02*
X158544761Y-76110285D01*
X158592380Y-76253142D01*
X158592380Y-76348380D01*
X158544761Y-76491238D01*
X158449523Y-76586476D01*
X158354285Y-76634095D01*
X158163809Y-76681714D01*
X158020952Y-76681714D01*
X157830476Y-76634095D01*
X157735238Y-76586476D01*
X157640000Y-76491238D01*
X157592380Y-76348380D01*
X157592380Y-76253142D01*
X157640000Y-76110285D01*
X157687619Y-76062666D01*
X158592380Y-75110285D02*
X158592380Y-75681714D01*
X158592380Y-75396000D02*
X157592380Y-75396000D01*
X157735238Y-75491238D01*
X157830476Y-75586476D01*
X157878095Y-75681714D01*
%TO.C,D3*%
X128838908Y-88470380D02*
X128838908Y-87470380D01*
X129077004Y-87470380D01*
X129219861Y-87518000D01*
X129315099Y-87613238D01*
X129362718Y-87708476D01*
X129410337Y-87898952D01*
X129410337Y-88041809D01*
X129362718Y-88232285D01*
X129315099Y-88327523D01*
X129219861Y-88422761D01*
X129077004Y-88470380D01*
X128838908Y-88470380D01*
X129743670Y-87470380D02*
X130362718Y-87470380D01*
X130029384Y-87851333D01*
X130172242Y-87851333D01*
X130267480Y-87898952D01*
X130315099Y-87946571D01*
X130362718Y-88041809D01*
X130362718Y-88279904D01*
X130315099Y-88375142D01*
X130267480Y-88422761D01*
X130172242Y-88470380D01*
X129886527Y-88470380D01*
X129791289Y-88422761D01*
X129743670Y-88375142D01*
%TO.C,U2*%
X123409380Y-131825904D02*
X124218904Y-131825904D01*
X124314142Y-131778285D01*
X124361761Y-131730666D01*
X124409380Y-131635428D01*
X124409380Y-131444952D01*
X124361761Y-131349714D01*
X124314142Y-131302095D01*
X124218904Y-131254476D01*
X123409380Y-131254476D01*
X123504619Y-130825904D02*
X123457000Y-130778285D01*
X123409380Y-130683047D01*
X123409380Y-130444952D01*
X123457000Y-130349714D01*
X123504619Y-130302095D01*
X123599857Y-130254476D01*
X123695095Y-130254476D01*
X123837952Y-130302095D01*
X124409380Y-130873523D01*
X124409380Y-130254476D01*
%TO.C,J7*%
X153216666Y-62452380D02*
X153216666Y-63166666D01*
X153169047Y-63309523D01*
X153073809Y-63404761D01*
X152930952Y-63452380D01*
X152835714Y-63452380D01*
X153597619Y-62452380D02*
X154264285Y-62452380D01*
X153835714Y-63452380D01*
%TO.C,D2*%
X142672380Y-86794095D02*
X141672380Y-86794095D01*
X141672380Y-86556000D01*
X141720000Y-86413142D01*
X141815238Y-86317904D01*
X141910476Y-86270285D01*
X142100952Y-86222666D01*
X142243809Y-86222666D01*
X142434285Y-86270285D01*
X142529523Y-86317904D01*
X142624761Y-86413142D01*
X142672380Y-86556000D01*
X142672380Y-86794095D01*
X141767619Y-85841714D02*
X141720000Y-85794095D01*
X141672380Y-85698857D01*
X141672380Y-85460761D01*
X141720000Y-85365523D01*
X141767619Y-85317904D01*
X141862857Y-85270285D01*
X141958095Y-85270285D01*
X142100952Y-85317904D01*
X142672380Y-85889333D01*
X142672380Y-85270285D01*
%TO.C,R8*%
X173152380Y-131942666D02*
X172676190Y-132276000D01*
X173152380Y-132514095D02*
X172152380Y-132514095D01*
X172152380Y-132133142D01*
X172200000Y-132037904D01*
X172247619Y-131990285D01*
X172342857Y-131942666D01*
X172485714Y-131942666D01*
X172580952Y-131990285D01*
X172628571Y-132037904D01*
X172676190Y-132133142D01*
X172676190Y-132514095D01*
X172580952Y-131371238D02*
X172533333Y-131466476D01*
X172485714Y-131514095D01*
X172390476Y-131561714D01*
X172342857Y-131561714D01*
X172247619Y-131514095D01*
X172200000Y-131466476D01*
X172152380Y-131371238D01*
X172152380Y-131180761D01*
X172200000Y-131085523D01*
X172247619Y-131037904D01*
X172342857Y-130990285D01*
X172390476Y-130990285D01*
X172485714Y-131037904D01*
X172533333Y-131085523D01*
X172580952Y-131180761D01*
X172580952Y-131371238D01*
X172628571Y-131466476D01*
X172676190Y-131514095D01*
X172771428Y-131561714D01*
X172961904Y-131561714D01*
X173057142Y-131514095D01*
X173104761Y-131466476D01*
X173152380Y-131371238D01*
X173152380Y-131180761D01*
X173104761Y-131085523D01*
X173057142Y-131037904D01*
X172961904Y-130990285D01*
X172771428Y-130990285D01*
X172676190Y-131037904D01*
X172628571Y-131085523D01*
X172580952Y-131180761D01*
%TO.C,C4*%
X164024333Y-121345142D02*
X163976714Y-121392761D01*
X163833857Y-121440380D01*
X163738619Y-121440380D01*
X163595761Y-121392761D01*
X163500523Y-121297523D01*
X163452904Y-121202285D01*
X163405285Y-121011809D01*
X163405285Y-120868952D01*
X163452904Y-120678476D01*
X163500523Y-120583238D01*
X163595761Y-120488000D01*
X163738619Y-120440380D01*
X163833857Y-120440380D01*
X163976714Y-120488000D01*
X164024333Y-120535619D01*
X164881476Y-120773714D02*
X164881476Y-121440380D01*
X164643380Y-120392761D02*
X164405285Y-121107047D01*
X165024333Y-121107047D01*
%TO.C,D1*%
X174168380Y-84762095D02*
X173168380Y-84762095D01*
X173168380Y-84524000D01*
X173216000Y-84381142D01*
X173311238Y-84285904D01*
X173406476Y-84238285D01*
X173596952Y-84190666D01*
X173739809Y-84190666D01*
X173930285Y-84238285D01*
X174025523Y-84285904D01*
X174120761Y-84381142D01*
X174168380Y-84524000D01*
X174168380Y-84762095D01*
X174168380Y-83238285D02*
X174168380Y-83809714D01*
X174168380Y-83524000D02*
X173168380Y-83524000D01*
X173311238Y-83619238D01*
X173406476Y-83714476D01*
X173454095Y-83809714D01*
%TO.C,H1*%
X111781380Y-67817904D02*
X110781380Y-67817904D01*
X111257571Y-67817904D02*
X111257571Y-67246476D01*
X111781380Y-67246476D02*
X110781380Y-67246476D01*
X111781380Y-66246476D02*
X111781380Y-66817904D01*
X111781380Y-66532190D02*
X110781380Y-66532190D01*
X110924238Y-66627428D01*
X111019476Y-66722666D01*
X111067095Y-66817904D01*
%TO.C,R11*%
X167485142Y-111004380D02*
X167151809Y-110528190D01*
X166913714Y-111004380D02*
X166913714Y-110004380D01*
X167294666Y-110004380D01*
X167389904Y-110052000D01*
X167437523Y-110099619D01*
X167485142Y-110194857D01*
X167485142Y-110337714D01*
X167437523Y-110432952D01*
X167389904Y-110480571D01*
X167294666Y-110528190D01*
X166913714Y-110528190D01*
X168437523Y-111004380D02*
X167866095Y-111004380D01*
X168151809Y-111004380D02*
X168151809Y-110004380D01*
X168056571Y-110147238D01*
X167961333Y-110242476D01*
X167866095Y-110290095D01*
X169389904Y-111004380D02*
X168818476Y-111004380D01*
X169104190Y-111004380D02*
X169104190Y-110004380D01*
X169008952Y-110147238D01*
X168913714Y-110242476D01*
X168818476Y-110290095D01*
%TO.C,C9*%
X111573333Y-134285142D02*
X111525714Y-134332761D01*
X111382857Y-134380380D01*
X111287619Y-134380380D01*
X111144761Y-134332761D01*
X111049523Y-134237523D01*
X111001904Y-134142285D01*
X110954285Y-133951809D01*
X110954285Y-133808952D01*
X111001904Y-133618476D01*
X111049523Y-133523238D01*
X111144761Y-133428000D01*
X111287619Y-133380380D01*
X111382857Y-133380380D01*
X111525714Y-133428000D01*
X111573333Y-133475619D01*
X112049523Y-134380380D02*
X112240000Y-134380380D01*
X112335238Y-134332761D01*
X112382857Y-134285142D01*
X112478095Y-134142285D01*
X112525714Y-133951809D01*
X112525714Y-133570857D01*
X112478095Y-133475619D01*
X112430476Y-133428000D01*
X112335238Y-133380380D01*
X112144761Y-133380380D01*
X112049523Y-133428000D01*
X112001904Y-133475619D01*
X111954285Y-133570857D01*
X111954285Y-133808952D01*
X112001904Y-133904190D01*
X112049523Y-133951809D01*
X112144761Y-133999428D01*
X112335238Y-133999428D01*
X112430476Y-133951809D01*
X112478095Y-133904190D01*
X112525714Y-133808952D01*
%TO.C,J5*%
X174211380Y-108741333D02*
X174925666Y-108741333D01*
X175068523Y-108788952D01*
X175163761Y-108884190D01*
X175211380Y-109027047D01*
X175211380Y-109122285D01*
X174211380Y-107788952D02*
X174211380Y-108265142D01*
X174687571Y-108312761D01*
X174639952Y-108265142D01*
X174592333Y-108169904D01*
X174592333Y-107931809D01*
X174639952Y-107836571D01*
X174687571Y-107788952D01*
X174782809Y-107741333D01*
X175020904Y-107741333D01*
X175116142Y-107788952D01*
X175163761Y-107836571D01*
X175211380Y-107931809D01*
X175211380Y-108169904D01*
X175163761Y-108265142D01*
X175116142Y-108312761D01*
%TO.C,J8*%
X129066669Y-62402388D02*
X129066669Y-63116674D01*
X129019050Y-63259531D01*
X128923812Y-63354769D01*
X128780955Y-63402388D01*
X128685717Y-63402388D01*
X129685717Y-62830960D02*
X129590479Y-62783341D01*
X129542860Y-62735722D01*
X129495241Y-62640484D01*
X129495241Y-62592865D01*
X129542860Y-62497627D01*
X129590479Y-62450008D01*
X129685717Y-62402388D01*
X129876193Y-62402388D01*
X129971431Y-62450008D01*
X130019050Y-62497627D01*
X130066669Y-62592865D01*
X130066669Y-62640484D01*
X130019050Y-62735722D01*
X129971431Y-62783341D01*
X129876193Y-62830960D01*
X129685717Y-62830960D01*
X129590479Y-62878579D01*
X129542860Y-62926198D01*
X129495241Y-63021436D01*
X129495241Y-63211912D01*
X129542860Y-63307150D01*
X129590479Y-63354769D01*
X129685717Y-63402388D01*
X129876193Y-63402388D01*
X129971431Y-63354769D01*
X130019050Y-63307150D01*
X130066669Y-63211912D01*
X130066669Y-63021436D01*
X130019050Y-62926198D01*
X129971431Y-62878579D01*
X129876193Y-62830960D01*
%TO.C,J11*%
X173676380Y-116837523D02*
X174390666Y-116837523D01*
X174533523Y-116885142D01*
X174628761Y-116980380D01*
X174676380Y-117123238D01*
X174676380Y-117218476D01*
X174676380Y-115837523D02*
X174676380Y-116408952D01*
X174676380Y-116123238D02*
X173676380Y-116123238D01*
X173819238Y-116218476D01*
X173914476Y-116313714D01*
X173962095Y-116408952D01*
X174676380Y-114885142D02*
X174676380Y-115456571D01*
X174676380Y-115170857D02*
X173676380Y-115170857D01*
X173819238Y-115266095D01*
X173914476Y-115361333D01*
X173962095Y-115456571D01*
%TO.C,R10*%
X169723380Y-121623857D02*
X169247190Y-121957190D01*
X169723380Y-122195285D02*
X168723380Y-122195285D01*
X168723380Y-121814333D01*
X168771000Y-121719095D01*
X168818619Y-121671476D01*
X168913857Y-121623857D01*
X169056714Y-121623857D01*
X169151952Y-121671476D01*
X169199571Y-121719095D01*
X169247190Y-121814333D01*
X169247190Y-122195285D01*
X169723380Y-120671476D02*
X169723380Y-121242904D01*
X169723380Y-120957190D02*
X168723380Y-120957190D01*
X168866238Y-121052428D01*
X168961476Y-121147666D01*
X169009095Y-121242904D01*
X168723380Y-120052428D02*
X168723380Y-119957190D01*
X168771000Y-119861952D01*
X168818619Y-119814333D01*
X168913857Y-119766714D01*
X169104333Y-119719095D01*
X169342428Y-119719095D01*
X169532904Y-119766714D01*
X169628142Y-119814333D01*
X169675761Y-119861952D01*
X169723380Y-119957190D01*
X169723380Y-120052428D01*
X169675761Y-120147666D01*
X169628142Y-120195285D01*
X169532904Y-120242904D01*
X169342428Y-120290523D01*
X169104333Y-120290523D01*
X168913857Y-120242904D01*
X168818619Y-120195285D01*
X168771000Y-120147666D01*
X168723380Y-120052428D01*
%TO.C,R1*%
X169612333Y-82048380D02*
X169279000Y-81572190D01*
X169040904Y-82048380D02*
X169040904Y-81048380D01*
X169421857Y-81048380D01*
X169517095Y-81096000D01*
X169564714Y-81143619D01*
X169612333Y-81238857D01*
X169612333Y-81381714D01*
X169564714Y-81476952D01*
X169517095Y-81524571D01*
X169421857Y-81572190D01*
X169040904Y-81572190D01*
X170564714Y-82048380D02*
X169993285Y-82048380D01*
X170279000Y-82048380D02*
X170279000Y-81048380D01*
X170183761Y-81191238D01*
X170088523Y-81286476D01*
X169993285Y-81334095D01*
%TO.C,J10*%
X174184380Y-126565723D02*
X174898666Y-126565723D01*
X175041523Y-126613342D01*
X175136761Y-126708580D01*
X175184380Y-126851438D01*
X175184380Y-126946676D01*
X175184380Y-125565723D02*
X175184380Y-126137152D01*
X175184380Y-125851438D02*
X174184380Y-125851438D01*
X174327238Y-125946676D01*
X174422476Y-126041914D01*
X174470095Y-126137152D01*
X174184380Y-124946676D02*
X174184380Y-124851438D01*
X174232000Y-124756200D01*
X174279619Y-124708580D01*
X174374857Y-124660961D01*
X174565333Y-124613342D01*
X174803428Y-124613342D01*
X174993904Y-124660961D01*
X175089142Y-124708580D01*
X175136761Y-124756200D01*
X175184380Y-124851438D01*
X175184380Y-124946676D01*
X175136761Y-125041914D01*
X175089142Y-125089533D01*
X174993904Y-125137152D01*
X174803428Y-125184771D01*
X174565333Y-125184771D01*
X174374857Y-125137152D01*
X174279619Y-125089533D01*
X174232000Y-125041914D01*
X174184380Y-124946676D01*
%TO.C,C3*%
X153020333Y-116512142D02*
X152972714Y-116559761D01*
X152829857Y-116607380D01*
X152734619Y-116607380D01*
X152591761Y-116559761D01*
X152496523Y-116464523D01*
X152448904Y-116369285D01*
X152401285Y-116178809D01*
X152401285Y-116035952D01*
X152448904Y-115845476D01*
X152496523Y-115750238D01*
X152591761Y-115655000D01*
X152734619Y-115607380D01*
X152829857Y-115607380D01*
X152972714Y-115655000D01*
X153020333Y-115702619D01*
X153353666Y-115607380D02*
X153972714Y-115607380D01*
X153639380Y-115988333D01*
X153782238Y-115988333D01*
X153877476Y-116035952D01*
X153925095Y-116083571D01*
X153972714Y-116178809D01*
X153972714Y-116416904D01*
X153925095Y-116512142D01*
X153877476Y-116559761D01*
X153782238Y-116607380D01*
X153496523Y-116607380D01*
X153401285Y-116559761D01*
X153353666Y-116512142D01*
%TO.C,RV1*%
X150266761Y-141030380D02*
X149933428Y-140554190D01*
X149695333Y-141030380D02*
X149695333Y-140030380D01*
X150076285Y-140030380D01*
X150171523Y-140078000D01*
X150219142Y-140125619D01*
X150266761Y-140220857D01*
X150266761Y-140363714D01*
X150219142Y-140458952D01*
X150171523Y-140506571D01*
X150076285Y-140554190D01*
X149695333Y-140554190D01*
X150552476Y-140030380D02*
X150885809Y-141030380D01*
X151219142Y-140030380D01*
X152076285Y-141030380D02*
X151504857Y-141030380D01*
X151790571Y-141030380D02*
X151790571Y-140030380D01*
X151695333Y-140173238D01*
X151600095Y-140268476D01*
X151504857Y-140316095D01*
%TO.C,C12*%
X171406142Y-87333857D02*
X171453761Y-87381476D01*
X171501380Y-87524333D01*
X171501380Y-87619571D01*
X171453761Y-87762428D01*
X171358523Y-87857666D01*
X171263285Y-87905285D01*
X171072809Y-87952904D01*
X170929952Y-87952904D01*
X170739476Y-87905285D01*
X170644238Y-87857666D01*
X170549000Y-87762428D01*
X170501380Y-87619571D01*
X170501380Y-87524333D01*
X170549000Y-87381476D01*
X170596619Y-87333857D01*
X171501380Y-86381476D02*
X171501380Y-86952904D01*
X171501380Y-86667190D02*
X170501380Y-86667190D01*
X170644238Y-86762428D01*
X170739476Y-86857666D01*
X170787095Y-86952904D01*
X170596619Y-86000523D02*
X170549000Y-85952904D01*
X170501380Y-85857666D01*
X170501380Y-85619571D01*
X170549000Y-85524333D01*
X170596619Y-85476714D01*
X170691857Y-85429095D01*
X170787095Y-85429095D01*
X170929952Y-85476714D01*
X171501380Y-86048142D01*
X171501380Y-85429095D01*
%TO.C,J2*%
X143006380Y-104219333D02*
X143720666Y-104219333D01*
X143863523Y-104266952D01*
X143958761Y-104362190D01*
X144006380Y-104505047D01*
X144006380Y-104600285D01*
X143101619Y-103790761D02*
X143054000Y-103743142D01*
X143006380Y-103647904D01*
X143006380Y-103409809D01*
X143054000Y-103314571D01*
X143101619Y-103266952D01*
X143196857Y-103219333D01*
X143292095Y-103219333D01*
X143434952Y-103266952D01*
X144006380Y-103838380D01*
X144006380Y-103219333D01*
%TO.C,C14*%
X173445142Y-106002857D02*
X173492761Y-106050476D01*
X173540380Y-106193333D01*
X173540380Y-106288571D01*
X173492761Y-106431428D01*
X173397523Y-106526666D01*
X173302285Y-106574285D01*
X173111809Y-106621904D01*
X172968952Y-106621904D01*
X172778476Y-106574285D01*
X172683238Y-106526666D01*
X172588000Y-106431428D01*
X172540380Y-106288571D01*
X172540380Y-106193333D01*
X172588000Y-106050476D01*
X172635619Y-106002857D01*
X173540380Y-105050476D02*
X173540380Y-105621904D01*
X173540380Y-105336190D02*
X172540380Y-105336190D01*
X172683238Y-105431428D01*
X172778476Y-105526666D01*
X172826095Y-105621904D01*
X172873714Y-104193333D02*
X173540380Y-104193333D01*
X172492761Y-104431428D02*
X173207047Y-104669523D01*
X173207047Y-104050476D01*
%TO.C,U3*%
X163175095Y-128180380D02*
X163175095Y-128989904D01*
X163222714Y-129085142D01*
X163270333Y-129132761D01*
X163365571Y-129180380D01*
X163556047Y-129180380D01*
X163651285Y-129132761D01*
X163698904Y-129085142D01*
X163746523Y-128989904D01*
X163746523Y-128180380D01*
X164127476Y-128180380D02*
X164746523Y-128180380D01*
X164413190Y-128561333D01*
X164556047Y-128561333D01*
X164651285Y-128608952D01*
X164698904Y-128656571D01*
X164746523Y-128751809D01*
X164746523Y-128989904D01*
X164698904Y-129085142D01*
X164651285Y-129132761D01*
X164556047Y-129180380D01*
X164270333Y-129180380D01*
X164175095Y-129132761D01*
X164127476Y-129085142D01*
%TO.C,R6*%
X173914380Y-128132666D02*
X173438190Y-128466000D01*
X173914380Y-128704095D02*
X172914380Y-128704095D01*
X172914380Y-128323142D01*
X172962000Y-128227904D01*
X173009619Y-128180285D01*
X173104857Y-128132666D01*
X173247714Y-128132666D01*
X173342952Y-128180285D01*
X173390571Y-128227904D01*
X173438190Y-128323142D01*
X173438190Y-128704095D01*
X172914380Y-127275523D02*
X172914380Y-127466000D01*
X172962000Y-127561238D01*
X173009619Y-127608857D01*
X173152476Y-127704095D01*
X173342952Y-127751714D01*
X173723904Y-127751714D01*
X173819142Y-127704095D01*
X173866761Y-127656476D01*
X173914380Y-127561238D01*
X173914380Y-127370761D01*
X173866761Y-127275523D01*
X173819142Y-127227904D01*
X173723904Y-127180285D01*
X173485809Y-127180285D01*
X173390571Y-127227904D01*
X173342952Y-127275523D01*
X173295333Y-127370761D01*
X173295333Y-127561238D01*
X173342952Y-127656476D01*
X173390571Y-127704095D01*
X173485809Y-127751714D01*
%TO.C,J3*%
X112208380Y-113313333D02*
X112922666Y-113313333D01*
X113065523Y-113360952D01*
X113160761Y-113456190D01*
X113208380Y-113599047D01*
X113208380Y-113694285D01*
X112208380Y-112932380D02*
X112208380Y-112313333D01*
X112589333Y-112646666D01*
X112589333Y-112503809D01*
X112636952Y-112408571D01*
X112684571Y-112360952D01*
X112779809Y-112313333D01*
X113017904Y-112313333D01*
X113113142Y-112360952D01*
X113160761Y-112408571D01*
X113208380Y-112503809D01*
X113208380Y-112789523D01*
X113160761Y-112884761D01*
X113113142Y-112932380D01*
%TO.C,J1*%
X173168380Y-81303333D02*
X173882666Y-81303333D01*
X174025523Y-81350952D01*
X174120761Y-81446190D01*
X174168380Y-81589047D01*
X174168380Y-81684285D01*
X174168380Y-80303333D02*
X174168380Y-80874761D01*
X174168380Y-80589047D02*
X173168380Y-80589047D01*
X173311238Y-80684285D01*
X173406476Y-80779523D01*
X173454095Y-80874761D01*
%TO.C,Q1*%
X142459619Y-93517238D02*
X142412000Y-93612476D01*
X142316761Y-93707714D01*
X142173904Y-93850571D01*
X142126285Y-93945809D01*
X142126285Y-94041047D01*
X142364380Y-93993428D02*
X142316761Y-94088666D01*
X142221523Y-94183904D01*
X142031047Y-94231523D01*
X141697714Y-94231523D01*
X141507238Y-94183904D01*
X141412000Y-94088666D01*
X141364380Y-93993428D01*
X141364380Y-93802952D01*
X141412000Y-93707714D01*
X141507238Y-93612476D01*
X141697714Y-93564857D01*
X142031047Y-93564857D01*
X142221523Y-93612476D01*
X142316761Y-93707714D01*
X142364380Y-93802952D01*
X142364380Y-93993428D01*
X142364380Y-92612476D02*
X142364380Y-93183904D01*
X142364380Y-92898190D02*
X141364380Y-92898190D01*
X141507238Y-92993428D01*
X141602476Y-93088666D01*
X141650095Y-93183904D01*
%TO.C,R4*%
X149022380Y-92064666D02*
X148546190Y-92398000D01*
X149022380Y-92636095D02*
X148022380Y-92636095D01*
X148022380Y-92255142D01*
X148070000Y-92159904D01*
X148117619Y-92112285D01*
X148212857Y-92064666D01*
X148355714Y-92064666D01*
X148450952Y-92112285D01*
X148498571Y-92159904D01*
X148546190Y-92255142D01*
X148546190Y-92636095D01*
X148355714Y-91207523D02*
X149022380Y-91207523D01*
X147974761Y-91445619D02*
X148689047Y-91683714D01*
X148689047Y-91064666D01*
%TO.C,C11*%
X113741142Y-77046857D02*
X113788761Y-77094476D01*
X113836380Y-77237333D01*
X113836380Y-77332571D01*
X113788761Y-77475428D01*
X113693523Y-77570666D01*
X113598285Y-77618285D01*
X113407809Y-77665904D01*
X113264952Y-77665904D01*
X113074476Y-77618285D01*
X112979238Y-77570666D01*
X112884000Y-77475428D01*
X112836380Y-77332571D01*
X112836380Y-77237333D01*
X112884000Y-77094476D01*
X112931619Y-77046857D01*
X113836380Y-76094476D02*
X113836380Y-76665904D01*
X113836380Y-76380190D02*
X112836380Y-76380190D01*
X112979238Y-76475428D01*
X113074476Y-76570666D01*
X113122095Y-76665904D01*
X113836380Y-75142095D02*
X113836380Y-75713523D01*
X113836380Y-75427809D02*
X112836380Y-75427809D01*
X112979238Y-75523047D01*
X113074476Y-75618285D01*
X113122095Y-75713523D01*
%TO.C,C8*%
X148911333Y-138356142D02*
X148863714Y-138403761D01*
X148720857Y-138451380D01*
X148625619Y-138451380D01*
X148482761Y-138403761D01*
X148387523Y-138308523D01*
X148339904Y-138213285D01*
X148292285Y-138022809D01*
X148292285Y-137879952D01*
X148339904Y-137689476D01*
X148387523Y-137594238D01*
X148482761Y-137499000D01*
X148625619Y-137451380D01*
X148720857Y-137451380D01*
X148863714Y-137499000D01*
X148911333Y-137546619D01*
X149482761Y-137879952D02*
X149387523Y-137832333D01*
X149339904Y-137784714D01*
X149292285Y-137689476D01*
X149292285Y-137641857D01*
X149339904Y-137546619D01*
X149387523Y-137499000D01*
X149482761Y-137451380D01*
X149673238Y-137451380D01*
X149768476Y-137499000D01*
X149816095Y-137546619D01*
X149863714Y-137641857D01*
X149863714Y-137689476D01*
X149816095Y-137784714D01*
X149768476Y-137832333D01*
X149673238Y-137879952D01*
X149482761Y-137879952D01*
X149387523Y-137927571D01*
X149339904Y-137975190D01*
X149292285Y-138070428D01*
X149292285Y-138260904D01*
X149339904Y-138356142D01*
X149387523Y-138403761D01*
X149482761Y-138451380D01*
X149673238Y-138451380D01*
X149768476Y-138403761D01*
X149816095Y-138356142D01*
X149863714Y-138260904D01*
X149863714Y-138070428D01*
X149816095Y-137975190D01*
X149768476Y-137927571D01*
X149673238Y-137879952D01*
%TO.C,C13*%
X159992142Y-123490142D02*
X159944523Y-123537761D01*
X159801666Y-123585380D01*
X159706428Y-123585380D01*
X159563571Y-123537761D01*
X159468333Y-123442523D01*
X159420714Y-123347285D01*
X159373095Y-123156809D01*
X159373095Y-123013952D01*
X159420714Y-122823476D01*
X159468333Y-122728238D01*
X159563571Y-122633000D01*
X159706428Y-122585380D01*
X159801666Y-122585380D01*
X159944523Y-122633000D01*
X159992142Y-122680619D01*
X160944523Y-123585380D02*
X160373095Y-123585380D01*
X160658809Y-123585380D02*
X160658809Y-122585380D01*
X160563571Y-122728238D01*
X160468333Y-122823476D01*
X160373095Y-122871095D01*
X161277857Y-122585380D02*
X161896904Y-122585380D01*
X161563571Y-122966333D01*
X161706428Y-122966333D01*
X161801666Y-123013952D01*
X161849285Y-123061571D01*
X161896904Y-123156809D01*
X161896904Y-123394904D01*
X161849285Y-123490142D01*
X161801666Y-123537761D01*
X161706428Y-123585380D01*
X161420714Y-123585380D01*
X161325476Y-123537761D01*
X161277857Y-123490142D01*
%TO.C,U1*%
X143555380Y-103377904D02*
X144364904Y-103377904D01*
X144460142Y-103330285D01*
X144507761Y-103282666D01*
X144555380Y-103187428D01*
X144555380Y-102996952D01*
X144507761Y-102901714D01*
X144460142Y-102854095D01*
X144364904Y-102806476D01*
X143555380Y-102806476D01*
X144555380Y-101806476D02*
X144555380Y-102377904D01*
X144555380Y-102092190D02*
X143555380Y-102092190D01*
X143698238Y-102187428D01*
X143793476Y-102282666D01*
X143841095Y-102377904D01*
%TO.C,H2*%
X174773380Y-67817904D02*
X173773380Y-67817904D01*
X174249571Y-67817904D02*
X174249571Y-67246476D01*
X174773380Y-67246476D02*
X173773380Y-67246476D01*
X173868619Y-66817904D02*
X173821000Y-66770285D01*
X173773380Y-66675047D01*
X173773380Y-66436952D01*
X173821000Y-66341714D01*
X173868619Y-66294095D01*
X173963857Y-66246476D01*
X174059095Y-66246476D01*
X174201952Y-66294095D01*
X174773380Y-66865523D01*
X174773380Y-66246476D01*
%TO.C,R5*%
X135560380Y-91810666D02*
X135084190Y-92144000D01*
X135560380Y-92382095D02*
X134560380Y-92382095D01*
X134560380Y-92001142D01*
X134608000Y-91905904D01*
X134655619Y-91858285D01*
X134750857Y-91810666D01*
X134893714Y-91810666D01*
X134988952Y-91858285D01*
X135036571Y-91905904D01*
X135084190Y-92001142D01*
X135084190Y-92382095D01*
X134560380Y-90905904D02*
X134560380Y-91382095D01*
X135036571Y-91429714D01*
X134988952Y-91382095D01*
X134941333Y-91286857D01*
X134941333Y-91048761D01*
X134988952Y-90953523D01*
X135036571Y-90905904D01*
X135131809Y-90858285D01*
X135369904Y-90858285D01*
X135465142Y-90905904D01*
X135512761Y-90953523D01*
X135560380Y-91048761D01*
X135560380Y-91286857D01*
X135512761Y-91382095D01*
X135465142Y-91429714D01*
%TO.C,Q2*%
X119980619Y-88895238D02*
X119933000Y-88990476D01*
X119837761Y-89085714D01*
X119694904Y-89228571D01*
X119647285Y-89323809D01*
X119647285Y-89419047D01*
X119885380Y-89371428D02*
X119837761Y-89466666D01*
X119742523Y-89561904D01*
X119552047Y-89609523D01*
X119218714Y-89609523D01*
X119028238Y-89561904D01*
X118933000Y-89466666D01*
X118885380Y-89371428D01*
X118885380Y-89180952D01*
X118933000Y-89085714D01*
X119028238Y-88990476D01*
X119218714Y-88942857D01*
X119552047Y-88942857D01*
X119742523Y-88990476D01*
X119837761Y-89085714D01*
X119885380Y-89180952D01*
X119885380Y-89371428D01*
X118980619Y-88561904D02*
X118933000Y-88514285D01*
X118885380Y-88419047D01*
X118885380Y-88180952D01*
X118933000Y-88085714D01*
X118980619Y-88038095D01*
X119075857Y-87990476D01*
X119171095Y-87990476D01*
X119313952Y-88038095D01*
X119885380Y-88609523D01*
X119885380Y-87990476D01*
%TO.C,R2*%
X149022380Y-95493666D02*
X148546190Y-95827000D01*
X149022380Y-96065095D02*
X148022380Y-96065095D01*
X148022380Y-95684142D01*
X148070000Y-95588904D01*
X148117619Y-95541285D01*
X148212857Y-95493666D01*
X148355714Y-95493666D01*
X148450952Y-95541285D01*
X148498571Y-95588904D01*
X148546190Y-95684142D01*
X148546190Y-96065095D01*
X148117619Y-95112714D02*
X148070000Y-95065095D01*
X148022380Y-94969857D01*
X148022380Y-94731761D01*
X148070000Y-94636523D01*
X148117619Y-94588904D01*
X148212857Y-94541285D01*
X148308095Y-94541285D01*
X148450952Y-94588904D01*
X149022380Y-95160333D01*
X149022380Y-94541285D01*
%TO.C,R9*%
X167326333Y-98065380D02*
X166993000Y-97589190D01*
X166754904Y-98065380D02*
X166754904Y-97065380D01*
X167135857Y-97065380D01*
X167231095Y-97113000D01*
X167278714Y-97160619D01*
X167326333Y-97255857D01*
X167326333Y-97398714D01*
X167278714Y-97493952D01*
X167231095Y-97541571D01*
X167135857Y-97589190D01*
X166754904Y-97589190D01*
X167802523Y-98065380D02*
X167993000Y-98065380D01*
X168088238Y-98017761D01*
X168135857Y-97970142D01*
X168231095Y-97827285D01*
X168278714Y-97636809D01*
X168278714Y-97255857D01*
X168231095Y-97160619D01*
X168183476Y-97113000D01*
X168088238Y-97065380D01*
X167897761Y-97065380D01*
X167802523Y-97113000D01*
X167754904Y-97160619D01*
X167707285Y-97255857D01*
X167707285Y-97493952D01*
X167754904Y-97589190D01*
X167802523Y-97636809D01*
X167897761Y-97684428D01*
X168088238Y-97684428D01*
X168183476Y-97636809D01*
X168231095Y-97589190D01*
X168278714Y-97493952D01*
D11*
%TO.C,J6*%
X175380000Y-127982500D02*
X175380000Y-138650500D01*
X189324000Y-127982500D02*
X189324000Y-138650500D01*
X189324000Y-138650500D02*
X175380000Y-138650500D01*
X175380000Y-127982500D02*
X189324000Y-127982500D01*
D12*
X177207000Y-139300500D02*
G75*
G03*
X177207000Y-139300500I-100000J0D01*
G01*
D13*
%TO.C,C5*%
X161651000Y-92576000D02*
X161651000Y-91886000D01*
X160231000Y-91886000D02*
X163071000Y-91886000D01*
X160231000Y-87846000D02*
X160231000Y-91886000D01*
X161651000Y-87156000D02*
X161651000Y-87846000D01*
X163071000Y-91886000D02*
X163071000Y-87846000D01*
X163071000Y-87846000D02*
X160231000Y-87846000D01*
D11*
%TO.C,J9*%
X175819500Y-88960000D02*
X189409500Y-88960000D01*
X175819500Y-97576000D02*
X175819500Y-99000000D01*
X189409500Y-88960000D02*
X189409500Y-99000000D01*
X175819500Y-88960000D02*
X175819500Y-90384000D01*
X189409500Y-99000000D02*
X175819500Y-99000000D01*
D12*
X175319500Y-91440000D02*
G75*
G03*
X175319500Y-91440000I-100000J0D01*
G01*
D13*
%TO.C,C2*%
X158017000Y-109537000D02*
X159099000Y-109537000D01*
X155192000Y-109137000D02*
X155937000Y-109137000D01*
X154973000Y-109377000D02*
X155937000Y-109377000D01*
X158017000Y-110698000D02*
X159538000Y-110698000D01*
X154667000Y-109857000D02*
X155937000Y-109857000D01*
X155726000Y-108737000D02*
X155937000Y-108737000D01*
X155477000Y-108897000D02*
X155937000Y-108897000D01*
X155502000Y-113822775D02*
X155502000Y-113322775D01*
X155879000Y-108657000D02*
X158075000Y-108657000D01*
X154404000Y-110818000D02*
X159550000Y-110818000D01*
X158017000Y-109657000D02*
X159177000Y-109657000D01*
X158017000Y-110217000D02*
X159432000Y-110217000D01*
X154412000Y-110738000D02*
X155937000Y-110738000D01*
X155534000Y-108857000D02*
X155937000Y-108857000D01*
X158017000Y-110618000D02*
X159527000Y-110618000D01*
X154942000Y-109417000D02*
X155937000Y-109417000D01*
X154579000Y-110057000D02*
X155937000Y-110057000D01*
X154828000Y-109577000D02*
X155937000Y-109577000D01*
X158017000Y-110257000D02*
X159445000Y-110257000D01*
X158017000Y-110418000D02*
X159488000Y-110418000D01*
X158017000Y-109417000D02*
X159012000Y-109417000D01*
X154399000Y-110898000D02*
X159555000Y-110898000D01*
X154408000Y-110778000D02*
X155937000Y-110778000D01*
X154401000Y-110858000D02*
X159553000Y-110858000D01*
X158017000Y-108857000D02*
X158420000Y-108857000D01*
X155040000Y-109297000D02*
X155937000Y-109297000D01*
X154457000Y-110458000D02*
X155937000Y-110458000D01*
X158017000Y-108817000D02*
X158360000Y-108817000D01*
X154709000Y-109777000D02*
X155937000Y-109777000D01*
X154912000Y-109457000D02*
X155937000Y-109457000D01*
X155234000Y-109097000D02*
X155937000Y-109097000D01*
X154421000Y-110658000D02*
X155937000Y-110658000D01*
X154434000Y-110578000D02*
X155937000Y-110578000D01*
X155113000Y-109217000D02*
X155937000Y-109217000D01*
X156693000Y-108417000D02*
X157261000Y-108417000D01*
X158017000Y-109737000D02*
X159224000Y-109737000D01*
X158017000Y-108977000D02*
X158582000Y-108977000D01*
X156062000Y-108577000D02*
X157892000Y-108577000D01*
X154882000Y-109497000D02*
X155937000Y-109497000D01*
X158017000Y-110458000D02*
X159497000Y-110458000D01*
X154730000Y-109737000D02*
X155937000Y-109737000D01*
X158017000Y-110578000D02*
X159520000Y-110578000D01*
X158017000Y-110177000D02*
X159419000Y-110177000D01*
X155278000Y-109057000D02*
X155937000Y-109057000D01*
X158017000Y-109857000D02*
X159287000Y-109857000D01*
X154497000Y-110297000D02*
X155937000Y-110297000D01*
X158017000Y-109057000D02*
X158676000Y-109057000D01*
X155324000Y-109017000D02*
X155937000Y-109017000D01*
X154441000Y-110538000D02*
X155937000Y-110538000D01*
X158017000Y-110498000D02*
X159505000Y-110498000D01*
X158017000Y-109337000D02*
X158948000Y-109337000D01*
X155658000Y-108777000D02*
X155937000Y-108777000D01*
X154777000Y-109657000D02*
X155937000Y-109657000D01*
X155372000Y-108977000D02*
X155937000Y-108977000D01*
X158017000Y-109017000D02*
X158630000Y-109017000D01*
X158017000Y-110658000D02*
X159533000Y-110658000D01*
X154753000Y-109697000D02*
X155937000Y-109697000D01*
X154629000Y-109937000D02*
X155937000Y-109937000D01*
X158017000Y-109577000D02*
X159126000Y-109577000D01*
X155252000Y-113572775D02*
X155752000Y-113572775D01*
X158017000Y-109217000D02*
X158841000Y-109217000D01*
X158017000Y-109817000D02*
X159267000Y-109817000D01*
X155076000Y-109257000D02*
X155937000Y-109257000D01*
X154563000Y-110097000D02*
X155937000Y-110097000D01*
X154427000Y-110618000D02*
X155937000Y-110618000D01*
X158017000Y-110338000D02*
X159468000Y-110338000D01*
X155151000Y-109177000D02*
X155937000Y-109177000D01*
X158017000Y-110097000D02*
X159391000Y-110097000D01*
X155966000Y-108617000D02*
X157988000Y-108617000D01*
X154549000Y-110137000D02*
X155937000Y-110137000D01*
X155006000Y-109337000D02*
X155937000Y-109337000D01*
X155423000Y-108937000D02*
X155937000Y-108937000D01*
X154486000Y-110338000D02*
X155937000Y-110338000D01*
X154612000Y-109977000D02*
X155937000Y-109977000D01*
X158017000Y-109777000D02*
X159245000Y-109777000D01*
X154416000Y-110698000D02*
X155937000Y-110698000D01*
X154509000Y-110257000D02*
X155937000Y-110257000D01*
X158017000Y-108737000D02*
X158228000Y-108737000D01*
X154855000Y-109537000D02*
X155937000Y-109537000D01*
X158017000Y-109897000D02*
X159306000Y-109897000D01*
X158017000Y-109097000D02*
X158720000Y-109097000D01*
X156459000Y-108457000D02*
X157495000Y-108457000D01*
X154687000Y-109817000D02*
X155937000Y-109817000D01*
X158017000Y-109457000D02*
X159042000Y-109457000D01*
X158017000Y-110778000D02*
X159546000Y-110778000D01*
X155799000Y-108697000D02*
X158155000Y-108697000D01*
X158017000Y-108897000D02*
X158477000Y-108897000D01*
X158017000Y-109137000D02*
X158762000Y-109137000D01*
X154595000Y-110017000D02*
X155937000Y-110017000D01*
X154449000Y-110498000D02*
X155937000Y-110498000D01*
X158017000Y-109377000D02*
X158981000Y-109377000D01*
X158017000Y-108937000D02*
X158531000Y-108937000D01*
X154522000Y-110217000D02*
X155937000Y-110217000D01*
X154648000Y-109897000D02*
X155937000Y-109897000D01*
X158017000Y-110017000D02*
X159359000Y-110017000D01*
X158017000Y-109297000D02*
X158914000Y-109297000D01*
X154398000Y-110938000D02*
X159556000Y-110938000D01*
X154397000Y-111018000D02*
X159557000Y-111018000D01*
X154466000Y-110418000D02*
X155937000Y-110418000D01*
X154802000Y-109617000D02*
X155937000Y-109617000D01*
X158017000Y-108777000D02*
X158296000Y-108777000D01*
X158017000Y-110057000D02*
X159375000Y-110057000D01*
X158017000Y-110137000D02*
X159405000Y-110137000D01*
X158017000Y-110297000D02*
X159457000Y-110297000D01*
X158017000Y-109257000D02*
X158878000Y-109257000D01*
X158017000Y-110378000D02*
X159478000Y-110378000D01*
X154476000Y-110378000D02*
X155937000Y-110378000D01*
X158017000Y-109177000D02*
X158803000Y-109177000D01*
X158017000Y-109977000D02*
X159342000Y-109977000D01*
X158017000Y-110738000D02*
X159542000Y-110738000D01*
X156300000Y-108497000D02*
X157654000Y-108497000D01*
X158017000Y-109697000D02*
X159201000Y-109697000D01*
X158017000Y-109617000D02*
X159152000Y-109617000D01*
X155594000Y-108817000D02*
X155937000Y-108817000D01*
X154535000Y-110177000D02*
X155937000Y-110177000D01*
X158017000Y-110538000D02*
X159513000Y-110538000D01*
X158017000Y-109497000D02*
X159072000Y-109497000D01*
X154397000Y-110978000D02*
X159557000Y-110978000D01*
X158017000Y-109937000D02*
X159325000Y-109937000D01*
X156172000Y-108537000D02*
X157782000Y-108537000D01*
X159597000Y-111018000D02*
G75*
G03*
X159597000Y-111018000I-2620000J0D01*
G01*
%TO.C,R3*%
X128616000Y-91613000D02*
X132456000Y-91613000D01*
X128616000Y-93453000D02*
X132456000Y-93453000D01*
%TO.C,C7*%
X138664000Y-95370000D02*
X138664000Y-94680000D01*
X140084000Y-94680000D02*
X140084000Y-90640000D01*
X138664000Y-89950000D02*
X138664000Y-90640000D01*
X137244000Y-90640000D02*
X137244000Y-94680000D01*
X140084000Y-90640000D02*
X137244000Y-90640000D01*
X137244000Y-94680000D02*
X140084000Y-94680000D01*
D10*
%TO.C,K1*%
X157530010Y-70140000D02*
X157530010Y-65570000D01*
X147280010Y-83075000D02*
X147230010Y-83075000D01*
X147230010Y-83075000D02*
X147230010Y-62775000D01*
X157530010Y-83075000D02*
X157480010Y-83075000D01*
X157530010Y-83075000D02*
X157530010Y-73190000D01*
X154655010Y-62775000D02*
X147230010Y-62775000D01*
X154880010Y-83075000D02*
X149880010Y-83075000D01*
D14*
X156305010Y-83675000D02*
G75*
G03*
X156305010Y-83675000I-125000J0D01*
G01*
D13*
%TO.C,R7*%
X152411000Y-133061000D02*
X152411000Y-129221000D01*
X150571000Y-133061000D02*
X150571000Y-129221000D01*
%TO.C,C6*%
X138664000Y-78774000D02*
X138664000Y-79464000D01*
X140084000Y-79464000D02*
X137244000Y-79464000D01*
X137244000Y-79464000D02*
X137244000Y-83504000D01*
X140084000Y-83504000D02*
X140084000Y-79464000D01*
X137244000Y-83504000D02*
X140084000Y-83504000D01*
X138664000Y-84194000D02*
X138664000Y-83504000D01*
%TO.C,C10*%
X169756000Y-141670000D02*
X172596000Y-141670000D01*
X172596000Y-137630000D02*
X169756000Y-137630000D01*
X172596000Y-141670000D02*
X172596000Y-137630000D01*
X171176000Y-142360000D02*
X171176000Y-141670000D01*
X169756000Y-137630000D02*
X169756000Y-141670000D01*
X171176000Y-136940000D02*
X171176000Y-137630000D01*
D10*
%TO.C,K2*%
X133449997Y-70140000D02*
X133449997Y-65570000D01*
X133449997Y-83075000D02*
X133399997Y-83075000D01*
X123149997Y-83075000D02*
X123149997Y-62775000D01*
X130574997Y-62775000D02*
X123149997Y-62775000D01*
X123199997Y-83075000D02*
X123149997Y-83075000D01*
X130799997Y-83075000D02*
X125799997Y-83075000D01*
X133449997Y-83075000D02*
X133449997Y-73190000D01*
D14*
X132224997Y-83675000D02*
G75*
G03*
X132224997Y-83675000I-125000J0D01*
G01*
D13*
%TO.C,C1*%
X165810000Y-75896000D02*
G75*
G03*
X165810000Y-75896000I-3270000J0D01*
G01*
%TO.C,D3*%
X125837004Y-85548000D02*
X126857004Y-85548000D01*
X131397004Y-87018000D02*
X131397004Y-84078000D01*
X132297004Y-84078000D02*
X126857004Y-84078000D01*
X126857004Y-87018000D02*
X132297004Y-87018000D01*
X131277004Y-87018000D02*
X131277004Y-84078000D01*
X126857004Y-84078000D02*
X126857004Y-87018000D01*
X131517004Y-87018000D02*
X131517004Y-84078000D01*
X132297004Y-87018000D02*
X132297004Y-84078000D01*
X133317004Y-85548000D02*
X132297004Y-85548000D01*
%TO.C,U2*%
X143745000Y-112886000D02*
X142745000Y-112886000D01*
X125505000Y-112886000D02*
X126505000Y-112886000D01*
X143745000Y-138631000D02*
X143745000Y-132211000D01*
X143745000Y-113666000D02*
X143745000Y-112886000D01*
X125505000Y-138631000D02*
X125505000Y-132211000D01*
X143745000Y-132211000D02*
X144125000Y-132211000D01*
X143745000Y-138631000D02*
X125505000Y-138631000D01*
X125505000Y-113666000D02*
X125505000Y-112886000D01*
D15*
%TO.C,J7*%
X148600000Y-57650000D02*
X148600000Y-58150000D01*
X158800000Y-57650000D02*
X158800000Y-58150000D01*
X148600000Y-61850000D02*
X149100000Y-61850000D01*
X148600000Y-57650000D02*
X149100000Y-57650000D01*
X158800000Y-61850000D02*
X158800000Y-61350000D01*
X148600000Y-61850000D02*
X148600000Y-61350000D01*
X158800000Y-61850000D02*
X158300000Y-61850000D01*
X158800000Y-57650000D02*
X158300000Y-57650000D01*
D13*
%TO.C,D2*%
X152048000Y-87526000D02*
X152048000Y-84586000D01*
X146608000Y-86056000D02*
X147628000Y-86056000D01*
X147628000Y-84586000D02*
X147628000Y-87526000D01*
X154088000Y-86056000D02*
X153068000Y-86056000D01*
X153068000Y-87526000D02*
X153068000Y-84586000D01*
X147628000Y-87526000D02*
X153068000Y-87526000D01*
X152168000Y-87526000D02*
X152168000Y-84586000D01*
X152288000Y-87526000D02*
X152288000Y-84586000D01*
X153068000Y-84586000D02*
X147628000Y-84586000D01*
%TO.C,R8*%
X170556000Y-132492000D02*
X166716000Y-132492000D01*
X170556000Y-130652000D02*
X166716000Y-130652000D01*
%TO.C,C4*%
X166211000Y-117148000D02*
X162171000Y-117148000D01*
X162171000Y-119988000D02*
X166211000Y-119988000D01*
X162171000Y-117148000D02*
X162171000Y-119988000D01*
X166211000Y-119988000D02*
X166211000Y-117148000D01*
X161481000Y-118568000D02*
X162171000Y-118568000D01*
X166901000Y-118568000D02*
X166211000Y-118568000D01*
D15*
%TO.C,D1*%
X177446000Y-83694000D02*
X177696000Y-83694000D01*
X180146000Y-83694000D02*
X179896000Y-83694000D01*
X177446000Y-83694000D02*
G75*
G03*
X176954385Y-84298533I1349992J-1599994D01*
G01*
X179796000Y-87144000D02*
G75*
G03*
X180646000Y-86294000I-1000006J1850006D01*
G01*
X180646000Y-84294000D02*
G75*
G03*
X180152147Y-83686715I-1849997J-999998D01*
G01*
X176946000Y-86294000D02*
G75*
G03*
X177796000Y-87144000I1850006J1000006D01*
G01*
D13*
%TO.C,R11*%
X166208000Y-113392000D02*
X170048000Y-113392000D01*
X166208000Y-111552000D02*
X170048000Y-111552000D01*
%TO.C,C9*%
X114450000Y-136348000D02*
X113760000Y-136348000D01*
X113760000Y-134928000D02*
X109720000Y-134928000D01*
X109720000Y-134928000D02*
X109720000Y-137768000D01*
X113760000Y-137768000D02*
X113760000Y-134928000D01*
X109030000Y-136348000D02*
X109720000Y-136348000D01*
X109720000Y-137768000D02*
X113760000Y-137768000D01*
D11*
%TO.C,J5*%
X175819500Y-99120000D02*
X175819500Y-100544000D01*
X189409500Y-109160000D02*
X175819500Y-109160000D01*
X175819500Y-99120000D02*
X189409500Y-99120000D01*
X189409500Y-99120000D02*
X189409500Y-109160000D01*
X175819500Y-107736000D02*
X175819500Y-109160000D01*
D12*
X175319500Y-101600000D02*
G75*
G03*
X175319500Y-101600000I-100000J0D01*
G01*
D15*
%TO.C,J8*%
X124450003Y-61800008D02*
X124950003Y-61800008D01*
X134650003Y-61800008D02*
X134150003Y-61800008D01*
X134650003Y-61800008D02*
X134650003Y-61300008D01*
X134650003Y-57600008D02*
X134650003Y-58100008D01*
X134650003Y-57600008D02*
X134150003Y-57600008D01*
X124450003Y-57600008D02*
X124450003Y-58100008D01*
X124450003Y-61800008D02*
X124450003Y-61300008D01*
X124450003Y-57600008D02*
X124950003Y-57600008D01*
D11*
%TO.C,J11*%
X175819500Y-115306000D02*
X175819500Y-116730000D01*
X175819500Y-109230000D02*
X175819500Y-110654000D01*
X175819500Y-109230000D02*
X189409500Y-109230000D01*
X189409500Y-116730000D02*
X175819500Y-116730000D01*
X189409500Y-109230000D02*
X189409500Y-116730000D01*
D12*
X175319500Y-111710000D02*
G75*
G03*
X175319500Y-111710000I-100000J0D01*
G01*
D13*
%TO.C,R10*%
X170383000Y-119061000D02*
X170383000Y-122901000D01*
X172223000Y-119061000D02*
X172223000Y-122901000D01*
%TO.C,R1*%
X167859000Y-82596000D02*
X171699000Y-82596000D01*
X167859000Y-84436000D02*
X171699000Y-84436000D01*
D11*
%TO.C,J10*%
X189655000Y-117160200D02*
X189655000Y-127240200D01*
X176065000Y-118240200D02*
X176065000Y-117160200D01*
X176065000Y-127240200D02*
X176065000Y-125550200D01*
X176065000Y-117160200D02*
X189655000Y-117160200D01*
X189655000Y-127240200D02*
X176065000Y-127240200D01*
X175699000Y-119660200D02*
X174999000Y-119260200D01*
X174999000Y-119260200D02*
X174999000Y-120060200D01*
X174999000Y-120060200D02*
X175699000Y-119660200D01*
D13*
%TO.C,J4*%
X111805000Y-133599000D02*
X110475000Y-133599000D01*
X111805000Y-132269000D02*
X111805000Y-133599000D01*
X111805000Y-130999000D02*
X111805000Y-125859000D01*
X106605000Y-133599000D02*
X106605000Y-125859000D01*
X109205000Y-130999000D02*
X109205000Y-133599000D01*
X109205000Y-133599000D02*
X106605000Y-133599000D01*
X111805000Y-125859000D02*
X106605000Y-125859000D01*
X111805000Y-130999000D02*
X109205000Y-130999000D01*
%TO.C,C3*%
X150477000Y-118695000D02*
X151167000Y-118695000D01*
X151167000Y-120115000D02*
X155207000Y-120115000D01*
X155207000Y-120115000D02*
X155207000Y-117275000D01*
X155897000Y-118695000D02*
X155207000Y-118695000D01*
X151167000Y-117275000D02*
X151167000Y-120115000D01*
X155207000Y-117275000D02*
X151167000Y-117275000D01*
D11*
%TO.C,RV1*%
X151013000Y-148142000D02*
X157823000Y-148142000D01*
X151013000Y-144802000D02*
X151013000Y-148142000D01*
X157823000Y-148142000D02*
X157823000Y-144802000D01*
D12*
X150518000Y-143642000D02*
G75*
G03*
X150518000Y-143642000I-100000J0D01*
G01*
D13*
%TO.C,C12*%
X168533000Y-88318113D02*
X170049000Y-88318113D01*
X168533000Y-87397113D02*
X169740000Y-87397113D01*
X165522000Y-86997113D02*
X166453000Y-86997113D01*
X165458000Y-87077113D02*
X166453000Y-87077113D01*
X165708000Y-86797113D02*
X166453000Y-86797113D01*
X168533000Y-86997113D02*
X169464000Y-86997113D01*
X168533000Y-88198113D02*
X170029000Y-88198113D01*
X164982000Y-88078113D02*
X166453000Y-88078113D01*
X165293000Y-87317113D02*
X166453000Y-87317113D01*
X165183000Y-87517113D02*
X166453000Y-87517113D01*
X168533000Y-86437113D02*
X168812000Y-86437113D01*
X165556000Y-86957113D02*
X166453000Y-86957113D01*
X165025000Y-87917113D02*
X166453000Y-87917113D01*
X168533000Y-87757113D02*
X169907000Y-87757113D01*
X168533000Y-87877113D02*
X169948000Y-87877113D01*
X168533000Y-87197113D02*
X169615000Y-87197113D01*
X165318000Y-87277113D02*
X166453000Y-87277113D01*
X164932000Y-88358113D02*
X166453000Y-88358113D01*
X168533000Y-87237113D02*
X169642000Y-87237113D01*
X164914000Y-88598113D02*
X170072000Y-88598113D01*
X168533000Y-87157113D02*
X169588000Y-87157113D01*
X168533000Y-87797113D02*
X169921000Y-87797113D01*
X166688000Y-86197113D02*
X168298000Y-86197113D01*
X164957000Y-88198113D02*
X166453000Y-88198113D01*
X168533000Y-88038113D02*
X169994000Y-88038113D01*
X165038000Y-87877113D02*
X166453000Y-87877113D01*
X165051000Y-87837113D02*
X166453000Y-87837113D01*
X168533000Y-87437113D02*
X169761000Y-87437113D01*
X164928000Y-88398113D02*
X166453000Y-88398113D01*
X164920000Y-88478113D02*
X170066000Y-88478113D01*
X166315000Y-86357113D02*
X168671000Y-86357113D01*
X168533000Y-87317113D02*
X169693000Y-87317113D01*
X168533000Y-88078113D02*
X170004000Y-88078113D01*
X168533000Y-86797113D02*
X169278000Y-86797113D01*
X168533000Y-87957113D02*
X169973000Y-87957113D01*
X165203000Y-87477113D02*
X166453000Y-87477113D01*
X165939000Y-86597113D02*
X166453000Y-86597113D01*
X168533000Y-86877113D02*
X169357000Y-86877113D01*
X164937000Y-88318113D02*
X166453000Y-88318113D01*
X168533000Y-86677113D02*
X169146000Y-86677113D01*
X168533000Y-86597113D02*
X169047000Y-86597113D01*
X165246000Y-87397113D02*
X166453000Y-87397113D01*
X165592000Y-86917113D02*
X166453000Y-86917113D01*
X164950000Y-88238113D02*
X166453000Y-88238113D01*
X165002000Y-87998113D02*
X166453000Y-87998113D01*
X165993000Y-86557113D02*
X166453000Y-86557113D01*
X165095000Y-87717113D02*
X166453000Y-87717113D01*
X168533000Y-86757113D02*
X169236000Y-86757113D01*
X165013000Y-87957113D02*
X166453000Y-87957113D01*
X168533000Y-88358113D02*
X170054000Y-88358113D01*
X168533000Y-87517113D02*
X169803000Y-87517113D01*
X168533000Y-86717113D02*
X169192000Y-86717113D01*
X168533000Y-88278113D02*
X170043000Y-88278113D01*
X165768000Y-91232888D02*
X166268000Y-91232888D01*
X165888000Y-86637113D02*
X166453000Y-86637113D01*
X165750000Y-86757113D02*
X166453000Y-86757113D01*
X165269000Y-87357113D02*
X166453000Y-87357113D01*
X164913000Y-88678113D02*
X170073000Y-88678113D01*
X166975000Y-86117113D02*
X168011000Y-86117113D01*
X165667000Y-86837113D02*
X166453000Y-86837113D01*
X165398000Y-87157113D02*
X166453000Y-87157113D01*
X168533000Y-87357113D02*
X169717000Y-87357113D01*
X164924000Y-88438113D02*
X166453000Y-88438113D01*
X166578000Y-86237113D02*
X168408000Y-86237113D01*
X165428000Y-87117113D02*
X166453000Y-87117113D01*
X168533000Y-87998113D02*
X169984000Y-87998113D01*
X168533000Y-87637113D02*
X169858000Y-87637113D01*
X168533000Y-87717113D02*
X169891000Y-87717113D01*
X168533000Y-88158113D02*
X170021000Y-88158113D01*
X167209000Y-86077113D02*
X167777000Y-86077113D01*
X166110000Y-86477113D02*
X166453000Y-86477113D01*
X165225000Y-87437113D02*
X166453000Y-87437113D01*
X165629000Y-86877113D02*
X166453000Y-86877113D01*
X168533000Y-86477113D02*
X168876000Y-86477113D01*
X168533000Y-86917113D02*
X169394000Y-86917113D01*
X165145000Y-87597113D02*
X166453000Y-87597113D01*
X165164000Y-87557113D02*
X166453000Y-87557113D01*
X164915000Y-88558113D02*
X170071000Y-88558113D01*
X164943000Y-88278113D02*
X166453000Y-88278113D01*
X168533000Y-87277113D02*
X169668000Y-87277113D01*
X166816000Y-86157113D02*
X168170000Y-86157113D01*
X164965000Y-88158113D02*
X166453000Y-88158113D01*
X168533000Y-86637113D02*
X169098000Y-86637113D01*
X168533000Y-87117113D02*
X169558000Y-87117113D01*
X168533000Y-87917113D02*
X169961000Y-87917113D01*
X165371000Y-87197113D02*
X166453000Y-87197113D01*
X168533000Y-86957113D02*
X169430000Y-86957113D01*
X165065000Y-87797113D02*
X166453000Y-87797113D01*
X165794000Y-86717113D02*
X166453000Y-86717113D01*
X168533000Y-87077113D02*
X169528000Y-87077113D01*
X168533000Y-88398113D02*
X170058000Y-88398113D01*
X165344000Y-87237113D02*
X166453000Y-87237113D01*
X166482000Y-86277113D02*
X168504000Y-86277113D01*
X166050000Y-86517113D02*
X166453000Y-86517113D01*
X165128000Y-87637113D02*
X166453000Y-87637113D01*
X165079000Y-87757113D02*
X166453000Y-87757113D01*
X164913000Y-88638113D02*
X170073000Y-88638113D01*
X168533000Y-86517113D02*
X168936000Y-86517113D01*
X165840000Y-86677113D02*
X166453000Y-86677113D01*
X166395000Y-86317113D02*
X168591000Y-86317113D01*
X168533000Y-88238113D02*
X170036000Y-88238113D01*
X165111000Y-87677113D02*
X166453000Y-87677113D01*
X164992000Y-88038113D02*
X166453000Y-88038113D01*
X168533000Y-88438113D02*
X170062000Y-88438113D01*
X168533000Y-87557113D02*
X169822000Y-87557113D01*
X164973000Y-88118113D02*
X166453000Y-88118113D01*
X166242000Y-86397113D02*
X166453000Y-86397113D01*
X165489000Y-87037113D02*
X166453000Y-87037113D01*
X166018000Y-91482888D02*
X166018000Y-90982888D01*
X168533000Y-87477113D02*
X169783000Y-87477113D01*
X168533000Y-86837113D02*
X169319000Y-86837113D01*
X168533000Y-87037113D02*
X169497000Y-87037113D01*
X168533000Y-87677113D02*
X169875000Y-87677113D01*
X164917000Y-88518113D02*
X170069000Y-88518113D01*
X168533000Y-87837113D02*
X169935000Y-87837113D01*
X166174000Y-86437113D02*
X166453000Y-86437113D01*
X168533000Y-86557113D02*
X168993000Y-86557113D01*
X168533000Y-87597113D02*
X169841000Y-87597113D01*
X168533000Y-86397113D02*
X168744000Y-86397113D01*
X168533000Y-88118113D02*
X170013000Y-88118113D01*
X170113000Y-88678113D02*
G75*
G03*
X170113000Y-88678113I-2620000J0D01*
G01*
%TO.C,J2*%
X141224000Y-101286000D02*
X142554000Y-101286000D01*
X139954000Y-101286000D02*
X129734000Y-101286000D01*
X142554000Y-106486000D02*
X129734000Y-106486000D01*
X139954000Y-101286000D02*
X139954000Y-103886000D01*
X142554000Y-101286000D02*
X142554000Y-102616000D01*
X139954000Y-103886000D02*
X142554000Y-103886000D01*
X129734000Y-101286000D02*
X129734000Y-106486000D01*
X142554000Y-103886000D02*
X142554000Y-106486000D01*
%TO.C,C14*%
X169248000Y-103340000D02*
X169248000Y-107380000D01*
X172088000Y-103340000D02*
X169248000Y-103340000D01*
X170668000Y-108070000D02*
X170668000Y-107380000D01*
X170668000Y-102650000D02*
X170668000Y-103340000D01*
X172088000Y-107380000D02*
X172088000Y-103340000D01*
X169248000Y-107380000D02*
X172088000Y-107380000D01*
%TO.C,U3*%
X159365000Y-134336000D02*
X157415000Y-134336000D01*
X159365000Y-129216000D02*
X161315000Y-129216000D01*
X159365000Y-134336000D02*
X162815000Y-134336000D01*
X159365000Y-129216000D02*
X157415000Y-129216000D01*
%TO.C,R6*%
X170556000Y-127427000D02*
X166716000Y-127427000D01*
X170556000Y-129267000D02*
X166716000Y-129267000D01*
%TO.C,J3*%
X108886000Y-114310000D02*
X111546000Y-114310000D01*
X111546000Y-81230000D02*
X111546000Y-114310000D01*
X108886000Y-79960000D02*
X108886000Y-78630000D01*
X108886000Y-81230000D02*
X111546000Y-81230000D01*
X108886000Y-78630000D02*
X110216000Y-78630000D01*
X108886000Y-81230000D02*
X108886000Y-114310000D01*
D15*
%TO.C,J1*%
X175202000Y-72989000D02*
X175202000Y-73489000D01*
X182502000Y-72989000D02*
X183502000Y-72989000D01*
X189802000Y-72989000D02*
X189302000Y-72989000D01*
X189802000Y-82189000D02*
X189302000Y-82189000D01*
X182502000Y-82189000D02*
X183502000Y-82189000D01*
X175202000Y-82189000D02*
X175202000Y-81689000D01*
X175202000Y-82189000D02*
X175702000Y-82189000D01*
X180802000Y-76389000D02*
X180802000Y-78789000D01*
X175202000Y-72989000D02*
X175702000Y-72989000D01*
X189802000Y-72989000D02*
X189802000Y-73489000D01*
X189802000Y-82189000D02*
X189802000Y-81689000D01*
%TO.C,Q1*%
X146862000Y-95472000D02*
X146862000Y-95772000D01*
X146862000Y-91072000D02*
X146862000Y-91372000D01*
X146862000Y-91072000D02*
X146562000Y-90922000D01*
X146862000Y-95772000D02*
X146562000Y-95922000D01*
D10*
X143712000Y-91472000D02*
G75*
G03*
X143662000Y-95322000I1900000J-1950000D01*
G01*
D13*
%TO.C,R4*%
X155062000Y-90978000D02*
X151222000Y-90978000D01*
X155062000Y-92818000D02*
X151222000Y-92818000D01*
%TO.C,C11*%
X117224000Y-78424000D02*
X117224000Y-74384000D01*
X114384000Y-74384000D02*
X114384000Y-78424000D01*
X117224000Y-74384000D02*
X114384000Y-74384000D01*
X115804000Y-73694000D02*
X115804000Y-74384000D01*
X115804000Y-79114000D02*
X115804000Y-78424000D01*
X114384000Y-78424000D02*
X117224000Y-78424000D01*
%TO.C,C8*%
X158392000Y-137999000D02*
X157702000Y-137999000D01*
X157702000Y-136579000D02*
X153662000Y-136579000D01*
X157702000Y-139419000D02*
X157702000Y-136579000D01*
X153662000Y-136579000D02*
X153662000Y-139419000D01*
X153662000Y-139419000D02*
X157702000Y-139419000D01*
X152972000Y-137999000D02*
X153662000Y-137999000D01*
%TO.C,C13*%
X158615000Y-124133000D02*
X158615000Y-126973000D01*
X157925000Y-125553000D02*
X158615000Y-125553000D01*
X162655000Y-124133000D02*
X158615000Y-124133000D01*
X158615000Y-126973000D02*
X162655000Y-126973000D01*
X162655000Y-126973000D02*
X162655000Y-124133000D01*
X163345000Y-125553000D02*
X162655000Y-125553000D01*
%TO.C,U1*%
X160993000Y-97496000D02*
X160993000Y-107736000D01*
X151503000Y-97496000D02*
X151503000Y-107736000D01*
X146463000Y-107736000D02*
X145263000Y-107736000D01*
X146463000Y-97496000D02*
X145263000Y-97496000D01*
X163533000Y-105156000D02*
X160993000Y-105156000D01*
X151263000Y-107736000D02*
X150063000Y-107736000D01*
X163533000Y-102616000D02*
X160993000Y-102616000D01*
X145103000Y-102296000D02*
X145103000Y-103496000D01*
X145103000Y-107096000D02*
X145103000Y-107736000D01*
X145103000Y-97496000D02*
X145103000Y-98696000D01*
X145103000Y-99895000D02*
X145103000Y-101096000D01*
X160993000Y-107736000D02*
X151503000Y-107736000D01*
X163533000Y-100076000D02*
X160993000Y-100076000D01*
X145103000Y-104696000D02*
X145103000Y-105896000D01*
X160993000Y-97496000D02*
X151503000Y-97496000D01*
X148863000Y-97496000D02*
X147663000Y-97496000D01*
X151263000Y-97496000D02*
X150063000Y-97496000D01*
X148863000Y-107736000D02*
X147663000Y-107736000D01*
%TO.C,R5*%
X132456000Y-88184000D02*
X128616000Y-88184000D01*
X132456000Y-90024000D02*
X128616000Y-90024000D01*
D15*
%TO.C,Q2*%
X124383000Y-93486000D02*
X124083000Y-93636000D01*
X124383000Y-88786000D02*
X124383000Y-89086000D01*
X124383000Y-93186000D02*
X124383000Y-93486000D01*
X124383000Y-88786000D02*
X124083000Y-88636000D01*
D10*
X121233000Y-89186000D02*
G75*
G03*
X121183000Y-93036000I1900000J-1950000D01*
G01*
D13*
%TO.C,R2*%
X151222000Y-96247000D02*
X155062000Y-96247000D01*
X151222000Y-94407000D02*
X155062000Y-94407000D01*
%TO.C,R9*%
X165573000Y-96501000D02*
X169413000Y-96501000D01*
X165573000Y-94661000D02*
X169413000Y-94661000D01*
%TD*%
M02*
