%TF.GenerationSoftware,KiCad,Pcbnew,(6.0.2)*%
%TF.CreationDate,2022-03-14T20:10:21-04:00*%
%TF.ProjectId,Sedna_Hardware,5365646e-615f-4486-9172-64776172652e,1*%
%TF.SameCoordinates,Original*%
%TF.FileFunction,Legend,Top*%
%TF.FilePolarity,Positive*%
%FSLAX46Y46*%
G04 Gerber Fmt 4.6, Leading zero omitted, Abs format (unit mm)*
G04 Created by KiCad (PCBNEW (6.0.2)) date 2022-03-14 20:10:21*
%MOMM*%
%LPD*%
G01*
G04 APERTURE LIST*
%ADD10C,0.150000*%
%ADD11C,0.127000*%
%ADD12C,0.200000*%
%ADD13C,0.120000*%
%ADD14C,0.250000*%
%ADD15C,0.100000*%
G04 APERTURE END LIST*
D10*
%TO.C,J6*%
X172152380Y-136693333D02*
X172866666Y-136693333D01*
X173009523Y-136740952D01*
X173104761Y-136836190D01*
X173152380Y-136979047D01*
X173152380Y-137074285D01*
X172152380Y-135788571D02*
X172152380Y-135979047D01*
X172200000Y-136074285D01*
X172247619Y-136121904D01*
X172390476Y-136217142D01*
X172580952Y-136264761D01*
X172961904Y-136264761D01*
X173057142Y-136217142D01*
X173104761Y-136169523D01*
X173152380Y-136074285D01*
X173152380Y-135883809D01*
X173104761Y-135788571D01*
X173057142Y-135740952D01*
X172961904Y-135693333D01*
X172723809Y-135693333D01*
X172628571Y-135740952D01*
X172580952Y-135788571D01*
X172533333Y-135883809D01*
X172533333Y-136074285D01*
X172580952Y-136169523D01*
X172628571Y-136217142D01*
X172723809Y-136264761D01*
%TO.C,C5*%
X165825142Y-90286666D02*
X165872761Y-90334285D01*
X165920380Y-90477142D01*
X165920380Y-90572380D01*
X165872761Y-90715238D01*
X165777523Y-90810476D01*
X165682285Y-90858095D01*
X165491809Y-90905714D01*
X165348952Y-90905714D01*
X165158476Y-90858095D01*
X165063238Y-90810476D01*
X164968000Y-90715238D01*
X164920380Y-90572380D01*
X164920380Y-90477142D01*
X164968000Y-90334285D01*
X165015619Y-90286666D01*
X164920380Y-89381904D02*
X164920380Y-89858095D01*
X165396571Y-89905714D01*
X165348952Y-89858095D01*
X165301333Y-89762857D01*
X165301333Y-89524761D01*
X165348952Y-89429523D01*
X165396571Y-89381904D01*
X165491809Y-89334285D01*
X165729904Y-89334285D01*
X165825142Y-89381904D01*
X165872761Y-89429523D01*
X165920380Y-89524761D01*
X165920380Y-89762857D01*
X165872761Y-89858095D01*
X165825142Y-89905714D01*
%TO.C,J9*%
X171644380Y-98621333D02*
X172358666Y-98621333D01*
X172501523Y-98668952D01*
X172596761Y-98764190D01*
X172644380Y-98907047D01*
X172644380Y-99002285D01*
X172644380Y-98097523D02*
X172644380Y-97907047D01*
X172596761Y-97811809D01*
X172549142Y-97764190D01*
X172406285Y-97668952D01*
X172215809Y-97621333D01*
X171834857Y-97621333D01*
X171739619Y-97668952D01*
X171692000Y-97716571D01*
X171644380Y-97811809D01*
X171644380Y-98002285D01*
X171692000Y-98097523D01*
X171739619Y-98145142D01*
X171834857Y-98192761D01*
X172072952Y-98192761D01*
X172168190Y-98145142D01*
X172215809Y-98097523D01*
X172263428Y-98002285D01*
X172263428Y-97811809D01*
X172215809Y-97716571D01*
X172168190Y-97668952D01*
X172072952Y-97621333D01*
%TO.C,C2*%
X153778142Y-109894666D02*
X153825761Y-109942285D01*
X153873380Y-110085142D01*
X153873380Y-110180380D01*
X153825761Y-110323238D01*
X153730523Y-110418476D01*
X153635285Y-110466095D01*
X153444809Y-110513714D01*
X153301952Y-110513714D01*
X153111476Y-110466095D01*
X153016238Y-110418476D01*
X152921000Y-110323238D01*
X152873380Y-110180380D01*
X152873380Y-110085142D01*
X152921000Y-109942285D01*
X152968619Y-109894666D01*
X152968619Y-109513714D02*
X152921000Y-109466095D01*
X152873380Y-109370857D01*
X152873380Y-109132761D01*
X152921000Y-109037523D01*
X152968619Y-108989904D01*
X153063857Y-108942285D01*
X153159095Y-108942285D01*
X153301952Y-108989904D01*
X153873380Y-109561333D01*
X153873380Y-108942285D01*
%TO.C,R3*%
X135585380Y-92114666D02*
X135109190Y-92448000D01*
X135585380Y-92686095D02*
X134585380Y-92686095D01*
X134585380Y-92305142D01*
X134633000Y-92209904D01*
X134680619Y-92162285D01*
X134775857Y-92114666D01*
X134918714Y-92114666D01*
X135013952Y-92162285D01*
X135061571Y-92209904D01*
X135109190Y-92305142D01*
X135109190Y-92686095D01*
X134585380Y-91781333D02*
X134585380Y-91162285D01*
X134966333Y-91495619D01*
X134966333Y-91352761D01*
X135013952Y-91257523D01*
X135061571Y-91209904D01*
X135156809Y-91162285D01*
X135394904Y-91162285D01*
X135490142Y-91209904D01*
X135537761Y-91257523D01*
X135585380Y-91352761D01*
X135585380Y-91638476D01*
X135537761Y-91733714D01*
X135490142Y-91781333D01*
%TO.C,C7*%
X139062142Y-93341666D02*
X139109761Y-93389285D01*
X139157380Y-93532142D01*
X139157380Y-93627380D01*
X139109761Y-93770238D01*
X139014523Y-93865476D01*
X138919285Y-93913095D01*
X138728809Y-93960714D01*
X138585952Y-93960714D01*
X138395476Y-93913095D01*
X138300238Y-93865476D01*
X138205000Y-93770238D01*
X138157380Y-93627380D01*
X138157380Y-93532142D01*
X138205000Y-93389285D01*
X138252619Y-93341666D01*
X138157380Y-93008333D02*
X138157380Y-92341666D01*
X139157380Y-92770238D01*
%TO.C,H3*%
X174773380Y-143273659D02*
X173773380Y-143273659D01*
X174249571Y-143273659D02*
X174249571Y-142702231D01*
X174773380Y-142702231D02*
X173773380Y-142702231D01*
X173773380Y-142321278D02*
X173773380Y-141702231D01*
X174154333Y-142035564D01*
X174154333Y-141892707D01*
X174201952Y-141797469D01*
X174249571Y-141749850D01*
X174344809Y-141702231D01*
X174582904Y-141702231D01*
X174678142Y-141749850D01*
X174725761Y-141797469D01*
X174773380Y-141892707D01*
X174773380Y-142178421D01*
X174725761Y-142273659D01*
X174678142Y-142321278D01*
%TO.C,K1*%
X146882390Y-82739404D02*
X145882390Y-82739404D01*
X146882390Y-82167976D02*
X146310962Y-82596547D01*
X145882390Y-82167976D02*
X146453819Y-82739404D01*
X146882390Y-81215595D02*
X146882390Y-81787023D01*
X146882390Y-81501309D02*
X145882390Y-81501309D01*
X146025248Y-81596547D01*
X146120486Y-81691785D01*
X146168105Y-81787023D01*
X152954533Y-78398095D02*
X151684533Y-78398095D01*
X151684533Y-77914285D01*
X151745010Y-77793333D01*
X151805486Y-77732857D01*
X151926438Y-77672380D01*
X152107867Y-77672380D01*
X152228819Y-77732857D01*
X152289295Y-77793333D01*
X152349771Y-77914285D01*
X152349771Y-78398095D01*
X152289295Y-76704761D02*
X152349771Y-76523333D01*
X152410248Y-76462857D01*
X152531200Y-76402380D01*
X152712629Y-76402380D01*
X152833581Y-76462857D01*
X152894057Y-76523333D01*
X152954533Y-76644285D01*
X152954533Y-77128095D01*
X151684533Y-77128095D01*
X151684533Y-76704761D01*
X151745010Y-76583809D01*
X151805486Y-76523333D01*
X151926438Y-76462857D01*
X152047390Y-76462857D01*
X152168343Y-76523333D01*
X152228819Y-76583809D01*
X152289295Y-76704761D01*
X152289295Y-77128095D01*
X152954533Y-75192857D02*
X152954533Y-75918571D01*
X152954533Y-75555714D02*
X151684533Y-75555714D01*
X151865962Y-75676666D01*
X151986914Y-75797619D01*
X152047390Y-75918571D01*
X152228819Y-74467142D02*
X152168343Y-74588095D01*
X152107867Y-74648571D01*
X151986914Y-74709047D01*
X151926438Y-74709047D01*
X151805486Y-74648571D01*
X151745010Y-74588095D01*
X151684533Y-74467142D01*
X151684533Y-74225238D01*
X151745010Y-74104285D01*
X151805486Y-74043809D01*
X151926438Y-73983333D01*
X151986914Y-73983333D01*
X152107867Y-74043809D01*
X152168343Y-74104285D01*
X152228819Y-74225238D01*
X152228819Y-74467142D01*
X152289295Y-74588095D01*
X152349771Y-74648571D01*
X152470724Y-74709047D01*
X152712629Y-74709047D01*
X152833581Y-74648571D01*
X152894057Y-74588095D01*
X152954533Y-74467142D01*
X152954533Y-74225238D01*
X152894057Y-74104285D01*
X152833581Y-74043809D01*
X152712629Y-73983333D01*
X152470724Y-73983333D01*
X152349771Y-74043809D01*
X152289295Y-74104285D01*
X152228819Y-74225238D01*
X151805486Y-73499523D02*
X151745010Y-73439047D01*
X151684533Y-73318095D01*
X151684533Y-73015714D01*
X151745010Y-72894761D01*
X151805486Y-72834285D01*
X151926438Y-72773809D01*
X152047390Y-72773809D01*
X152228819Y-72834285D01*
X152954533Y-73560000D01*
X152954533Y-72773809D01*
X152228819Y-72048095D02*
X152168343Y-72169047D01*
X152107867Y-72229523D01*
X151986914Y-72290000D01*
X151926438Y-72290000D01*
X151805486Y-72229523D01*
X151745010Y-72169047D01*
X151684533Y-72048095D01*
X151684533Y-71806190D01*
X151745010Y-71685238D01*
X151805486Y-71624761D01*
X151926438Y-71564285D01*
X151986914Y-71564285D01*
X152107867Y-71624761D01*
X152168343Y-71685238D01*
X152228819Y-71806190D01*
X152228819Y-72048095D01*
X152289295Y-72169047D01*
X152349771Y-72229523D01*
X152470724Y-72290000D01*
X152712629Y-72290000D01*
X152833581Y-72229523D01*
X152894057Y-72169047D01*
X152954533Y-72048095D01*
X152954533Y-71806190D01*
X152894057Y-71685238D01*
X152833581Y-71624761D01*
X152712629Y-71564285D01*
X152470724Y-71564285D01*
X152349771Y-71624761D01*
X152289295Y-71685238D01*
X152228819Y-71806190D01*
X152470724Y-71020000D02*
X152470724Y-70052380D01*
X152954533Y-69447619D02*
X151684533Y-69447619D01*
X152954533Y-68721904D01*
X151684533Y-68721904D01*
X152954533Y-68117142D02*
X151684533Y-68117142D01*
X151684533Y-67814761D01*
X151745010Y-67633333D01*
X151865962Y-67512380D01*
X151986914Y-67451904D01*
X152228819Y-67391428D01*
X152410248Y-67391428D01*
X152652152Y-67451904D01*
X152773105Y-67512380D01*
X152894057Y-67633333D01*
X152954533Y-67814761D01*
X152954533Y-68117142D01*
%TO.C,R7*%
X153276380Y-131716666D02*
X152800190Y-132050000D01*
X153276380Y-132288095D02*
X152276380Y-132288095D01*
X152276380Y-131907142D01*
X152324000Y-131811904D01*
X152371619Y-131764285D01*
X152466857Y-131716666D01*
X152609714Y-131716666D01*
X152704952Y-131764285D01*
X152752571Y-131811904D01*
X152800190Y-131907142D01*
X152800190Y-132288095D01*
X152276380Y-131383333D02*
X152276380Y-130716666D01*
X153276380Y-131145238D01*
%TO.C,C6*%
X138987142Y-82641666D02*
X139034761Y-82689285D01*
X139082380Y-82832142D01*
X139082380Y-82927380D01*
X139034761Y-83070238D01*
X138939523Y-83165476D01*
X138844285Y-83213095D01*
X138653809Y-83260714D01*
X138510952Y-83260714D01*
X138320476Y-83213095D01*
X138225238Y-83165476D01*
X138130000Y-83070238D01*
X138082380Y-82927380D01*
X138082380Y-82832142D01*
X138130000Y-82689285D01*
X138177619Y-82641666D01*
X138082380Y-81784523D02*
X138082380Y-81975000D01*
X138130000Y-82070238D01*
X138177619Y-82117857D01*
X138320476Y-82213095D01*
X138510952Y-82260714D01*
X138891904Y-82260714D01*
X138987142Y-82213095D01*
X139034761Y-82165476D01*
X139082380Y-82070238D01*
X139082380Y-81879761D01*
X139034761Y-81784523D01*
X138987142Y-81736904D01*
X138891904Y-81689285D01*
X138653809Y-81689285D01*
X138558571Y-81736904D01*
X138510952Y-81784523D01*
X138463333Y-81879761D01*
X138463333Y-82070238D01*
X138510952Y-82165476D01*
X138558571Y-82213095D01*
X138653809Y-82260714D01*
%TO.C,C10*%
X168993142Y-136990857D02*
X169040761Y-137038476D01*
X169088380Y-137181333D01*
X169088380Y-137276571D01*
X169040761Y-137419428D01*
X168945523Y-137514666D01*
X168850285Y-137562285D01*
X168659809Y-137609904D01*
X168516952Y-137609904D01*
X168326476Y-137562285D01*
X168231238Y-137514666D01*
X168136000Y-137419428D01*
X168088380Y-137276571D01*
X168088380Y-137181333D01*
X168136000Y-137038476D01*
X168183619Y-136990857D01*
X169088380Y-136038476D02*
X169088380Y-136609904D01*
X169088380Y-136324190D02*
X168088380Y-136324190D01*
X168231238Y-136419428D01*
X168326476Y-136514666D01*
X168374095Y-136609904D01*
X168088380Y-135419428D02*
X168088380Y-135324190D01*
X168136000Y-135228952D01*
X168183619Y-135181333D01*
X168278857Y-135133714D01*
X168469333Y-135086095D01*
X168707428Y-135086095D01*
X168897904Y-135133714D01*
X168993142Y-135181333D01*
X169040761Y-135228952D01*
X169088380Y-135324190D01*
X169088380Y-135419428D01*
X169040761Y-135514666D01*
X168993142Y-135562285D01*
X168897904Y-135609904D01*
X168707428Y-135657523D01*
X168469333Y-135657523D01*
X168278857Y-135609904D01*
X168183619Y-135562285D01*
X168136000Y-135514666D01*
X168088380Y-135419428D01*
%TO.C,H4*%
X111781380Y-143273666D02*
X110781380Y-143273666D01*
X111257571Y-143273666D02*
X111257571Y-142702238D01*
X111781380Y-142702238D02*
X110781380Y-142702238D01*
X111114714Y-141797476D02*
X111781380Y-141797476D01*
X110733761Y-142035571D02*
X111448047Y-142273666D01*
X111448047Y-141654619D01*
%TO.C,K2*%
X122802377Y-82739404D02*
X121802377Y-82739404D01*
X122802377Y-82167976D02*
X122230949Y-82596547D01*
X121802377Y-82167976D02*
X122373806Y-82739404D01*
X121897616Y-81787023D02*
X121849997Y-81739404D01*
X121802377Y-81644166D01*
X121802377Y-81406071D01*
X121849997Y-81310833D01*
X121897616Y-81263214D01*
X121992854Y-81215595D01*
X122088092Y-81215595D01*
X122230949Y-81263214D01*
X122802377Y-81834642D01*
X122802377Y-81215595D01*
X128874520Y-78398095D02*
X127604520Y-78398095D01*
X127604520Y-77914285D01*
X127664997Y-77793333D01*
X127725473Y-77732857D01*
X127846425Y-77672380D01*
X128027854Y-77672380D01*
X128148806Y-77732857D01*
X128209282Y-77793333D01*
X128269758Y-77914285D01*
X128269758Y-78398095D01*
X128209282Y-76704761D02*
X128269758Y-76523333D01*
X128330235Y-76462857D01*
X128451187Y-76402380D01*
X128632616Y-76402380D01*
X128753568Y-76462857D01*
X128814044Y-76523333D01*
X128874520Y-76644285D01*
X128874520Y-77128095D01*
X127604520Y-77128095D01*
X127604520Y-76704761D01*
X127664997Y-76583809D01*
X127725473Y-76523333D01*
X127846425Y-76462857D01*
X127967377Y-76462857D01*
X128088330Y-76523333D01*
X128148806Y-76583809D01*
X128209282Y-76704761D01*
X128209282Y-77128095D01*
X128874520Y-75192857D02*
X128874520Y-75918571D01*
X128874520Y-75555714D02*
X127604520Y-75555714D01*
X127785949Y-75676666D01*
X127906901Y-75797619D01*
X127967377Y-75918571D01*
X128148806Y-74467142D02*
X128088330Y-74588095D01*
X128027854Y-74648571D01*
X127906901Y-74709047D01*
X127846425Y-74709047D01*
X127725473Y-74648571D01*
X127664997Y-74588095D01*
X127604520Y-74467142D01*
X127604520Y-74225238D01*
X127664997Y-74104285D01*
X127725473Y-74043809D01*
X127846425Y-73983333D01*
X127906901Y-73983333D01*
X128027854Y-74043809D01*
X128088330Y-74104285D01*
X128148806Y-74225238D01*
X128148806Y-74467142D01*
X128209282Y-74588095D01*
X128269758Y-74648571D01*
X128390711Y-74709047D01*
X128632616Y-74709047D01*
X128753568Y-74648571D01*
X128814044Y-74588095D01*
X128874520Y-74467142D01*
X128874520Y-74225238D01*
X128814044Y-74104285D01*
X128753568Y-74043809D01*
X128632616Y-73983333D01*
X128390711Y-73983333D01*
X128269758Y-74043809D01*
X128209282Y-74104285D01*
X128148806Y-74225238D01*
X127725473Y-73499523D02*
X127664997Y-73439047D01*
X127604520Y-73318095D01*
X127604520Y-73015714D01*
X127664997Y-72894761D01*
X127725473Y-72834285D01*
X127846425Y-72773809D01*
X127967377Y-72773809D01*
X128148806Y-72834285D01*
X128874520Y-73560000D01*
X128874520Y-72773809D01*
X128148806Y-72048095D02*
X128088330Y-72169047D01*
X128027854Y-72229523D01*
X127906901Y-72290000D01*
X127846425Y-72290000D01*
X127725473Y-72229523D01*
X127664997Y-72169047D01*
X127604520Y-72048095D01*
X127604520Y-71806190D01*
X127664997Y-71685238D01*
X127725473Y-71624761D01*
X127846425Y-71564285D01*
X127906901Y-71564285D01*
X128027854Y-71624761D01*
X128088330Y-71685238D01*
X128148806Y-71806190D01*
X128148806Y-72048095D01*
X128209282Y-72169047D01*
X128269758Y-72229523D01*
X128390711Y-72290000D01*
X128632616Y-72290000D01*
X128753568Y-72229523D01*
X128814044Y-72169047D01*
X128874520Y-72048095D01*
X128874520Y-71806190D01*
X128814044Y-71685238D01*
X128753568Y-71624761D01*
X128632616Y-71564285D01*
X128390711Y-71564285D01*
X128269758Y-71624761D01*
X128209282Y-71685238D01*
X128148806Y-71806190D01*
X128390711Y-71020000D02*
X128390711Y-70052380D01*
X128874520Y-69447619D02*
X127604520Y-69447619D01*
X128874520Y-68721904D01*
X127604520Y-68721904D01*
X128874520Y-68117142D02*
X127604520Y-68117142D01*
X127604520Y-67814761D01*
X127664997Y-67633333D01*
X127785949Y-67512380D01*
X127906901Y-67451904D01*
X128148806Y-67391428D01*
X128330235Y-67391428D01*
X128572139Y-67451904D01*
X128693092Y-67512380D01*
X128814044Y-67633333D01*
X128874520Y-67814761D01*
X128874520Y-68117142D01*
%TO.C,C1*%
X159005142Y-76062666D02*
X159052761Y-76110285D01*
X159100380Y-76253142D01*
X159100380Y-76348380D01*
X159052761Y-76491238D01*
X158957523Y-76586476D01*
X158862285Y-76634095D01*
X158671809Y-76681714D01*
X158528952Y-76681714D01*
X158338476Y-76634095D01*
X158243238Y-76586476D01*
X158148000Y-76491238D01*
X158100380Y-76348380D01*
X158100380Y-76253142D01*
X158148000Y-76110285D01*
X158195619Y-76062666D01*
X159100380Y-75110285D02*
X159100380Y-75681714D01*
X159100380Y-75396000D02*
X158100380Y-75396000D01*
X158243238Y-75491238D01*
X158338476Y-75586476D01*
X158386095Y-75681714D01*
%TO.C,D3*%
X128838908Y-89282380D02*
X128838908Y-88282380D01*
X129077004Y-88282380D01*
X129219861Y-88330000D01*
X129315099Y-88425238D01*
X129362718Y-88520476D01*
X129410337Y-88710952D01*
X129410337Y-88853809D01*
X129362718Y-89044285D01*
X129315099Y-89139523D01*
X129219861Y-89234761D01*
X129077004Y-89282380D01*
X128838908Y-89282380D01*
X129743670Y-88282380D02*
X130362718Y-88282380D01*
X130029384Y-88663333D01*
X130172242Y-88663333D01*
X130267480Y-88710952D01*
X130315099Y-88758571D01*
X130362718Y-88853809D01*
X130362718Y-89091904D01*
X130315099Y-89187142D01*
X130267480Y-89234761D01*
X130172242Y-89282380D01*
X129886527Y-89282380D01*
X129791289Y-89234761D01*
X129743670Y-89187142D01*
%TO.C,U2*%
X123409380Y-131825904D02*
X124218904Y-131825904D01*
X124314142Y-131778285D01*
X124361761Y-131730666D01*
X124409380Y-131635428D01*
X124409380Y-131444952D01*
X124361761Y-131349714D01*
X124314142Y-131302095D01*
X124218904Y-131254476D01*
X123409380Y-131254476D01*
X123504619Y-130825904D02*
X123457000Y-130778285D01*
X123409380Y-130683047D01*
X123409380Y-130444952D01*
X123457000Y-130349714D01*
X123504619Y-130302095D01*
X123599857Y-130254476D01*
X123695095Y-130254476D01*
X123837952Y-130302095D01*
X124409380Y-130873523D01*
X124409380Y-130254476D01*
%TO.C,D2*%
X145745380Y-87098095D02*
X144745380Y-87098095D01*
X144745380Y-86860000D01*
X144793000Y-86717142D01*
X144888238Y-86621904D01*
X144983476Y-86574285D01*
X145173952Y-86526666D01*
X145316809Y-86526666D01*
X145507285Y-86574285D01*
X145602523Y-86621904D01*
X145697761Y-86717142D01*
X145745380Y-86860000D01*
X145745380Y-87098095D01*
X144840619Y-86145714D02*
X144793000Y-86098095D01*
X144745380Y-86002857D01*
X144745380Y-85764761D01*
X144793000Y-85669523D01*
X144840619Y-85621904D01*
X144935857Y-85574285D01*
X145031095Y-85574285D01*
X145173952Y-85621904D01*
X145745380Y-86193333D01*
X145745380Y-85574285D01*
%TO.C,R8*%
X173152380Y-131942666D02*
X172676190Y-132276000D01*
X173152380Y-132514095D02*
X172152380Y-132514095D01*
X172152380Y-132133142D01*
X172200000Y-132037904D01*
X172247619Y-131990285D01*
X172342857Y-131942666D01*
X172485714Y-131942666D01*
X172580952Y-131990285D01*
X172628571Y-132037904D01*
X172676190Y-132133142D01*
X172676190Y-132514095D01*
X172580952Y-131371238D02*
X172533333Y-131466476D01*
X172485714Y-131514095D01*
X172390476Y-131561714D01*
X172342857Y-131561714D01*
X172247619Y-131514095D01*
X172200000Y-131466476D01*
X172152380Y-131371238D01*
X172152380Y-131180761D01*
X172200000Y-131085523D01*
X172247619Y-131037904D01*
X172342857Y-130990285D01*
X172390476Y-130990285D01*
X172485714Y-131037904D01*
X172533333Y-131085523D01*
X172580952Y-131180761D01*
X172580952Y-131371238D01*
X172628571Y-131466476D01*
X172676190Y-131514095D01*
X172771428Y-131561714D01*
X172961904Y-131561714D01*
X173057142Y-131514095D01*
X173104761Y-131466476D01*
X173152380Y-131371238D01*
X173152380Y-131180761D01*
X173104761Y-131085523D01*
X173057142Y-131037904D01*
X172961904Y-130990285D01*
X172771428Y-130990285D01*
X172676190Y-131037904D01*
X172628571Y-131085523D01*
X172580952Y-131180761D01*
%TO.C,C4*%
X163208333Y-121102142D02*
X163160714Y-121149761D01*
X163017857Y-121197380D01*
X162922619Y-121197380D01*
X162779761Y-121149761D01*
X162684523Y-121054523D01*
X162636904Y-120959285D01*
X162589285Y-120768809D01*
X162589285Y-120625952D01*
X162636904Y-120435476D01*
X162684523Y-120340238D01*
X162779761Y-120245000D01*
X162922619Y-120197380D01*
X163017857Y-120197380D01*
X163160714Y-120245000D01*
X163208333Y-120292619D01*
X164065476Y-120530714D02*
X164065476Y-121197380D01*
X163827380Y-120149761D02*
X163589285Y-120864047D01*
X164208333Y-120864047D01*
%TO.C,D1*%
X174168380Y-84762095D02*
X173168380Y-84762095D01*
X173168380Y-84524000D01*
X173216000Y-84381142D01*
X173311238Y-84285904D01*
X173406476Y-84238285D01*
X173596952Y-84190666D01*
X173739809Y-84190666D01*
X173930285Y-84238285D01*
X174025523Y-84285904D01*
X174120761Y-84381142D01*
X174168380Y-84524000D01*
X174168380Y-84762095D01*
X174168380Y-83238285D02*
X174168380Y-83809714D01*
X174168380Y-83524000D02*
X173168380Y-83524000D01*
X173311238Y-83619238D01*
X173406476Y-83714476D01*
X173454095Y-83809714D01*
%TO.C,H1*%
X111781380Y-67817904D02*
X110781380Y-67817904D01*
X111257571Y-67817904D02*
X111257571Y-67246476D01*
X111781380Y-67246476D02*
X110781380Y-67246476D01*
X111781380Y-66246476D02*
X111781380Y-66817904D01*
X111781380Y-66532190D02*
X110781380Y-66532190D01*
X110924238Y-66627428D01*
X111019476Y-66722666D01*
X111067095Y-66817904D01*
%TO.C,R11*%
X167485142Y-111004380D02*
X167151809Y-110528190D01*
X166913714Y-111004380D02*
X166913714Y-110004380D01*
X167294666Y-110004380D01*
X167389904Y-110052000D01*
X167437523Y-110099619D01*
X167485142Y-110194857D01*
X167485142Y-110337714D01*
X167437523Y-110432952D01*
X167389904Y-110480571D01*
X167294666Y-110528190D01*
X166913714Y-110528190D01*
X168437523Y-111004380D02*
X167866095Y-111004380D01*
X168151809Y-111004380D02*
X168151809Y-110004380D01*
X168056571Y-110147238D01*
X167961333Y-110242476D01*
X167866095Y-110290095D01*
X169389904Y-111004380D02*
X168818476Y-111004380D01*
X169104190Y-111004380D02*
X169104190Y-110004380D01*
X169008952Y-110147238D01*
X168913714Y-110242476D01*
X168818476Y-110290095D01*
%TO.C,C9*%
X113605333Y-134285142D02*
X113557714Y-134332761D01*
X113414857Y-134380380D01*
X113319619Y-134380380D01*
X113176761Y-134332761D01*
X113081523Y-134237523D01*
X113033904Y-134142285D01*
X112986285Y-133951809D01*
X112986285Y-133808952D01*
X113033904Y-133618476D01*
X113081523Y-133523238D01*
X113176761Y-133428000D01*
X113319619Y-133380380D01*
X113414857Y-133380380D01*
X113557714Y-133428000D01*
X113605333Y-133475619D01*
X114081523Y-134380380D02*
X114272000Y-134380380D01*
X114367238Y-134332761D01*
X114414857Y-134285142D01*
X114510095Y-134142285D01*
X114557714Y-133951809D01*
X114557714Y-133570857D01*
X114510095Y-133475619D01*
X114462476Y-133428000D01*
X114367238Y-133380380D01*
X114176761Y-133380380D01*
X114081523Y-133428000D01*
X114033904Y-133475619D01*
X113986285Y-133570857D01*
X113986285Y-133808952D01*
X114033904Y-133904190D01*
X114081523Y-133951809D01*
X114176761Y-133999428D01*
X114367238Y-133999428D01*
X114462476Y-133951809D01*
X114510095Y-133904190D01*
X114557714Y-133808952D01*
%TO.C,J5*%
X172152380Y-108741333D02*
X172866666Y-108741333D01*
X173009523Y-108788952D01*
X173104761Y-108884190D01*
X173152380Y-109027047D01*
X173152380Y-109122285D01*
X172152380Y-107788952D02*
X172152380Y-108265142D01*
X172628571Y-108312761D01*
X172580952Y-108265142D01*
X172533333Y-108169904D01*
X172533333Y-107931809D01*
X172580952Y-107836571D01*
X172628571Y-107788952D01*
X172723809Y-107741333D01*
X172961904Y-107741333D01*
X173057142Y-107788952D01*
X173104761Y-107836571D01*
X173152380Y-107931809D01*
X173152380Y-108169904D01*
X173104761Y-108265142D01*
X173057142Y-108312761D01*
%TO.C,J8*%
X129066669Y-62402388D02*
X129066669Y-63116674D01*
X129019050Y-63259531D01*
X128923812Y-63354769D01*
X128780955Y-63402388D01*
X128685717Y-63402388D01*
X129685717Y-62830960D02*
X129590479Y-62783341D01*
X129542860Y-62735722D01*
X129495241Y-62640484D01*
X129495241Y-62592865D01*
X129542860Y-62497627D01*
X129590479Y-62450008D01*
X129685717Y-62402388D01*
X129876193Y-62402388D01*
X129971431Y-62450008D01*
X130019050Y-62497627D01*
X130066669Y-62592865D01*
X130066669Y-62640484D01*
X130019050Y-62735722D01*
X129971431Y-62783341D01*
X129876193Y-62830960D01*
X129685717Y-62830960D01*
X129590479Y-62878579D01*
X129542860Y-62926198D01*
X129495241Y-63021436D01*
X129495241Y-63211912D01*
X129542860Y-63307150D01*
X129590479Y-63354769D01*
X129685717Y-63402388D01*
X129876193Y-63402388D01*
X129971431Y-63354769D01*
X130019050Y-63307150D01*
X130066669Y-63211912D01*
X130066669Y-63021436D01*
X130019050Y-62926198D01*
X129971431Y-62878579D01*
X129876193Y-62830960D01*
%TO.C,J11*%
X171644380Y-116837523D02*
X172358666Y-116837523D01*
X172501523Y-116885142D01*
X172596761Y-116980380D01*
X172644380Y-117123238D01*
X172644380Y-117218476D01*
X172644380Y-115837523D02*
X172644380Y-116408952D01*
X172644380Y-116123238D02*
X171644380Y-116123238D01*
X171787238Y-116218476D01*
X171882476Y-116313714D01*
X171930095Y-116408952D01*
X172644380Y-114885142D02*
X172644380Y-115456571D01*
X172644380Y-115170857D02*
X171644380Y-115170857D01*
X171787238Y-115266095D01*
X171882476Y-115361333D01*
X171930095Y-115456571D01*
%TO.C,R10*%
X169088380Y-121546857D02*
X168612190Y-121880190D01*
X169088380Y-122118285D02*
X168088380Y-122118285D01*
X168088380Y-121737333D01*
X168136000Y-121642095D01*
X168183619Y-121594476D01*
X168278857Y-121546857D01*
X168421714Y-121546857D01*
X168516952Y-121594476D01*
X168564571Y-121642095D01*
X168612190Y-121737333D01*
X168612190Y-122118285D01*
X169088380Y-120594476D02*
X169088380Y-121165904D01*
X169088380Y-120880190D02*
X168088380Y-120880190D01*
X168231238Y-120975428D01*
X168326476Y-121070666D01*
X168374095Y-121165904D01*
X168088380Y-119975428D02*
X168088380Y-119880190D01*
X168136000Y-119784952D01*
X168183619Y-119737333D01*
X168278857Y-119689714D01*
X168469333Y-119642095D01*
X168707428Y-119642095D01*
X168897904Y-119689714D01*
X168993142Y-119737333D01*
X169040761Y-119784952D01*
X169088380Y-119880190D01*
X169088380Y-119975428D01*
X169040761Y-120070666D01*
X168993142Y-120118285D01*
X168897904Y-120165904D01*
X168707428Y-120213523D01*
X168469333Y-120213523D01*
X168278857Y-120165904D01*
X168183619Y-120118285D01*
X168136000Y-120070666D01*
X168088380Y-119975428D01*
%TO.C,R1*%
X169485333Y-84080380D02*
X169152000Y-83604190D01*
X168913904Y-84080380D02*
X168913904Y-83080380D01*
X169294857Y-83080380D01*
X169390095Y-83128000D01*
X169437714Y-83175619D01*
X169485333Y-83270857D01*
X169485333Y-83413714D01*
X169437714Y-83508952D01*
X169390095Y-83556571D01*
X169294857Y-83604190D01*
X168913904Y-83604190D01*
X170437714Y-84080380D02*
X169866285Y-84080380D01*
X170152000Y-84080380D02*
X170152000Y-83080380D01*
X170056761Y-83223238D01*
X169961523Y-83318476D01*
X169866285Y-83366095D01*
%TO.C,J10*%
X171912780Y-126565723D02*
X172627066Y-126565723D01*
X172769923Y-126613342D01*
X172865161Y-126708580D01*
X172912780Y-126851438D01*
X172912780Y-126946676D01*
X172912780Y-125565723D02*
X172912780Y-126137152D01*
X172912780Y-125851438D02*
X171912780Y-125851438D01*
X172055638Y-125946676D01*
X172150876Y-126041914D01*
X172198495Y-126137152D01*
X171912780Y-124946676D02*
X171912780Y-124851438D01*
X171960400Y-124756200D01*
X172008019Y-124708580D01*
X172103257Y-124660961D01*
X172293733Y-124613342D01*
X172531828Y-124613342D01*
X172722304Y-124660961D01*
X172817542Y-124708580D01*
X172865161Y-124756200D01*
X172912780Y-124851438D01*
X172912780Y-124946676D01*
X172865161Y-125041914D01*
X172817542Y-125089533D01*
X172722304Y-125137152D01*
X172531828Y-125184771D01*
X172293733Y-125184771D01*
X172103257Y-125137152D01*
X172008019Y-125089533D01*
X171960400Y-125041914D01*
X171912780Y-124946676D01*
%TO.C,C3*%
X153020333Y-117401142D02*
X152972714Y-117448761D01*
X152829857Y-117496380D01*
X152734619Y-117496380D01*
X152591761Y-117448761D01*
X152496523Y-117353523D01*
X152448904Y-117258285D01*
X152401285Y-117067809D01*
X152401285Y-116924952D01*
X152448904Y-116734476D01*
X152496523Y-116639238D01*
X152591761Y-116544000D01*
X152734619Y-116496380D01*
X152829857Y-116496380D01*
X152972714Y-116544000D01*
X153020333Y-116591619D01*
X153353666Y-116496380D02*
X153972714Y-116496380D01*
X153639380Y-116877333D01*
X153782238Y-116877333D01*
X153877476Y-116924952D01*
X153925095Y-116972571D01*
X153972714Y-117067809D01*
X153972714Y-117305904D01*
X153925095Y-117401142D01*
X153877476Y-117448761D01*
X153782238Y-117496380D01*
X153496523Y-117496380D01*
X153401285Y-117448761D01*
X153353666Y-117401142D01*
%TO.C,RV1*%
X160122180Y-146061838D02*
X159645990Y-146395171D01*
X160122180Y-146633266D02*
X159122180Y-146633266D01*
X159122180Y-146252314D01*
X159169800Y-146157076D01*
X159217419Y-146109457D01*
X159312657Y-146061838D01*
X159455514Y-146061838D01*
X159550752Y-146109457D01*
X159598371Y-146157076D01*
X159645990Y-146252314D01*
X159645990Y-146633266D01*
X159122180Y-145776123D02*
X160122180Y-145442790D01*
X159122180Y-145109457D01*
X160122180Y-144252314D02*
X160122180Y-144823742D01*
X160122180Y-144538028D02*
X159122180Y-144538028D01*
X159265038Y-144633266D01*
X159360276Y-144728504D01*
X159407895Y-144823742D01*
%TO.C,C12*%
X174363142Y-88460857D02*
X174410761Y-88508476D01*
X174458380Y-88651333D01*
X174458380Y-88746571D01*
X174410761Y-88889428D01*
X174315523Y-88984666D01*
X174220285Y-89032285D01*
X174029809Y-89079904D01*
X173886952Y-89079904D01*
X173696476Y-89032285D01*
X173601238Y-88984666D01*
X173506000Y-88889428D01*
X173458380Y-88746571D01*
X173458380Y-88651333D01*
X173506000Y-88508476D01*
X173553619Y-88460857D01*
X174458380Y-87508476D02*
X174458380Y-88079904D01*
X174458380Y-87794190D02*
X173458380Y-87794190D01*
X173601238Y-87889428D01*
X173696476Y-87984666D01*
X173744095Y-88079904D01*
X173553619Y-87127523D02*
X173506000Y-87079904D01*
X173458380Y-86984666D01*
X173458380Y-86746571D01*
X173506000Y-86651333D01*
X173553619Y-86603714D01*
X173648857Y-86556095D01*
X173744095Y-86556095D01*
X173886952Y-86603714D01*
X174458380Y-87175142D01*
X174458380Y-86556095D01*
%TO.C,J2*%
X143006380Y-104219333D02*
X143720666Y-104219333D01*
X143863523Y-104266952D01*
X143958761Y-104362190D01*
X144006380Y-104505047D01*
X144006380Y-104600285D01*
X143101619Y-103790761D02*
X143054000Y-103743142D01*
X143006380Y-103647904D01*
X143006380Y-103409809D01*
X143054000Y-103314571D01*
X143101619Y-103266952D01*
X143196857Y-103219333D01*
X143292095Y-103219333D01*
X143434952Y-103266952D01*
X144006380Y-103838380D01*
X144006380Y-103219333D01*
%TO.C,C14*%
X173445142Y-106002857D02*
X173492761Y-106050476D01*
X173540380Y-106193333D01*
X173540380Y-106288571D01*
X173492761Y-106431428D01*
X173397523Y-106526666D01*
X173302285Y-106574285D01*
X173111809Y-106621904D01*
X172968952Y-106621904D01*
X172778476Y-106574285D01*
X172683238Y-106526666D01*
X172588000Y-106431428D01*
X172540380Y-106288571D01*
X172540380Y-106193333D01*
X172588000Y-106050476D01*
X172635619Y-106002857D01*
X173540380Y-105050476D02*
X173540380Y-105621904D01*
X173540380Y-105336190D02*
X172540380Y-105336190D01*
X172683238Y-105431428D01*
X172778476Y-105526666D01*
X172826095Y-105621904D01*
X172873714Y-104193333D02*
X173540380Y-104193333D01*
X172492761Y-104431428D02*
X173207047Y-104669523D01*
X173207047Y-104050476D01*
%TO.C,U3*%
X162819095Y-127468380D02*
X162819095Y-128277904D01*
X162866714Y-128373142D01*
X162914333Y-128420761D01*
X163009571Y-128468380D01*
X163200047Y-128468380D01*
X163295285Y-128420761D01*
X163342904Y-128373142D01*
X163390523Y-128277904D01*
X163390523Y-127468380D01*
X163771476Y-127468380D02*
X164390523Y-127468380D01*
X164057190Y-127849333D01*
X164200047Y-127849333D01*
X164295285Y-127896952D01*
X164342904Y-127944571D01*
X164390523Y-128039809D01*
X164390523Y-128277904D01*
X164342904Y-128373142D01*
X164295285Y-128420761D01*
X164200047Y-128468380D01*
X163914333Y-128468380D01*
X163819095Y-128420761D01*
X163771476Y-128373142D01*
%TO.C,J3*%
X112208380Y-113313333D02*
X112922666Y-113313333D01*
X113065523Y-113360952D01*
X113160761Y-113456190D01*
X113208380Y-113599047D01*
X113208380Y-113694285D01*
X112208380Y-112932380D02*
X112208380Y-112313333D01*
X112589333Y-112646666D01*
X112589333Y-112503809D01*
X112636952Y-112408571D01*
X112684571Y-112360952D01*
X112779809Y-112313333D01*
X113017904Y-112313333D01*
X113113142Y-112360952D01*
X113160761Y-112408571D01*
X113208380Y-112503809D01*
X113208380Y-112789523D01*
X113160761Y-112884761D01*
X113113142Y-112932380D01*
%TO.C,J1*%
X169632380Y-80972333D02*
X170346666Y-80972333D01*
X170489523Y-81019952D01*
X170584761Y-81115190D01*
X170632380Y-81258047D01*
X170632380Y-81353285D01*
X170632380Y-79972333D02*
X170632380Y-80543761D01*
X170632380Y-80258047D02*
X169632380Y-80258047D01*
X169775238Y-80353285D01*
X169870476Y-80448523D01*
X169918095Y-80543761D01*
%TO.C,Q1*%
X145572619Y-92995238D02*
X145525000Y-93090476D01*
X145429761Y-93185714D01*
X145286904Y-93328571D01*
X145239285Y-93423809D01*
X145239285Y-93519047D01*
X145477380Y-93471428D02*
X145429761Y-93566666D01*
X145334523Y-93661904D01*
X145144047Y-93709523D01*
X144810714Y-93709523D01*
X144620238Y-93661904D01*
X144525000Y-93566666D01*
X144477380Y-93471428D01*
X144477380Y-93280952D01*
X144525000Y-93185714D01*
X144620238Y-93090476D01*
X144810714Y-93042857D01*
X145144047Y-93042857D01*
X145334523Y-93090476D01*
X145429761Y-93185714D01*
X145477380Y-93280952D01*
X145477380Y-93471428D01*
X145477380Y-92090476D02*
X145477380Y-92661904D01*
X145477380Y-92376190D02*
X144477380Y-92376190D01*
X144620238Y-92471428D01*
X144715476Y-92566666D01*
X144763095Y-92661904D01*
%TO.C,R4*%
X151280380Y-93066666D02*
X150804190Y-93400000D01*
X151280380Y-93638095D02*
X150280380Y-93638095D01*
X150280380Y-93257142D01*
X150328000Y-93161904D01*
X150375619Y-93114285D01*
X150470857Y-93066666D01*
X150613714Y-93066666D01*
X150708952Y-93114285D01*
X150756571Y-93161904D01*
X150804190Y-93257142D01*
X150804190Y-93638095D01*
X150613714Y-92209523D02*
X151280380Y-92209523D01*
X150232761Y-92447619D02*
X150947047Y-92685714D01*
X150947047Y-92066666D01*
%TO.C,C11*%
X113741142Y-77046857D02*
X113788761Y-77094476D01*
X113836380Y-77237333D01*
X113836380Y-77332571D01*
X113788761Y-77475428D01*
X113693523Y-77570666D01*
X113598285Y-77618285D01*
X113407809Y-77665904D01*
X113264952Y-77665904D01*
X113074476Y-77618285D01*
X112979238Y-77570666D01*
X112884000Y-77475428D01*
X112836380Y-77332571D01*
X112836380Y-77237333D01*
X112884000Y-77094476D01*
X112931619Y-77046857D01*
X113836380Y-76094476D02*
X113836380Y-76665904D01*
X113836380Y-76380190D02*
X112836380Y-76380190D01*
X112979238Y-76475428D01*
X113074476Y-76570666D01*
X113122095Y-76665904D01*
X113836380Y-75142095D02*
X113836380Y-75713523D01*
X113836380Y-75427809D02*
X112836380Y-75427809D01*
X112979238Y-75523047D01*
X113074476Y-75618285D01*
X113122095Y-75713523D01*
%TO.C,C8*%
X152213333Y-136705142D02*
X152165714Y-136752761D01*
X152022857Y-136800380D01*
X151927619Y-136800380D01*
X151784761Y-136752761D01*
X151689523Y-136657523D01*
X151641904Y-136562285D01*
X151594285Y-136371809D01*
X151594285Y-136228952D01*
X151641904Y-136038476D01*
X151689523Y-135943238D01*
X151784761Y-135848000D01*
X151927619Y-135800380D01*
X152022857Y-135800380D01*
X152165714Y-135848000D01*
X152213333Y-135895619D01*
X152784761Y-136228952D02*
X152689523Y-136181333D01*
X152641904Y-136133714D01*
X152594285Y-136038476D01*
X152594285Y-135990857D01*
X152641904Y-135895619D01*
X152689523Y-135848000D01*
X152784761Y-135800380D01*
X152975238Y-135800380D01*
X153070476Y-135848000D01*
X153118095Y-135895619D01*
X153165714Y-135990857D01*
X153165714Y-136038476D01*
X153118095Y-136133714D01*
X153070476Y-136181333D01*
X152975238Y-136228952D01*
X152784761Y-136228952D01*
X152689523Y-136276571D01*
X152641904Y-136324190D01*
X152594285Y-136419428D01*
X152594285Y-136609904D01*
X152641904Y-136705142D01*
X152689523Y-136752761D01*
X152784761Y-136800380D01*
X152975238Y-136800380D01*
X153070476Y-136752761D01*
X153118095Y-136705142D01*
X153165714Y-136609904D01*
X153165714Y-136419428D01*
X153118095Y-136324190D01*
X153070476Y-136276571D01*
X152975238Y-136228952D01*
%TO.C,C13*%
X159865142Y-122601142D02*
X159817523Y-122648761D01*
X159674666Y-122696380D01*
X159579428Y-122696380D01*
X159436571Y-122648761D01*
X159341333Y-122553523D01*
X159293714Y-122458285D01*
X159246095Y-122267809D01*
X159246095Y-122124952D01*
X159293714Y-121934476D01*
X159341333Y-121839238D01*
X159436571Y-121744000D01*
X159579428Y-121696380D01*
X159674666Y-121696380D01*
X159817523Y-121744000D01*
X159865142Y-121791619D01*
X160817523Y-122696380D02*
X160246095Y-122696380D01*
X160531809Y-122696380D02*
X160531809Y-121696380D01*
X160436571Y-121839238D01*
X160341333Y-121934476D01*
X160246095Y-121982095D01*
X161150857Y-121696380D02*
X161769904Y-121696380D01*
X161436571Y-122077333D01*
X161579428Y-122077333D01*
X161674666Y-122124952D01*
X161722285Y-122172571D01*
X161769904Y-122267809D01*
X161769904Y-122505904D01*
X161722285Y-122601142D01*
X161674666Y-122648761D01*
X161579428Y-122696380D01*
X161293714Y-122696380D01*
X161198476Y-122648761D01*
X161150857Y-122601142D01*
%TO.C,U1*%
X143555380Y-103377904D02*
X144364904Y-103377904D01*
X144460142Y-103330285D01*
X144507761Y-103282666D01*
X144555380Y-103187428D01*
X144555380Y-102996952D01*
X144507761Y-102901714D01*
X144460142Y-102854095D01*
X144364904Y-102806476D01*
X143555380Y-102806476D01*
X144555380Y-101806476D02*
X144555380Y-102377904D01*
X144555380Y-102092190D02*
X143555380Y-102092190D01*
X143698238Y-102187428D01*
X143793476Y-102282666D01*
X143841095Y-102377904D01*
%TO.C,H2*%
X174773380Y-67817904D02*
X173773380Y-67817904D01*
X174249571Y-67817904D02*
X174249571Y-67246476D01*
X174773380Y-67246476D02*
X173773380Y-67246476D01*
X173868619Y-66817904D02*
X173821000Y-66770285D01*
X173773380Y-66675047D01*
X173773380Y-66436952D01*
X173821000Y-66341714D01*
X173868619Y-66294095D01*
X173963857Y-66246476D01*
X174059095Y-66246476D01*
X174201952Y-66294095D01*
X174773380Y-66865523D01*
X174773380Y-66246476D01*
%TO.C,R5*%
X135585380Y-94654666D02*
X135109190Y-94988000D01*
X135585380Y-95226095D02*
X134585380Y-95226095D01*
X134585380Y-94845142D01*
X134633000Y-94749904D01*
X134680619Y-94702285D01*
X134775857Y-94654666D01*
X134918714Y-94654666D01*
X135013952Y-94702285D01*
X135061571Y-94749904D01*
X135109190Y-94845142D01*
X135109190Y-95226095D01*
X134585380Y-93749904D02*
X134585380Y-94226095D01*
X135061571Y-94273714D01*
X135013952Y-94226095D01*
X134966333Y-94130857D01*
X134966333Y-93892761D01*
X135013952Y-93797523D01*
X135061571Y-93749904D01*
X135156809Y-93702285D01*
X135394904Y-93702285D01*
X135490142Y-93749904D01*
X135537761Y-93797523D01*
X135585380Y-93892761D01*
X135585380Y-94130857D01*
X135537761Y-94226095D01*
X135490142Y-94273714D01*
%TO.C,Q2*%
X121529619Y-89707238D02*
X121482000Y-89802476D01*
X121386761Y-89897714D01*
X121243904Y-90040571D01*
X121196285Y-90135809D01*
X121196285Y-90231047D01*
X121434380Y-90183428D02*
X121386761Y-90278666D01*
X121291523Y-90373904D01*
X121101047Y-90421523D01*
X120767714Y-90421523D01*
X120577238Y-90373904D01*
X120482000Y-90278666D01*
X120434380Y-90183428D01*
X120434380Y-89992952D01*
X120482000Y-89897714D01*
X120577238Y-89802476D01*
X120767714Y-89754857D01*
X121101047Y-89754857D01*
X121291523Y-89802476D01*
X121386761Y-89897714D01*
X121434380Y-89992952D01*
X121434380Y-90183428D01*
X120529619Y-89373904D02*
X120482000Y-89326285D01*
X120434380Y-89231047D01*
X120434380Y-88992952D01*
X120482000Y-88897714D01*
X120529619Y-88850095D01*
X120624857Y-88802476D01*
X120720095Y-88802476D01*
X120862952Y-88850095D01*
X121434380Y-89421523D01*
X121434380Y-88802476D01*
%TO.C,R2*%
X151333380Y-95670666D02*
X150857190Y-96004000D01*
X151333380Y-96242095D02*
X150333380Y-96242095D01*
X150333380Y-95861142D01*
X150381000Y-95765904D01*
X150428619Y-95718285D01*
X150523857Y-95670666D01*
X150666714Y-95670666D01*
X150761952Y-95718285D01*
X150809571Y-95765904D01*
X150857190Y-95861142D01*
X150857190Y-96242095D01*
X150428619Y-95289714D02*
X150381000Y-95242095D01*
X150333380Y-95146857D01*
X150333380Y-94908761D01*
X150381000Y-94813523D01*
X150428619Y-94765904D01*
X150523857Y-94718285D01*
X150619095Y-94718285D01*
X150761952Y-94765904D01*
X151333380Y-95337333D01*
X151333380Y-94718285D01*
%TO.C,R9*%
X169993333Y-98192380D02*
X169660000Y-97716190D01*
X169421904Y-98192380D02*
X169421904Y-97192380D01*
X169802857Y-97192380D01*
X169898095Y-97240000D01*
X169945714Y-97287619D01*
X169993333Y-97382857D01*
X169993333Y-97525714D01*
X169945714Y-97620952D01*
X169898095Y-97668571D01*
X169802857Y-97716190D01*
X169421904Y-97716190D01*
X170469523Y-98192380D02*
X170660000Y-98192380D01*
X170755238Y-98144761D01*
X170802857Y-98097142D01*
X170898095Y-97954285D01*
X170945714Y-97763809D01*
X170945714Y-97382857D01*
X170898095Y-97287619D01*
X170850476Y-97240000D01*
X170755238Y-97192380D01*
X170564761Y-97192380D01*
X170469523Y-97240000D01*
X170421904Y-97287619D01*
X170374285Y-97382857D01*
X170374285Y-97620952D01*
X170421904Y-97716190D01*
X170469523Y-97763809D01*
X170564761Y-97811428D01*
X170755238Y-97811428D01*
X170850476Y-97763809D01*
X170898095Y-97716190D01*
X170945714Y-97620952D01*
%TO.C,R6*%
X173177380Y-129198666D02*
X172701190Y-129532000D01*
X173177380Y-129770095D02*
X172177380Y-129770095D01*
X172177380Y-129389142D01*
X172225000Y-129293904D01*
X172272619Y-129246285D01*
X172367857Y-129198666D01*
X172510714Y-129198666D01*
X172605952Y-129246285D01*
X172653571Y-129293904D01*
X172701190Y-129389142D01*
X172701190Y-129770095D01*
X172177380Y-128341523D02*
X172177380Y-128532000D01*
X172225000Y-128627238D01*
X172272619Y-128674857D01*
X172415476Y-128770095D01*
X172605952Y-128817714D01*
X172986904Y-128817714D01*
X173082142Y-128770095D01*
X173129761Y-128722476D01*
X173177380Y-128627238D01*
X173177380Y-128436761D01*
X173129761Y-128341523D01*
X173082142Y-128293904D01*
X172986904Y-128246285D01*
X172748809Y-128246285D01*
X172653571Y-128293904D01*
X172605952Y-128341523D01*
X172558333Y-128436761D01*
X172558333Y-128627238D01*
X172605952Y-128722476D01*
X172653571Y-128770095D01*
X172748809Y-128817714D01*
D11*
%TO.C,J6*%
X173348000Y-127982500D02*
X173348000Y-138650500D01*
X187292000Y-127982500D02*
X187292000Y-138650500D01*
X187292000Y-138650500D02*
X173348000Y-138650500D01*
X173348000Y-127982500D02*
X187292000Y-127982500D01*
D12*
X175175000Y-139300500D02*
G75*
G03*
X175175000Y-139300500I-100000J0D01*
G01*
D13*
%TO.C,C5*%
X163048000Y-92830000D02*
X163048000Y-92140000D01*
X161628000Y-92140000D02*
X164468000Y-92140000D01*
X161628000Y-88100000D02*
X161628000Y-92140000D01*
X163048000Y-87410000D02*
X163048000Y-88100000D01*
X164468000Y-92140000D02*
X164468000Y-88100000D01*
X164468000Y-88100000D02*
X161628000Y-88100000D01*
D11*
%TO.C,J9*%
X173760500Y-88960000D02*
X187350500Y-88960000D01*
X173760500Y-97576000D02*
X173760500Y-99000000D01*
X187350500Y-88960000D02*
X187350500Y-99000000D01*
X173760500Y-88960000D02*
X173760500Y-90384000D01*
X187350500Y-99000000D02*
X173760500Y-99000000D01*
D12*
X173260500Y-91440000D02*
G75*
G03*
X173260500Y-91440000I-100000J0D01*
G01*
D13*
%TO.C,C2*%
X158017000Y-109537000D02*
X159099000Y-109537000D01*
X155192000Y-109137000D02*
X155937000Y-109137000D01*
X154973000Y-109377000D02*
X155937000Y-109377000D01*
X158017000Y-110698000D02*
X159538000Y-110698000D01*
X154667000Y-109857000D02*
X155937000Y-109857000D01*
X155726000Y-108737000D02*
X155937000Y-108737000D01*
X155477000Y-108897000D02*
X155937000Y-108897000D01*
X155502000Y-113822775D02*
X155502000Y-113322775D01*
X155879000Y-108657000D02*
X158075000Y-108657000D01*
X154404000Y-110818000D02*
X159550000Y-110818000D01*
X158017000Y-109657000D02*
X159177000Y-109657000D01*
X158017000Y-110217000D02*
X159432000Y-110217000D01*
X154412000Y-110738000D02*
X155937000Y-110738000D01*
X155534000Y-108857000D02*
X155937000Y-108857000D01*
X158017000Y-110618000D02*
X159527000Y-110618000D01*
X154942000Y-109417000D02*
X155937000Y-109417000D01*
X154579000Y-110057000D02*
X155937000Y-110057000D01*
X154828000Y-109577000D02*
X155937000Y-109577000D01*
X158017000Y-110257000D02*
X159445000Y-110257000D01*
X158017000Y-110418000D02*
X159488000Y-110418000D01*
X158017000Y-109417000D02*
X159012000Y-109417000D01*
X154399000Y-110898000D02*
X159555000Y-110898000D01*
X154408000Y-110778000D02*
X155937000Y-110778000D01*
X154401000Y-110858000D02*
X159553000Y-110858000D01*
X158017000Y-108857000D02*
X158420000Y-108857000D01*
X155040000Y-109297000D02*
X155937000Y-109297000D01*
X154457000Y-110458000D02*
X155937000Y-110458000D01*
X158017000Y-108817000D02*
X158360000Y-108817000D01*
X154709000Y-109777000D02*
X155937000Y-109777000D01*
X154912000Y-109457000D02*
X155937000Y-109457000D01*
X155234000Y-109097000D02*
X155937000Y-109097000D01*
X154421000Y-110658000D02*
X155937000Y-110658000D01*
X154434000Y-110578000D02*
X155937000Y-110578000D01*
X155113000Y-109217000D02*
X155937000Y-109217000D01*
X156693000Y-108417000D02*
X157261000Y-108417000D01*
X158017000Y-109737000D02*
X159224000Y-109737000D01*
X158017000Y-108977000D02*
X158582000Y-108977000D01*
X156062000Y-108577000D02*
X157892000Y-108577000D01*
X154882000Y-109497000D02*
X155937000Y-109497000D01*
X158017000Y-110458000D02*
X159497000Y-110458000D01*
X154730000Y-109737000D02*
X155937000Y-109737000D01*
X158017000Y-110578000D02*
X159520000Y-110578000D01*
X158017000Y-110177000D02*
X159419000Y-110177000D01*
X155278000Y-109057000D02*
X155937000Y-109057000D01*
X158017000Y-109857000D02*
X159287000Y-109857000D01*
X154497000Y-110297000D02*
X155937000Y-110297000D01*
X158017000Y-109057000D02*
X158676000Y-109057000D01*
X155324000Y-109017000D02*
X155937000Y-109017000D01*
X154441000Y-110538000D02*
X155937000Y-110538000D01*
X158017000Y-110498000D02*
X159505000Y-110498000D01*
X158017000Y-109337000D02*
X158948000Y-109337000D01*
X155658000Y-108777000D02*
X155937000Y-108777000D01*
X154777000Y-109657000D02*
X155937000Y-109657000D01*
X155372000Y-108977000D02*
X155937000Y-108977000D01*
X158017000Y-109017000D02*
X158630000Y-109017000D01*
X158017000Y-110658000D02*
X159533000Y-110658000D01*
X154753000Y-109697000D02*
X155937000Y-109697000D01*
X154629000Y-109937000D02*
X155937000Y-109937000D01*
X158017000Y-109577000D02*
X159126000Y-109577000D01*
X155252000Y-113572775D02*
X155752000Y-113572775D01*
X158017000Y-109217000D02*
X158841000Y-109217000D01*
X158017000Y-109817000D02*
X159267000Y-109817000D01*
X155076000Y-109257000D02*
X155937000Y-109257000D01*
X154563000Y-110097000D02*
X155937000Y-110097000D01*
X154427000Y-110618000D02*
X155937000Y-110618000D01*
X158017000Y-110338000D02*
X159468000Y-110338000D01*
X155151000Y-109177000D02*
X155937000Y-109177000D01*
X158017000Y-110097000D02*
X159391000Y-110097000D01*
X155966000Y-108617000D02*
X157988000Y-108617000D01*
X154549000Y-110137000D02*
X155937000Y-110137000D01*
X155006000Y-109337000D02*
X155937000Y-109337000D01*
X155423000Y-108937000D02*
X155937000Y-108937000D01*
X154486000Y-110338000D02*
X155937000Y-110338000D01*
X154612000Y-109977000D02*
X155937000Y-109977000D01*
X158017000Y-109777000D02*
X159245000Y-109777000D01*
X154416000Y-110698000D02*
X155937000Y-110698000D01*
X154509000Y-110257000D02*
X155937000Y-110257000D01*
X158017000Y-108737000D02*
X158228000Y-108737000D01*
X154855000Y-109537000D02*
X155937000Y-109537000D01*
X158017000Y-109897000D02*
X159306000Y-109897000D01*
X158017000Y-109097000D02*
X158720000Y-109097000D01*
X156459000Y-108457000D02*
X157495000Y-108457000D01*
X154687000Y-109817000D02*
X155937000Y-109817000D01*
X158017000Y-109457000D02*
X159042000Y-109457000D01*
X158017000Y-110778000D02*
X159546000Y-110778000D01*
X155799000Y-108697000D02*
X158155000Y-108697000D01*
X158017000Y-108897000D02*
X158477000Y-108897000D01*
X158017000Y-109137000D02*
X158762000Y-109137000D01*
X154595000Y-110017000D02*
X155937000Y-110017000D01*
X154449000Y-110498000D02*
X155937000Y-110498000D01*
X158017000Y-109377000D02*
X158981000Y-109377000D01*
X158017000Y-108937000D02*
X158531000Y-108937000D01*
X154522000Y-110217000D02*
X155937000Y-110217000D01*
X154648000Y-109897000D02*
X155937000Y-109897000D01*
X158017000Y-110017000D02*
X159359000Y-110017000D01*
X158017000Y-109297000D02*
X158914000Y-109297000D01*
X154398000Y-110938000D02*
X159556000Y-110938000D01*
X154397000Y-111018000D02*
X159557000Y-111018000D01*
X154466000Y-110418000D02*
X155937000Y-110418000D01*
X154802000Y-109617000D02*
X155937000Y-109617000D01*
X158017000Y-108777000D02*
X158296000Y-108777000D01*
X158017000Y-110057000D02*
X159375000Y-110057000D01*
X158017000Y-110137000D02*
X159405000Y-110137000D01*
X158017000Y-110297000D02*
X159457000Y-110297000D01*
X158017000Y-109257000D02*
X158878000Y-109257000D01*
X158017000Y-110378000D02*
X159478000Y-110378000D01*
X154476000Y-110378000D02*
X155937000Y-110378000D01*
X158017000Y-109177000D02*
X158803000Y-109177000D01*
X158017000Y-109977000D02*
X159342000Y-109977000D01*
X158017000Y-110738000D02*
X159542000Y-110738000D01*
X156300000Y-108497000D02*
X157654000Y-108497000D01*
X158017000Y-109697000D02*
X159201000Y-109697000D01*
X158017000Y-109617000D02*
X159152000Y-109617000D01*
X155594000Y-108817000D02*
X155937000Y-108817000D01*
X154535000Y-110177000D02*
X155937000Y-110177000D01*
X158017000Y-110538000D02*
X159513000Y-110538000D01*
X158017000Y-109497000D02*
X159072000Y-109497000D01*
X154397000Y-110978000D02*
X159557000Y-110978000D01*
X158017000Y-109937000D02*
X159325000Y-109937000D01*
X156172000Y-108537000D02*
X157782000Y-108537000D01*
X159597000Y-111018000D02*
G75*
G03*
X159597000Y-111018000I-2620000J0D01*
G01*
%TO.C,R3*%
X128641000Y-93568000D02*
X132481000Y-93568000D01*
X128641000Y-95408000D02*
X132481000Y-95408000D01*
%TO.C,C7*%
X141125000Y-95885000D02*
X141125000Y-95195000D01*
X142545000Y-95195000D02*
X142545000Y-91155000D01*
X141125000Y-90465000D02*
X141125000Y-91155000D01*
X139705000Y-91155000D02*
X139705000Y-95195000D01*
X142545000Y-91155000D02*
X139705000Y-91155000D01*
X139705000Y-95195000D02*
X142545000Y-95195000D01*
D10*
%TO.C,K1*%
X157530010Y-70140000D02*
X157530010Y-65570000D01*
X147280010Y-83075000D02*
X147230010Y-83075000D01*
X147230010Y-83075000D02*
X147230010Y-62775000D01*
X157530010Y-83075000D02*
X157480010Y-83075000D01*
X157530010Y-83075000D02*
X157530010Y-73190000D01*
X154655010Y-62775000D02*
X147230010Y-62775000D01*
X154880010Y-83075000D02*
X149880010Y-83075000D01*
D14*
X156305010Y-83675000D02*
G75*
G03*
X156305010Y-83675000I-125000J0D01*
G01*
D13*
%TO.C,R7*%
X152220000Y-133470000D02*
X152220000Y-129630000D01*
X150380000Y-133470000D02*
X150380000Y-129630000D01*
%TO.C,C6*%
X141050000Y-79765000D02*
X141050000Y-80455000D01*
X142470000Y-80455000D02*
X139630000Y-80455000D01*
X139630000Y-80455000D02*
X139630000Y-84495000D01*
X142470000Y-84495000D02*
X142470000Y-80455000D01*
X139630000Y-84495000D02*
X142470000Y-84495000D01*
X141050000Y-85185000D02*
X141050000Y-84495000D01*
%TO.C,C10*%
X169248000Y-140400000D02*
X172088000Y-140400000D01*
X172088000Y-136360000D02*
X169248000Y-136360000D01*
X172088000Y-140400000D02*
X172088000Y-136360000D01*
X170668000Y-141090000D02*
X170668000Y-140400000D01*
X169248000Y-136360000D02*
X169248000Y-140400000D01*
X170668000Y-135670000D02*
X170668000Y-136360000D01*
D10*
%TO.C,K2*%
X133449997Y-70140000D02*
X133449997Y-65570000D01*
X133449997Y-83075000D02*
X133399997Y-83075000D01*
X123149997Y-83075000D02*
X123149997Y-62775000D01*
X130574997Y-62775000D02*
X123149997Y-62775000D01*
X123199997Y-83075000D02*
X123149997Y-83075000D01*
X130799997Y-83075000D02*
X125799997Y-83075000D01*
X133449997Y-83075000D02*
X133449997Y-73190000D01*
D14*
X132224997Y-83675000D02*
G75*
G03*
X132224997Y-83675000I-125000J0D01*
G01*
D13*
%TO.C,C1*%
X166318000Y-75896000D02*
G75*
G03*
X166318000Y-75896000I-3270000J0D01*
G01*
%TO.C,D3*%
X125837004Y-86360000D02*
X126857004Y-86360000D01*
X131397004Y-87830000D02*
X131397004Y-84890000D01*
X132297004Y-84890000D02*
X126857004Y-84890000D01*
X126857004Y-87830000D02*
X132297004Y-87830000D01*
X131277004Y-87830000D02*
X131277004Y-84890000D01*
X126857004Y-84890000D02*
X126857004Y-87830000D01*
X131517004Y-87830000D02*
X131517004Y-84890000D01*
X132297004Y-87830000D02*
X132297004Y-84890000D01*
X133317004Y-86360000D02*
X132297004Y-86360000D01*
%TO.C,U2*%
X143745000Y-112886000D02*
X142745000Y-112886000D01*
X125505000Y-112886000D02*
X126505000Y-112886000D01*
X143745000Y-138631000D02*
X143745000Y-132211000D01*
X143745000Y-113666000D02*
X143745000Y-112886000D01*
X125505000Y-138631000D02*
X125505000Y-132211000D01*
X143745000Y-132211000D02*
X144125000Y-132211000D01*
X143745000Y-138631000D02*
X125505000Y-138631000D01*
X125505000Y-113666000D02*
X125505000Y-112886000D01*
%TO.C,D2*%
X155121000Y-87830000D02*
X155121000Y-84890000D01*
X149681000Y-86360000D02*
X150701000Y-86360000D01*
X150701000Y-84890000D02*
X150701000Y-87830000D01*
X157161000Y-86360000D02*
X156141000Y-86360000D01*
X156141000Y-87830000D02*
X156141000Y-84890000D01*
X150701000Y-87830000D02*
X156141000Y-87830000D01*
X155241000Y-87830000D02*
X155241000Y-84890000D01*
X155361000Y-87830000D02*
X155361000Y-84890000D01*
X156141000Y-84890000D02*
X150701000Y-84890000D01*
%TO.C,R8*%
X170556000Y-132492000D02*
X166716000Y-132492000D01*
X170556000Y-130652000D02*
X166716000Y-130652000D01*
%TO.C,C4*%
X165395000Y-116905000D02*
X161355000Y-116905000D01*
X161355000Y-119745000D02*
X165395000Y-119745000D01*
X161355000Y-116905000D02*
X161355000Y-119745000D01*
X165395000Y-119745000D02*
X165395000Y-116905000D01*
X160665000Y-118325000D02*
X161355000Y-118325000D01*
X166085000Y-118325000D02*
X165395000Y-118325000D01*
D15*
%TO.C,D1*%
X177446000Y-83694000D02*
X177696000Y-83694000D01*
X180146000Y-83694000D02*
X179896000Y-83694000D01*
X177446000Y-83694000D02*
G75*
G03*
X176954385Y-84298533I1349992J-1599994D01*
G01*
X179796000Y-87144000D02*
G75*
G03*
X180646000Y-86294000I-1000006J1850006D01*
G01*
X180646000Y-84294000D02*
G75*
G03*
X180152147Y-83686715I-1849997J-999998D01*
G01*
X176946000Y-86294000D02*
G75*
G03*
X177796000Y-87144000I1850006J1000006D01*
G01*
D13*
%TO.C,R11*%
X166208000Y-113392000D02*
X170048000Y-113392000D01*
X166208000Y-111552000D02*
X170048000Y-111552000D01*
%TO.C,C9*%
X116482000Y-136348000D02*
X115792000Y-136348000D01*
X115792000Y-134928000D02*
X111752000Y-134928000D01*
X111752000Y-134928000D02*
X111752000Y-137768000D01*
X115792000Y-137768000D02*
X115792000Y-134928000D01*
X111062000Y-136348000D02*
X111752000Y-136348000D01*
X111752000Y-137768000D02*
X115792000Y-137768000D01*
D11*
%TO.C,J5*%
X173760500Y-99120000D02*
X173760500Y-100544000D01*
X187350500Y-109160000D02*
X173760500Y-109160000D01*
X173760500Y-99120000D02*
X187350500Y-99120000D01*
X187350500Y-99120000D02*
X187350500Y-109160000D01*
X173760500Y-107736000D02*
X173760500Y-109160000D01*
D12*
X173260500Y-101600000D02*
G75*
G03*
X173260500Y-101600000I-100000J0D01*
G01*
D15*
%TO.C,J8*%
X124450003Y-61800008D02*
X124950003Y-61800008D01*
X134650003Y-61800008D02*
X134150003Y-61800008D01*
X134650003Y-61800008D02*
X134650003Y-61300008D01*
X134650003Y-57600008D02*
X134650003Y-58100008D01*
X134650003Y-57600008D02*
X134150003Y-57600008D01*
X124450003Y-57600008D02*
X124450003Y-58100008D01*
X124450003Y-61800008D02*
X124450003Y-61300008D01*
X124450003Y-57600008D02*
X124950003Y-57600008D01*
D11*
%TO.C,J11*%
X173787500Y-115306000D02*
X173787500Y-116730000D01*
X173787500Y-109230000D02*
X173787500Y-110654000D01*
X173787500Y-109230000D02*
X187377500Y-109230000D01*
X187377500Y-116730000D02*
X173787500Y-116730000D01*
X187377500Y-109230000D02*
X187377500Y-116730000D01*
D12*
X173287500Y-111710000D02*
G75*
G03*
X173287500Y-111710000I-100000J0D01*
G01*
D13*
%TO.C,R10*%
X169748000Y-118984000D02*
X169748000Y-122824000D01*
X171588000Y-118984000D02*
X171588000Y-122824000D01*
%TO.C,R1*%
X167732000Y-84628000D02*
X171572000Y-84628000D01*
X167732000Y-86468000D02*
X171572000Y-86468000D01*
D11*
%TO.C,J10*%
X187383400Y-117160200D02*
X187383400Y-127240200D01*
X173793400Y-118240200D02*
X173793400Y-117160200D01*
X173793400Y-127240200D02*
X173793400Y-125550200D01*
X173793400Y-117160200D02*
X187383400Y-117160200D01*
X187383400Y-127240200D02*
X173793400Y-127240200D01*
X173427400Y-119660200D02*
X172727400Y-119260200D01*
X172727400Y-119260200D02*
X172727400Y-120060200D01*
X172727400Y-120060200D02*
X173427400Y-119660200D01*
D13*
%TO.C,J4*%
X113578000Y-132090000D02*
X112248000Y-132090000D01*
X113578000Y-130760000D02*
X113578000Y-132090000D01*
X113578000Y-129490000D02*
X113578000Y-124350000D01*
X108378000Y-132090000D02*
X108378000Y-124350000D01*
X110978000Y-129490000D02*
X110978000Y-132090000D01*
X110978000Y-132090000D02*
X108378000Y-132090000D01*
X113578000Y-124350000D02*
X108378000Y-124350000D01*
X113578000Y-129490000D02*
X110978000Y-129490000D01*
%TO.C,C3*%
X150477000Y-119584000D02*
X151167000Y-119584000D01*
X151167000Y-121004000D02*
X155207000Y-121004000D01*
X155207000Y-121004000D02*
X155207000Y-118164000D01*
X155897000Y-119584000D02*
X155207000Y-119584000D01*
X151167000Y-118164000D02*
X151167000Y-121004000D01*
X155207000Y-118164000D02*
X151167000Y-118164000D01*
D11*
%TO.C,RV1*%
X167233800Y-145315600D02*
X167233800Y-138505600D01*
X163893800Y-145315600D02*
X167233800Y-145315600D01*
X167233800Y-138505600D02*
X163893800Y-138505600D01*
D12*
X162833800Y-145910600D02*
G75*
G03*
X162833800Y-145910600I-100000J0D01*
G01*
D13*
%TO.C,C12*%
X171490000Y-89445113D02*
X173006000Y-89445113D01*
X171490000Y-88524113D02*
X172697000Y-88524113D01*
X168479000Y-88124113D02*
X169410000Y-88124113D01*
X168415000Y-88204113D02*
X169410000Y-88204113D01*
X168665000Y-87924113D02*
X169410000Y-87924113D01*
X171490000Y-88124113D02*
X172421000Y-88124113D01*
X171490000Y-89325113D02*
X172986000Y-89325113D01*
X167939000Y-89205113D02*
X169410000Y-89205113D01*
X168250000Y-88444113D02*
X169410000Y-88444113D01*
X168140000Y-88644113D02*
X169410000Y-88644113D01*
X171490000Y-87564113D02*
X171769000Y-87564113D01*
X168513000Y-88084113D02*
X169410000Y-88084113D01*
X167982000Y-89044113D02*
X169410000Y-89044113D01*
X171490000Y-88884113D02*
X172864000Y-88884113D01*
X171490000Y-89004113D02*
X172905000Y-89004113D01*
X171490000Y-88324113D02*
X172572000Y-88324113D01*
X168275000Y-88404113D02*
X169410000Y-88404113D01*
X167889000Y-89485113D02*
X169410000Y-89485113D01*
X171490000Y-88364113D02*
X172599000Y-88364113D01*
X167871000Y-89725113D02*
X173029000Y-89725113D01*
X171490000Y-88284113D02*
X172545000Y-88284113D01*
X171490000Y-88924113D02*
X172878000Y-88924113D01*
X169645000Y-87324113D02*
X171255000Y-87324113D01*
X167914000Y-89325113D02*
X169410000Y-89325113D01*
X171490000Y-89165113D02*
X172951000Y-89165113D01*
X167995000Y-89004113D02*
X169410000Y-89004113D01*
X168008000Y-88964113D02*
X169410000Y-88964113D01*
X171490000Y-88564113D02*
X172718000Y-88564113D01*
X167885000Y-89525113D02*
X169410000Y-89525113D01*
X167877000Y-89605113D02*
X173023000Y-89605113D01*
X169272000Y-87484113D02*
X171628000Y-87484113D01*
X171490000Y-88444113D02*
X172650000Y-88444113D01*
X171490000Y-89205113D02*
X172961000Y-89205113D01*
X171490000Y-87924113D02*
X172235000Y-87924113D01*
X171490000Y-89084113D02*
X172930000Y-89084113D01*
X168160000Y-88604113D02*
X169410000Y-88604113D01*
X168896000Y-87724113D02*
X169410000Y-87724113D01*
X171490000Y-88004113D02*
X172314000Y-88004113D01*
X167894000Y-89445113D02*
X169410000Y-89445113D01*
X171490000Y-87804113D02*
X172103000Y-87804113D01*
X171490000Y-87724113D02*
X172004000Y-87724113D01*
X168203000Y-88524113D02*
X169410000Y-88524113D01*
X168549000Y-88044113D02*
X169410000Y-88044113D01*
X167907000Y-89365113D02*
X169410000Y-89365113D01*
X167959000Y-89125113D02*
X169410000Y-89125113D01*
X168950000Y-87684113D02*
X169410000Y-87684113D01*
X168052000Y-88844113D02*
X169410000Y-88844113D01*
X171490000Y-87884113D02*
X172193000Y-87884113D01*
X167970000Y-89084113D02*
X169410000Y-89084113D01*
X171490000Y-89485113D02*
X173011000Y-89485113D01*
X171490000Y-88644113D02*
X172760000Y-88644113D01*
X171490000Y-87844113D02*
X172149000Y-87844113D01*
X171490000Y-89405113D02*
X173000000Y-89405113D01*
X168725000Y-92359888D02*
X169225000Y-92359888D01*
X168845000Y-87764113D02*
X169410000Y-87764113D01*
X168707000Y-87884113D02*
X169410000Y-87884113D01*
X168226000Y-88484113D02*
X169410000Y-88484113D01*
X167870000Y-89805113D02*
X173030000Y-89805113D01*
X169932000Y-87244113D02*
X170968000Y-87244113D01*
X168624000Y-87964113D02*
X169410000Y-87964113D01*
X168355000Y-88284113D02*
X169410000Y-88284113D01*
X171490000Y-88484113D02*
X172674000Y-88484113D01*
X167881000Y-89565113D02*
X169410000Y-89565113D01*
X169535000Y-87364113D02*
X171365000Y-87364113D01*
X168385000Y-88244113D02*
X169410000Y-88244113D01*
X171490000Y-89125113D02*
X172941000Y-89125113D01*
X171490000Y-88764113D02*
X172815000Y-88764113D01*
X171490000Y-88844113D02*
X172848000Y-88844113D01*
X171490000Y-89285113D02*
X172978000Y-89285113D01*
X170166000Y-87204113D02*
X170734000Y-87204113D01*
X169067000Y-87604113D02*
X169410000Y-87604113D01*
X168182000Y-88564113D02*
X169410000Y-88564113D01*
X168586000Y-88004113D02*
X169410000Y-88004113D01*
X171490000Y-87604113D02*
X171833000Y-87604113D01*
X171490000Y-88044113D02*
X172351000Y-88044113D01*
X168102000Y-88724113D02*
X169410000Y-88724113D01*
X168121000Y-88684113D02*
X169410000Y-88684113D01*
X167872000Y-89685113D02*
X173028000Y-89685113D01*
X167900000Y-89405113D02*
X169410000Y-89405113D01*
X171490000Y-88404113D02*
X172625000Y-88404113D01*
X169773000Y-87284113D02*
X171127000Y-87284113D01*
X167922000Y-89285113D02*
X169410000Y-89285113D01*
X171490000Y-87764113D02*
X172055000Y-87764113D01*
X171490000Y-88244113D02*
X172515000Y-88244113D01*
X171490000Y-89044113D02*
X172918000Y-89044113D01*
X168328000Y-88324113D02*
X169410000Y-88324113D01*
X171490000Y-88084113D02*
X172387000Y-88084113D01*
X168022000Y-88924113D02*
X169410000Y-88924113D01*
X168751000Y-87844113D02*
X169410000Y-87844113D01*
X171490000Y-88204113D02*
X172485000Y-88204113D01*
X171490000Y-89525113D02*
X173015000Y-89525113D01*
X168301000Y-88364113D02*
X169410000Y-88364113D01*
X169439000Y-87404113D02*
X171461000Y-87404113D01*
X169007000Y-87644113D02*
X169410000Y-87644113D01*
X168085000Y-88764113D02*
X169410000Y-88764113D01*
X168036000Y-88884113D02*
X169410000Y-88884113D01*
X167870000Y-89765113D02*
X173030000Y-89765113D01*
X171490000Y-87644113D02*
X171893000Y-87644113D01*
X168797000Y-87804113D02*
X169410000Y-87804113D01*
X169352000Y-87444113D02*
X171548000Y-87444113D01*
X171490000Y-89365113D02*
X172993000Y-89365113D01*
X168068000Y-88804113D02*
X169410000Y-88804113D01*
X167949000Y-89165113D02*
X169410000Y-89165113D01*
X171490000Y-89565113D02*
X173019000Y-89565113D01*
X171490000Y-88684113D02*
X172779000Y-88684113D01*
X167930000Y-89245113D02*
X169410000Y-89245113D01*
X169199000Y-87524113D02*
X169410000Y-87524113D01*
X168446000Y-88164113D02*
X169410000Y-88164113D01*
X168975000Y-92609888D02*
X168975000Y-92109888D01*
X171490000Y-88604113D02*
X172740000Y-88604113D01*
X171490000Y-87964113D02*
X172276000Y-87964113D01*
X171490000Y-88164113D02*
X172454000Y-88164113D01*
X171490000Y-88804113D02*
X172832000Y-88804113D01*
X167874000Y-89645113D02*
X173026000Y-89645113D01*
X171490000Y-88964113D02*
X172892000Y-88964113D01*
X169131000Y-87564113D02*
X169410000Y-87564113D01*
X171490000Y-87684113D02*
X171950000Y-87684113D01*
X171490000Y-88724113D02*
X172798000Y-88724113D01*
X171490000Y-87524113D02*
X171701000Y-87524113D01*
X171490000Y-89245113D02*
X172970000Y-89245113D01*
X173070000Y-89805113D02*
G75*
G03*
X173070000Y-89805113I-2620000J0D01*
G01*
%TO.C,J2*%
X141224000Y-101286000D02*
X142554000Y-101286000D01*
X139954000Y-101286000D02*
X129734000Y-101286000D01*
X142554000Y-106486000D02*
X129734000Y-106486000D01*
X139954000Y-101286000D02*
X139954000Y-103886000D01*
X142554000Y-101286000D02*
X142554000Y-102616000D01*
X139954000Y-103886000D02*
X142554000Y-103886000D01*
X129734000Y-101286000D02*
X129734000Y-106486000D01*
X142554000Y-103886000D02*
X142554000Y-106486000D01*
%TO.C,C14*%
X169248000Y-103340000D02*
X169248000Y-107380000D01*
X172088000Y-103340000D02*
X169248000Y-103340000D01*
X170668000Y-108070000D02*
X170668000Y-107380000D01*
X170668000Y-102650000D02*
X170668000Y-103340000D01*
X172088000Y-107380000D02*
X172088000Y-103340000D01*
X169248000Y-107380000D02*
X172088000Y-107380000D01*
%TO.C,U3*%
X159009000Y-133624000D02*
X157059000Y-133624000D01*
X159009000Y-128504000D02*
X160959000Y-128504000D01*
X159009000Y-133624000D02*
X162459000Y-133624000D01*
X159009000Y-128504000D02*
X157059000Y-128504000D01*
%TO.C,J3*%
X108886000Y-114310000D02*
X111546000Y-114310000D01*
X111546000Y-81230000D02*
X111546000Y-114310000D01*
X108886000Y-79960000D02*
X108886000Y-78630000D01*
X108886000Y-81230000D02*
X111546000Y-81230000D01*
X108886000Y-78630000D02*
X110216000Y-78630000D01*
X108886000Y-81230000D02*
X108886000Y-114310000D01*
D15*
%TO.C,J1*%
X171666000Y-72658000D02*
X171666000Y-73158000D01*
X178966000Y-72658000D02*
X179966000Y-72658000D01*
X186266000Y-72658000D02*
X185766000Y-72658000D01*
X186266000Y-81858000D02*
X185766000Y-81858000D01*
X178966000Y-81858000D02*
X179966000Y-81858000D01*
X171666000Y-81858000D02*
X171666000Y-81358000D01*
X171666000Y-81858000D02*
X172166000Y-81858000D01*
X177266000Y-76058000D02*
X177266000Y-78458000D01*
X171666000Y-72658000D02*
X172166000Y-72658000D01*
X186266000Y-72658000D02*
X186266000Y-73158000D01*
X186266000Y-81858000D02*
X186266000Y-81358000D01*
%TO.C,Q1*%
X149975000Y-94950000D02*
X149975000Y-95250000D01*
X149975000Y-90550000D02*
X149975000Y-90850000D01*
X149975000Y-90550000D02*
X149675000Y-90400000D01*
X149975000Y-95250000D02*
X149675000Y-95400000D01*
D10*
X146825000Y-90950000D02*
G75*
G03*
X146775000Y-94800000I1900000J-1950000D01*
G01*
D13*
%TO.C,R4*%
X157320000Y-91980000D02*
X153480000Y-91980000D01*
X157320000Y-93820000D02*
X153480000Y-93820000D01*
%TO.C,C11*%
X117224000Y-78424000D02*
X117224000Y-74384000D01*
X114384000Y-74384000D02*
X114384000Y-78424000D01*
X117224000Y-74384000D02*
X114384000Y-74384000D01*
X115804000Y-73694000D02*
X115804000Y-74384000D01*
X115804000Y-79114000D02*
X115804000Y-78424000D01*
X114384000Y-78424000D02*
X117224000Y-78424000D01*
%TO.C,C8*%
X161694000Y-136348000D02*
X161004000Y-136348000D01*
X161004000Y-134928000D02*
X156964000Y-134928000D01*
X161004000Y-137768000D02*
X161004000Y-134928000D01*
X156964000Y-134928000D02*
X156964000Y-137768000D01*
X156964000Y-137768000D02*
X161004000Y-137768000D01*
X156274000Y-136348000D02*
X156964000Y-136348000D01*
%TO.C,C13*%
X158488000Y-123244000D02*
X158488000Y-126084000D01*
X157798000Y-124664000D02*
X158488000Y-124664000D01*
X162528000Y-123244000D02*
X158488000Y-123244000D01*
X158488000Y-126084000D02*
X162528000Y-126084000D01*
X162528000Y-126084000D02*
X162528000Y-123244000D01*
X163218000Y-124664000D02*
X162528000Y-124664000D01*
%TO.C,U1*%
X160993000Y-97496000D02*
X160993000Y-107736000D01*
X151503000Y-97496000D02*
X151503000Y-107736000D01*
X146463000Y-107736000D02*
X145263000Y-107736000D01*
X146463000Y-97496000D02*
X145263000Y-97496000D01*
X163533000Y-105156000D02*
X160993000Y-105156000D01*
X151263000Y-107736000D02*
X150063000Y-107736000D01*
X163533000Y-102616000D02*
X160993000Y-102616000D01*
X145103000Y-102296000D02*
X145103000Y-103496000D01*
X145103000Y-107096000D02*
X145103000Y-107736000D01*
X145103000Y-97496000D02*
X145103000Y-98696000D01*
X145103000Y-99895000D02*
X145103000Y-101096000D01*
X160993000Y-107736000D02*
X151503000Y-107736000D01*
X163533000Y-100076000D02*
X160993000Y-100076000D01*
X145103000Y-104696000D02*
X145103000Y-105896000D01*
X160993000Y-97496000D02*
X151503000Y-97496000D01*
X148863000Y-97496000D02*
X147663000Y-97496000D01*
X151263000Y-97496000D02*
X150063000Y-97496000D01*
X148863000Y-107736000D02*
X147663000Y-107736000D01*
%TO.C,R5*%
X132481000Y-91028000D02*
X128641000Y-91028000D01*
X132481000Y-92868000D02*
X128641000Y-92868000D01*
D15*
%TO.C,Q2*%
X125932000Y-94298000D02*
X125632000Y-94448000D01*
X125932000Y-89598000D02*
X125932000Y-89898000D01*
X125932000Y-93998000D02*
X125932000Y-94298000D01*
X125932000Y-89598000D02*
X125632000Y-89448000D01*
D10*
X122782000Y-89998000D02*
G75*
G03*
X122732000Y-93848000I1900000J-1950000D01*
G01*
D13*
%TO.C,R2*%
X153533000Y-96424000D02*
X157373000Y-96424000D01*
X153533000Y-94584000D02*
X157373000Y-94584000D01*
%TO.C,R9*%
X168240000Y-96628000D02*
X172080000Y-96628000D01*
X168240000Y-94788000D02*
X172080000Y-94788000D01*
%TD*%
M02*
