M48
; DRILL file {KiCad (6.0.2)} date Mon Mar 14 20:10:18 2022
; FORMAT={-:-/ absolute / inch / decimal}
; #@! TF.CreationDate,2022-03-14T20:10:18-04:00
; #@! TF.GenerationSoftware,Kicad,Pcbnew,(6.0.2)
; #@! TF.FileFunction,Plated,1,2,PTH
FMAT,2
INCH
; #@! TA.AperFunction,Plated,PTH,ComponentDrill
T1C0.0217
; #@! TA.AperFunction,Plated,PTH,ComponentDrill
T2C0.0276
; #@! TA.AperFunction,Plated,PTH,ComponentDrill
T3C0.0315
; #@! TA.AperFunction,Plated,PTH,ViaDrill
T4C0.0350
; #@! TA.AperFunction,Plated,PTH,ComponentDrill
T5C0.0350
; #@! TA.AperFunction,Plated,PTH,ComponentDrill
T6C0.0394
; #@! TA.AperFunction,Plated,PTH,ComponentDrill
T7C0.0429
; #@! TA.AperFunction,Plated,PTH,ComponentDrill
T8C0.0433
; #@! TA.AperFunction,Plated,PTH,ComponentDrill
T9C0.0472
; #@! TA.AperFunction,Plated,PTH,ComponentDrill
T10C0.0512
; #@! TA.AperFunction,Plated,PTH,ComponentDrill
T11C0.0591
; #@! TA.AperFunction,Plated,PTH,ComponentDrill
T12C0.1378
%
G90
G05
T1
X4.895Y-3.57
X4.895Y-3.62
X4.895Y-3.67
X5.8415Y-3.6075
X5.8415Y-3.6575
X5.8415Y-3.7075
T2
X5.0402Y-3.62
X5.0402Y-3.72
X5.2402Y-3.62
X5.2402Y-3.72
X5.9567Y-5.0791
X5.9567Y-5.2791
X6.0181Y-3.6575
X6.0202Y-3.76
X6.2181Y-3.6575
X6.2202Y-3.76
X6.5192Y-4.428
X6.5392Y-5.18
X6.5402Y-5.1
X6.5792Y-3.368
X6.5992Y-3.768
X6.7192Y-4.428
X6.7192Y-4.66
X6.7192Y-4.86
X6.7392Y-5.18
X6.7402Y-5.1
X6.7792Y-3.368
X6.7992Y-3.768
T3
X4.3316Y-5.368
X4.5592Y-2.8604
X4.5592Y-3.1557
X4.6269Y-5.368
X5.5531Y-3.0994
X5.5531Y-3.3947
X5.5561Y-3.5207
X5.5561Y-3.8159
X5.8833Y-4.708
X6.1116Y-5.368
X6.1716Y-4.908
X6.1786Y-4.708
X6.1802Y-4.3216
X6.1802Y-4.42
X6.2844Y-4.6585
X6.4069Y-5.368
X6.4192Y-2.9388
X6.4192Y-3.0372
X6.4192Y-3.4004
X6.4192Y-3.6957
X6.4669Y-4.908
X6.5797Y-4.6585
X6.7106Y-3.4864
X6.7106Y-3.5848
X6.7192Y-4.0004
X6.7192Y-4.2957
X6.7192Y-5.3004
X6.7192Y-5.5957
T4
X4.2192Y-3.648
X4.3392Y-4.588
X4.4937Y-3.8735
X4.5062Y-4.248
X4.5437Y-4.0035
X4.5583Y-3.669
X4.5992Y-3.488
X4.6992Y-4.848
X4.7002Y-3.86
X4.7064Y-3.7408
X4.7249Y-4.9353
X4.8602Y-4.46
X5.3592Y-4.288
X5.4792Y-4.3182
X5.756Y-4.3722
X5.7602Y-5.04
X5.7992Y-4.788
X5.8119Y-5.1083
X5.8392Y-4.868
X5.8402Y-4.38
X5.8402Y-4.64
X5.8802Y-4.44
X5.8802Y-4.52
X5.9002Y-4.3
X6.0592Y-5.228
X6.3602Y-4.42
X6.5792Y-3.668
T5
X6.8811Y-3.6
X6.8811Y-3.7
X6.8811Y-3.8
X6.8811Y-4.0
X6.8811Y-4.1
X6.8811Y-4.2
X6.8822Y-4.398
X6.8822Y-4.498
X6.8927Y-5.1487
X6.8927Y-5.2487
X6.8927Y-5.3487
T6
X4.3192Y-4.948
X4.3192Y-5.048
X4.3192Y-5.148
X4.3392Y-3.148
X4.3392Y-3.248
X4.3392Y-3.348
X4.3392Y-3.448
X4.3392Y-3.548
X4.3392Y-3.648
X4.3392Y-3.748
X4.3392Y-3.848
X4.3392Y-3.948
X4.3392Y-4.048
X4.3392Y-4.148
X4.3392Y-4.248
X4.3392Y-4.348
X4.3392Y-4.448
X4.4192Y-4.948
X4.4192Y-5.048
X4.4192Y-5.148
X5.16Y-4.04
X5.16Y-4.14
X5.26Y-4.04
X5.26Y-4.14
X5.36Y-4.04
X5.36Y-4.14
X5.46Y-4.04
X5.46Y-4.14
X5.56Y-4.04
X5.56Y-4.14
X7.0392Y-3.308
X7.0392Y-3.408
T7
X6.8702Y-4.711
X6.8702Y-4.811
X6.8702Y-4.911
T8
X4.9015Y-3.4
X5.3015Y-3.4
X5.8402Y-3.4
X6.2402Y-3.4
X6.3084Y-5.587
X6.4068Y-5.4886
X6.4068Y-5.6855
X6.4836Y-3.94
X6.4836Y-4.04
X6.4836Y-4.14
T9
X4.9016Y-3.2215
X5.2008Y-3.2215
X5.8496Y-3.2215
X6.1488Y-3.2215
T10
X5.002Y-2.3504
X5.1988Y-2.3504
X5.9528Y-2.3524
X6.1496Y-2.3524
T11
X5.2008Y-2.5215
X5.2008Y-2.8215
X6.1488Y-2.5215
X6.1488Y-2.8215
T12
X4.5602Y-2.64
X4.5602Y-5.6107
X5.8277Y-4.04
X7.0402Y-2.64
X7.0402Y-5.6107
T6
G00X6.79Y-3.0298
M15
G01X6.79Y-3.0535
M16
G05
G00X6.9199Y-2.8566
M15
G01X6.8963Y-2.8566
M16
G05
G00X7.0262Y-3.0298
M15
G01X7.0262Y-3.0535
M16
G05
T0
M30
