M48
; DRILL file {KiCad (6.0.2)} date Fri Mar 18 09:14:34 2022
; FORMAT={-:-/ absolute / inch / decimal}
; #@! TF.CreationDate,2022-03-18T09:14:34-04:00
; #@! TF.GenerationSoftware,Kicad,Pcbnew,(6.0.2)
; #@! TF.FileFunction,Plated,1,2,PTH
FMAT,2
INCH
; #@! TA.AperFunction,Plated,PTH,ComponentDrill
T1C0.0217
; #@! TA.AperFunction,Plated,PTH,ComponentDrill
T2C0.0276
; #@! TA.AperFunction,Plated,PTH,ComponentDrill
T3C0.0315
; #@! TA.AperFunction,Plated,PTH,ViaDrill
T4C0.0350
; #@! TA.AperFunction,Plated,PTH,ComponentDrill
T5C0.0350
; #@! TA.AperFunction,Plated,PTH,ViaDrill
T6C0.0394
; #@! TA.AperFunction,Plated,PTH,ComponentDrill
T7C0.0394
; #@! TA.AperFunction,Plated,PTH,ComponentDrill
T8C0.0429
; #@! TA.AperFunction,Plated,PTH,ComponentDrill
T9C0.0433
; #@! TA.AperFunction,Plated,PTH,ComponentDrill
T10C0.0472
; #@! TA.AperFunction,Plated,PTH,ComponentDrill
T11C0.0512
; #@! TA.AperFunction,Plated,PTH,ComponentDrill
T12C0.0591
; #@! TA.AperFunction,Plated,PTH,ComponentDrill
T13C0.1378
%
G90
G05
T1
X4.834Y-3.538
X4.834Y-3.588
X4.834Y-3.638
X5.719Y-3.628
X5.719Y-3.678
X5.719Y-3.728
T2
X5.0392Y-3.508
X5.0392Y-3.643
X5.2392Y-3.508
X5.2392Y-3.643
X5.9292Y-3.618
X5.9292Y-3.753
X5.9642Y-5.063
X5.9642Y-5.263
X6.1292Y-3.618
X6.1292Y-3.753
X6.4942Y-3.763
X6.5192Y-4.428
X6.5392Y-5.053
X6.5392Y-5.18
X6.5842Y-3.288
X6.6942Y-3.763
X6.7192Y-4.428
X6.7392Y-5.053
X6.7392Y-5.18
X6.7442Y-4.663
X6.7442Y-4.863
X6.7842Y-3.288
T3
X4.2516Y-5.368
X4.5469Y-5.368
X4.5592Y-2.8604
X4.5592Y-3.1557
X5.4592Y-3.0604
X5.4592Y-3.3557
X5.4592Y-3.5004
X5.4592Y-3.7957
X5.8833Y-4.673
X5.9816Y-5.433
X6.1766Y-4.943
X6.1786Y-4.673
X6.1802Y-4.3216
X6.1802Y-4.42
X6.2769Y-5.433
X6.3166Y-4.668
X6.3642Y-3.3904
X6.3642Y-3.6857
X6.3992Y-2.9388
X6.3992Y-3.0372
X6.4719Y-4.943
X6.5942Y-3.4421
X6.5942Y-3.5405
X6.6119Y-4.668
X6.7192Y-4.0004
X6.7192Y-4.2957
X6.7392Y-5.3504
X6.7392Y-5.6457
T4
X6.5292Y-3.658
T5
X6.9622Y-3.6
X6.9622Y-3.7
X6.9622Y-3.8
X6.9622Y-4.0
X6.9622Y-4.1
X6.9622Y-4.2
X6.9622Y-4.398
X6.9622Y-4.498
X6.9727Y-5.1487
X6.9727Y-5.2487
X6.9727Y-5.3487
T6
X4.2192Y-3.648
X4.3392Y-4.588
X4.4792Y-3.848
X4.4792Y-4.068
X4.4792Y-4.268
X4.4992Y-3.448
X4.4992Y-3.6797
X4.5992Y-3.348
X4.5992Y-3.748
X4.6192Y-4.788
X4.6392Y-4.908
X4.8685Y-4.368
X5.3592Y-4.288
X5.4792Y-4.3182
X5.6342Y-4.388
X5.6992Y-4.293
X5.7592Y-4.998
X5.7977Y-4.3886
X5.7984Y-4.2894
X5.8119Y-5.1083
X5.8192Y-4.783
X5.9042Y-4.863
X5.9392Y-4.448
X6.0392Y-4.538
X6.3602Y-4.42
T7
X4.2494Y-5.0074
X4.2494Y-5.1074
X4.2494Y-5.2074
X4.3392Y-3.148
X4.3392Y-3.248
X4.3392Y-3.348
X4.3392Y-3.448
X4.3392Y-3.548
X4.3392Y-3.648
X4.3392Y-3.748
X4.3392Y-3.848
X4.3392Y-3.948
X4.3392Y-4.048
X4.3392Y-4.148
X4.3392Y-4.248
X4.3392Y-4.348
X4.3392Y-4.448
X4.3494Y-5.0074
X4.3494Y-5.1074
X4.3494Y-5.2074
X5.16Y-4.04
X5.16Y-4.14
X5.26Y-4.04
X5.26Y-4.14
X5.36Y-4.04
X5.36Y-4.14
X5.46Y-4.04
X5.46Y-4.14
X5.56Y-4.04
X5.56Y-4.14
X7.0392Y-3.308
X7.0392Y-3.408
T8
X6.9596Y-4.711
X6.9596Y-4.811
X6.9596Y-4.911
T9
X4.9015Y-3.368
X5.3015Y-3.368
X5.7192Y-3.388
X5.981Y-5.6552
X6.0794Y-5.5568
X6.1192Y-3.388
X6.1779Y-5.6552
X6.4836Y-3.94
X6.4836Y-4.04
X6.4836Y-4.14
T10
X4.9016Y-3.2215
X5.2008Y-3.2215
X5.8496Y-3.2215
X6.1488Y-3.2215
T11
X5.002Y-2.3504
X5.1988Y-2.3504
X5.9528Y-2.3524
X6.1496Y-2.3524
T12
X5.2008Y-2.5215
X5.2008Y-2.8215
X6.1488Y-2.5215
X6.1488Y-2.8215
T13
X4.5602Y-2.64
X4.5602Y-5.6107
X5.8277Y-4.04
X7.0402Y-2.64
X7.0402Y-5.6107
T7
G00X6.9292Y-3.0429
M15
G01X6.9292Y-3.0665
M16
G05
G00X7.0591Y-2.8696
M15
G01X7.0355Y-2.8696
M16
G05
G00X7.1654Y-3.0429
M15
G01X7.1654Y-3.0665
M16
G05
T0
M30
