%TF.GenerationSoftware,KiCad,Pcbnew,(6.0.2)*%
%TF.CreationDate,2022-03-18T09:14:39-04:00*%
%TF.ProjectId,Sedna_Hardware,5365646e-615f-4486-9172-64776172652e,1*%
%TF.SameCoordinates,Original*%
%TF.FileFunction,Soldermask,Top*%
%TF.FilePolarity,Negative*%
%FSLAX46Y46*%
G04 Gerber Fmt 4.6, Leading zero omitted, Abs format (unit mm)*
G04 Created by KiCad (PCBNEW (6.0.2)) date 2022-03-18 09:14:39*
%MOMM*%
%LPD*%
G01*
G04 APERTURE LIST*
G04 Aperture macros list*
%AMRoundRect*
0 Rectangle with rounded corners*
0 $1 Rounding radius*
0 $2 $3 $4 $5 $6 $7 $8 $9 X,Y pos of 4 corners*
0 Add a 4 corners polygon primitive as box body*
4,1,4,$2,$3,$4,$5,$6,$7,$8,$9,$2,$3,0*
0 Add four circle primitives for the rounded corners*
1,1,$1+$1,$2,$3*
1,1,$1+$1,$4,$5*
1,1,$1+$1,$6,$7*
1,1,$1+$1,$8,$9*
0 Add four rect primitives between the rounded corners*
20,1,$1+$1,$2,$3,$4,$5,0*
20,1,$1+$1,$4,$5,$6,$7,0*
20,1,$1+$1,$6,$7,$8,$9,0*
20,1,$1+$1,$8,$9,$2,$3,0*%
G04 Aperture macros list end*
%ADD10C,0.796200*%
%ADD11C,0.010000*%
%ADD12R,2.000000X2.000000*%
%ADD13C,2.000000*%
%ADD14O,2.000000X2.000000*%
%ADD15C,7.000000*%
%ADD16R,2.200000X2.200000*%
%ADD17O,2.200000X2.200000*%
%ADD18R,3.000000X0.900000*%
%ADD19R,0.900000X3.000000*%
%ADD20R,5.000000X5.000000*%
%ADD21R,2.300000X2.300000*%
%ADD22C,2.300000*%
%ADD23RoundRect,0.150000X1.100000X0.150000X-1.100000X0.150000X-1.100000X-0.150000X1.100000X-0.150000X0*%
%ADD24R,2.000000X1.700000*%
%ADD25O,2.000000X1.700000*%
%ADD26R,2.000000X2.600000*%
%ADD27R,2.600000X2.000000*%
%ADD28R,2.000000X1.000000*%
%ADD29O,2.000000X1.000000*%
%ADD30O,3.500000X3.500000*%
G04 APERTURE END LIST*
D10*
%TO.C,J10*%
X177173100Y-124740200D02*
G75*
G03*
X177173100Y-124740200I-398100J0D01*
G01*
X177173100Y-122200200D02*
G75*
G03*
X177173100Y-122200200I-398100J0D01*
G01*
D11*
X175978800Y-120456400D02*
X175978800Y-118864000D01*
X175978800Y-118864000D02*
X177571200Y-118864000D01*
X177571200Y-118864000D02*
X177571200Y-120456400D01*
X177571200Y-120456400D02*
X175978800Y-120456400D01*
G36*
X177571200Y-120456400D02*
G01*
X175978800Y-120456400D01*
X175978800Y-118864000D01*
X177571200Y-118864000D01*
X177571200Y-120456400D01*
G37*
X177571200Y-120456400D02*
X175978800Y-120456400D01*
X175978800Y-118864000D01*
X177571200Y-118864000D01*
X177571200Y-120456400D01*
%TD*%
D12*
%TO.C,J6*%
X177107000Y-135856500D03*
D13*
X177107000Y-133316500D03*
X177107000Y-130776500D03*
%TD*%
%TO.C,C5*%
X161651000Y-86116000D03*
D14*
X161651000Y-93616000D03*
%TD*%
D12*
%TO.C,J9*%
X176839500Y-91440000D03*
D13*
X176839500Y-93980000D03*
X176839500Y-96520000D03*
%TD*%
D12*
%TO.C,C2*%
X156977000Y-112268000D03*
D13*
X156977000Y-109768000D03*
%TD*%
%TO.C,R3*%
X127996000Y-92533000D03*
D14*
X133076000Y-92533000D03*
%TD*%
D13*
%TO.C,C7*%
X138664000Y-96410000D03*
D14*
X138664000Y-88910000D03*
%TD*%
D15*
%TO.C,H3*%
X178821000Y-142511755D03*
%TD*%
D13*
%TO.C,R7*%
X151491000Y-133681000D03*
D14*
X151491000Y-128601000D03*
%TD*%
D13*
%TO.C,C6*%
X138664000Y-85234000D03*
D14*
X138664000Y-77734000D03*
%TD*%
D13*
%TO.C,C10*%
X171176000Y-135900000D03*
D14*
X171176000Y-143400000D03*
%TD*%
D15*
%TO.C,H4*%
X115829000Y-142511762D03*
%TD*%
D13*
%TO.C,C1*%
X162540000Y-77146000D03*
X162540000Y-74646000D03*
%TD*%
D16*
%TO.C,D3*%
X134657004Y-85548000D03*
D17*
X124497004Y-85548000D03*
%TD*%
D18*
%TO.C,U2*%
X143125000Y-131021000D03*
X143125000Y-129751000D03*
X143125000Y-128481000D03*
X143125000Y-127211000D03*
X143125000Y-125941000D03*
X143125000Y-124671000D03*
X143125000Y-123401000D03*
X143125000Y-122131000D03*
X143125000Y-120861000D03*
X143125000Y-119591000D03*
X143125000Y-118321000D03*
X143125000Y-117051000D03*
X143125000Y-115781000D03*
X143125000Y-114511000D03*
D19*
X140340000Y-113511000D03*
X139070000Y-113511000D03*
X137800000Y-113511000D03*
X136530000Y-113511000D03*
X135260000Y-113511000D03*
X133990000Y-113511000D03*
X132720000Y-113511000D03*
X131450000Y-113511000D03*
X130180000Y-113511000D03*
X128910000Y-113511000D03*
D18*
X126125000Y-114511000D03*
X126125000Y-115781000D03*
X126125000Y-117051000D03*
X126125000Y-118321000D03*
X126125000Y-119591000D03*
X126125000Y-120861000D03*
X126125000Y-122131000D03*
X126125000Y-123401000D03*
X126125000Y-124671000D03*
X126125000Y-125941000D03*
X126125000Y-127211000D03*
X126125000Y-128481000D03*
X126125000Y-129751000D03*
X126125000Y-131021000D03*
D20*
X135625000Y-123521000D03*
%TD*%
D21*
%TO.C,J7*%
X156200000Y-59750000D03*
D22*
X151200000Y-59750000D03*
%TD*%
D16*
%TO.C,D2*%
X155428000Y-86056000D03*
D17*
X145268000Y-86056000D03*
%TD*%
D13*
%TO.C,R8*%
X171176000Y-131572000D03*
D14*
X166096000Y-131572000D03*
%TD*%
D13*
%TO.C,C4*%
X167941000Y-118568000D03*
D14*
X160441000Y-118568000D03*
%TD*%
D12*
%TO.C,D1*%
X178796000Y-86564000D03*
D13*
X178796000Y-84024000D03*
%TD*%
D15*
%TO.C,H1*%
X115829000Y-67056000D03*
%TD*%
D13*
%TO.C,R11*%
X165588000Y-112472000D03*
D14*
X170668000Y-112472000D03*
%TD*%
D13*
%TO.C,C9*%
X107990000Y-136348000D03*
D14*
X115490000Y-136348000D03*
%TD*%
D12*
%TO.C,J5*%
X176839500Y-101600000D03*
D13*
X176839500Y-104140000D03*
X176839500Y-106680000D03*
%TD*%
D21*
%TO.C,J8*%
X132050003Y-59700008D03*
D22*
X127050003Y-59700008D03*
%TD*%
D12*
%TO.C,J11*%
X176839500Y-111710000D03*
D13*
X176839500Y-114250000D03*
%TD*%
%TO.C,R10*%
X171303000Y-118441000D03*
D14*
X171303000Y-123521000D03*
%TD*%
D13*
%TO.C,R1*%
X167239000Y-83516000D03*
D14*
X172319000Y-83516000D03*
%TD*%
D12*
%TO.C,J4*%
X110475000Y-132269000D03*
D14*
X107935000Y-132269000D03*
X110475000Y-129729000D03*
X107935000Y-129729000D03*
X110475000Y-127189000D03*
X107935000Y-127189000D03*
%TD*%
D13*
%TO.C,C3*%
X156937000Y-118695000D03*
D14*
X149437000Y-118695000D03*
%TD*%
D12*
%TO.C,RV1*%
X151918000Y-143642000D03*
D13*
X154418000Y-141142000D03*
X156918000Y-143642000D03*
%TD*%
D12*
%TO.C,C12*%
X167493000Y-89928113D03*
D13*
X167493000Y-87428113D03*
%TD*%
D12*
%TO.C,J2*%
X141224000Y-102616000D03*
D14*
X141224000Y-105156000D03*
X138684000Y-102616000D03*
X138684000Y-105156000D03*
X136144000Y-102616000D03*
X136144000Y-105156000D03*
X133604000Y-102616000D03*
X133604000Y-105156000D03*
X131064000Y-102616000D03*
X131064000Y-105156000D03*
%TD*%
D13*
%TO.C,C14*%
X170668000Y-101610000D03*
D14*
X170668000Y-109110000D03*
%TD*%
D23*
%TO.C,U3*%
X161840000Y-133681000D03*
X161840000Y-132411000D03*
X161840000Y-131141000D03*
X161840000Y-129871000D03*
X156890000Y-129871000D03*
X156890000Y-131141000D03*
X156890000Y-132411000D03*
X156890000Y-133681000D03*
%TD*%
D13*
%TO.C,R6*%
X171176000Y-128347000D03*
D14*
X166096000Y-128347000D03*
%TD*%
D24*
%TO.C,J3*%
X110216000Y-79960000D03*
D25*
X110216000Y-82500000D03*
X110216000Y-85040000D03*
X110216000Y-87580000D03*
X110216000Y-90120000D03*
X110216000Y-92660000D03*
X110216000Y-95200000D03*
X110216000Y-97740000D03*
X110216000Y-100280000D03*
X110216000Y-102820000D03*
X110216000Y-105360000D03*
X110216000Y-107900000D03*
X110216000Y-110440000D03*
X110216000Y-112980000D03*
%TD*%
D26*
%TO.C,J1*%
X176002000Y-77589000D03*
X182002000Y-77589000D03*
D27*
X179002000Y-72889000D03*
%TD*%
D28*
%TO.C,Q1*%
X145262000Y-94692000D03*
D29*
X145262000Y-93422000D03*
X145262000Y-92152000D03*
%TD*%
D13*
%TO.C,R4*%
X155682000Y-91898000D03*
D14*
X150602000Y-91898000D03*
%TD*%
D13*
%TO.C,C11*%
X115804000Y-80154000D03*
D14*
X115804000Y-72654000D03*
%TD*%
D13*
%TO.C,C8*%
X159432000Y-137999000D03*
D14*
X151932000Y-137999000D03*
%TD*%
D13*
%TO.C,C13*%
X156885000Y-125553000D03*
D14*
X164385000Y-125553000D03*
%TD*%
D30*
%TO.C,U1*%
X148023000Y-102616000D03*
D12*
X164683000Y-100076000D03*
D14*
X164683000Y-102616000D03*
X164683000Y-105156000D03*
%TD*%
D15*
%TO.C,H2*%
X178821000Y-67056000D03*
%TD*%
D13*
%TO.C,R5*%
X133076000Y-89104000D03*
D14*
X127996000Y-89104000D03*
%TD*%
D28*
%TO.C,Q2*%
X122783000Y-92406000D03*
D29*
X122783000Y-91136000D03*
X122783000Y-89866000D03*
%TD*%
D13*
%TO.C,R2*%
X150602000Y-95327000D03*
D14*
X155682000Y-95327000D03*
%TD*%
D13*
%TO.C,R9*%
X164953000Y-95581000D03*
D14*
X170033000Y-95581000D03*
%TD*%
M02*
